<svg width="48" height="48" viewBox="0 0 48 48" fill="currentColor" xmlns="http://www.w3.org/2000/svg">
<path d="M11.43 46C10.2777 46 9.29134 45.5897 8.4708 44.7691C7.65026 43.9484 7.23999 42.9619 7.23999 41.8095V20.8571C7.23999 19.7048 7.65026 18.7183 8.4708 17.8976C9.29134 17.077 10.2777 16.6667 11.43 16.6667H13.525V12.4762C13.525 9.57778 14.5463 7.10714 16.5889 5.06429C18.6316 3.02143 21.1019 2 24 2C26.8981 2 29.3684 3.02143 31.4111 5.06429C33.4537 7.10714 34.475 9.57778 34.475 12.4762V16.6667H36.57C37.7222 16.6667 38.7086 17.077 39.5292 17.8976C40.3497 18.7183 40.76 19.7048 40.76 20.8571V41.8095C40.76 42.9619 40.3497 43.9484 39.5292 44.7691C38.7086 45.5897 37.7222 46 36.57 46H11.43ZM11.43 41.8095H36.57V20.8571H11.43V41.8095ZM24 35.5238C25.1522 35.5238 26.1386 35.1135 26.9592 34.2929C27.7797 33.4722 28.19 32.4857 28.19 31.3333C28.19 30.181 27.7797 29.1944 26.9592 28.3738C26.1386 27.5532 25.1522 27.1429 24 27.1429C22.8477 27.1429 21.8613 27.5532 21.0408 28.3738C20.2203 29.1944 19.81 30.181 19.81 31.3333C19.81 32.4857 20.2203 33.4722 21.0408 34.2929C21.8613 35.1135 22.8477 35.5238 24 35.5238ZM17.715 16.6667H30.285V12.4762C30.285 10.7302 29.6739 9.24603 28.4519 8.02381C27.2298 6.80159 25.7458 6.19048 24 6.19048C22.2542 6.19048 20.7702 6.80159 19.5481 8.02381C18.326 9.24603 17.715 10.7302 17.715 12.4762V16.6667Z" fill="currentColor"/>
</svg>
