<svg xmlns="http://www.w3.org/2000/svg" width="24" height="24" fill="currentColor" viewBox="0 0 24 24">
  <rect width="18" height="18" x="3.5" y="3.5" rx="1.5"/>
  <path d="M9.274 18h3.696c2.282 0 4.018-.966 4.018-3.052 0-1.4-.826-2.184-1.946-2.45v-.07c.882-.308 1.414-1.288 1.414-2.24 0-1.932-1.624-2.562-3.752-2.562h-3.43V18zm2.072-6.146V9.222h1.232c1.246 0 1.862.364 1.862 1.274 0 .826-.574 1.358-1.89 1.358h-1.204zm0 4.55V13.38h1.442c1.428 0 2.184.434 2.184 1.442 0 1.078-.77 1.582-2.184 1.582h-1.442z"/>
</svg>
