<svg xmlns="http://www.w3.org/2000/svg" width="24" height="24" fill="currentColor" viewBox="0 0 24 24">
  <path d="M9.07 7.55h3.44c.498-.01.997.02 1.49.09.32.047.624.167.89.35.274.184.5.431.66.72a1.9 1.9 0 01.27 1 2 2 0 01-.33 1.11 2 2 0 01-.88.76c.478.12.903.395 1.21.78.282.37.43.825.42 1.29a2.58 2.58 0 01-.24 1.14 2.341 2.341 0 01-.75.89c-.346.23-.745.368-1.16.4-.29 0-1 .05-2.09.06H9.07V7.55zM10.81 9v2H13.2a1.17 1.17 0 00.7-.31.902.902 0 00.26-.67 1 1 0 00-.22-.65 1.07 1.07 0 00-.65-.3H11.8L10.81 9zm0 3.42v2.3h1.6c.398.014.796-.006 1.19-.06a1 1 0 00.63-.34 1.06 1.06 0 00.25-.73 1.17 1.17 0 00-.19-.66 1.08 1.08 0 00-.54-.39 6.064 6.064 0 00-1.54-.12h-1.4z"/>
  <path d="M19.5 22h-15A2.51 2.51 0 012 19.53v-15A2.51 2.51 0 014.5 2h15A2.51 2.51 0 0122 4.52v15A2.51 2.51 0 0119.5 22zM4.5 3A1.5 1.5 0 003 4.52v15A1.5 1.5 0 004.5 21h15a1.5 1.5 0 001.5-1.5v-15A1.5 1.5 0 0019.5 3h-15z"/>
</svg>
