<svg xmlns="http://www.w3.org/2000/svg" width="24" height="24" fill="currentColor" viewBox="0 0 24 24">
  <path d="M14.564 13.701c0 1.631-1.374 2.957-3.064 2.957s-3.064-1.326-3.064-2.957c0-1.63 1.374-2.956 3.064-2.956s3.064 1.327 3.064 2.957zM21 9.503V17.9c0 1.12-.94 2.028-2.101 2.028H4.101C2.941 19.929 2 19.02 2 17.9V9.503c0-1.12.94-2.028 2.101-2.028h2.584v-.701c0-.98.823-1.774 1.838-1.774h5.954c1.015 0 1.838.794 1.838 1.774v.7h2.584c1.16.001 2.101.91 2.101 2.029zM16.14 13.7c0-2.468-2.082-4.477-4.64-4.477s-4.64 2.009-4.64 4.477c0 2.47 2.082 4.478 4.64 4.478s4.64-2.009 4.64-4.477z"/>
</svg>
