<svg xmlns="http://www.w3.org/2000/svg" width="24" height="24" fill="currentColor" viewBox="0 0 24 24">
  <path d="M13.827 4c-2.386 0-4.397.968-5.369 3.119-.518-.382-1.112-.657-1.787-.657-1.7 0-3.354 1.435-3.456 3.22C1.511 10.34 0 12.641 0 14.68 0 17.793 2.545 20 4.984 20h14.383C21.613 20 24 17.448 24 15.055c0-2.22-1.597-4.595-3.618-4.848.007-.115.022-.224.022-.343C20.404 6.326 17.146 4 13.827 4Zm0 1.303c2.824 0 5.103 2.153 5.103 5.163 0 .222-.017.447-.043.675l-.064.547h.518a.385.385 0 0 0 .026-.001c1.75 0 3.16 1.502 3.16 3.368 0 1.865-1.409 3.566-3.16 3.566H4.91c-1.944 0-3.436-1.655-3.436-3.942 0-1.725 1.093-3.166 2.576-3.603l.348-.102-.013-.385c-.002-.068-.005-.102-.005-.106 0-1.355 1.02-2.443 2.292-2.443.635 0 1.206.274 1.621.718l.505.539.249-.715c.72-2.073 2.581-3.28 4.781-3.28Z"/>
  <path d="M4 14.62c0-.46.102-.868.305-1.226a2.13 2.13 0 0 1 .847-.842c.366-.204.78-.305 1.241-.305.565 0 1.048.146 1.45.437a2.1 2.1 0 0 1 .807 1.194H7.376a1.008 1.008 0 0 0-.407-.444 1.135 1.135 0 0 0-.59-.153c-.357 0-.646.121-.867.365-.222.243-.332.567-.332.974 0 .407.11.732.332.975.221.243.51.364.867.364.222 0 .418-.05.59-.152.176-.102.312-.25.407-.444H8.65a2.099 2.099 0 0 1-.806 1.193c-.403.287-.886.43-1.451.43a2.55 2.55 0 0 1-1.24-.298 2.191 2.191 0 0 1-.848-.841A2.439 2.439 0 0 1 4 14.62ZM11.61 17c-.447 0-.858-.102-1.233-.305a2.347 2.347 0 0 1-.888-.848 2.376 2.376 0 0 1-.325-1.233c0-.456.108-.865.325-1.227.221-.362.518-.645.888-.848a2.547 2.547 0 0 1 1.234-.305c.447 0 .856.101 1.227.305.375.203.669.486.881.848.217.362.325.771.325 1.226 0 .456-.108.867-.325 1.234-.217.362-.51.645-.881.848-.37.203-.78.305-1.227.305Zm0-1.034c.38 0 .683-.124.91-.371.23-.248.345-.575.345-.982 0-.41-.115-.738-.346-.98-.226-.248-.529-.372-.908-.372-.384 0-.692.122-.922.365-.226.243-.34.572-.34.988 0 .41.114.74.34.987.23.243.538.365.922.365Zm3.034-1.171c.106-.083.155-.12.146-.115.306-.248.547-.451.722-.61.179-.16.329-.326.45-.5a.891.891 0 0 0 .184-.51.442.442 0 0 0-.09-.294c-.059-.07-.148-.105-.267-.105a.337.337 0 0 0-.281.133c-.066.086-.099.208-.099.367h-.774c.006-.26.062-.477.169-.652.11-.174.252-.303.427-.385a1.39 1.39 0 0 1 .591-.124c.372 0 .652.093.84.28.19.187.286.43.286.73 0 .327-.114.632-.342.913a5.14 5.14 0 0 1-.873.817H17v.638h-2.356v-.583Z"/>
</svg>
