<svg xmlns="http://www.w3.org/2000/svg" width="24" height="24" fill="currentColor" viewBox="0 0 24 24">
  <path d="M20.93 23.09h-1.68v-.85h1.68a.999.999 0 00.36 0l.24.81a2 2 0 01-.6.04zm-3.36 0h-1.69v-.85h1.69v.85zm-3.37 0h-1.69v-.85h1.69v.85zm-3.37 0H9.15v-.85h1.68v.85zm-3.46-1A2.16 2.16 0 017 21v-.72h.84V21a1.23 1.23 0 00.2.68l-.67.41zM23 21.57l-.81-.23c.016-.113.02-.227.01-.34v-1.2h.8V21c.023.19.023.38 0 .57zm-15.08-3H7v-1.68h.84l.08 1.68zM23 18.09h-.8v-1.68h.8v1.68zm0-3.36h-.8V13h.8v1.73zm0-3.37h-.8V9.67h.8v1.69zm-1.15-3a1.29 1.29 0 00-1-.43h-.24v-.84h.24a2.14 2.14 0 011.6.72l-.6.55zM19 7.93h-1.67v-.84H19v.84z"/>
  <path d="M15.33 17h-12a2 2 0 01-2-2V3a2 2 0 012-2h12a2 2 0 012 2v12a2 2 0 01-2 2zm-12-15.2A1.2 1.2 0 002.13 3v12a1.2 1.2 0 001.2 1.2h12a1.2 1.2 0 001.2-1.2V3a1.2 1.2 0 00-1.2-1.2h-12z"/>
</svg>
