<svg xmlns="http://www.w3.org/2000/svg" width="24" height="24" fill="currentColor" viewBox="0 0 24 24">
  <path d="M15.35 17h-1.68v-.84h1.68c.122-.002.242-.019.36-.05l.23.81c-.192.052-.39.079-.59.08zM12 17h-1.7v-.84H12V17zm-3.39 0H6.93v-.84h1.68V17zm-3.36 0H3.56v-.84h1.69V17zm-3.46-1a2.1 2.1 0 01-.33-1.14v-.72h.84v.72c0 .241.07.477.2.68l-.71.46zm15.58-.55l-.81-.24a1 1 0 00.05-.35v-1.19h.85v1.21a2 2 0 01-.09.59v-.02zm-15.07-3h-.84v-1.66h.84v1.66zM17.46 12h-.85v-1.69h.85V12zM2.3 9.1h-.84V7.42h.84V9.1zm15.16-.48h-.85V6.94h.85v1.68zM2.3 5.73h-.84V4.05h.84v1.68zm15.16-.48h-.85V3.57h.85v1.68zm-15-2.69l-.76-.35A2.1 2.1 0 013.26 1l.12.84a1.27 1.27 0 00-.97.72h.05zm13.9-.3a1.26 1.26 0 00-1-.44h-.24V1h.24a2.11 2.11 0 011.59.73l-.59.53zm-2.88-.44h-1.74V1h1.69l.05.82zm-3.37 0H8.37V1h1.69l.05.82zm-3.37 0H5V1h1.69l.05.82z"/>
  <path d="M21.47 6.86H17v.8h4.45a1.2 1.2 0 011.2 1.2v12a1.2 1.2 0 01-1.2 1.2h-12a1.2 1.2 0 01-1.2-1.2v-3.71h-.8v3.71a2 2 0 002 2h12a2 2 0 002-2v-12a2 2 0 00-1.98-2z"/>
</svg>
