<svg xmlns="http://www.w3.org/2000/svg" width="24" height="24" fill="currentColor" viewBox="0 0 24 24">
  <path d="M17.288 9.8h-4.726V3.424a.378.378 0 0 0-.116-.267.555.555 0 0 0-.297-.148.637.637 0 0 0-.347.035.482.482 0 0 0-.242.204L6.047 13.395a.355.355 0 0 0 .037.406.5.5 0 0 0 .19.143.624.624 0 0 0 .25.052h4.988v6.374c0 .097.041.192.117.267.075.076.18.128.297.149a.617.617 0 0 0 .395-.058.467.467 0 0 0 .194-.182l5.25-10.146a.354.354 0 0 0-.036-.406.5.5 0 0 0-.19-.143.625.625 0 0 0-.251-.052Zm-4.726 8.608v-5.103a.389.389 0 0 0-.153-.3.593.593 0 0 0-.372-.125H7.865l3.647-7.228v4.838c0 .112.056.22.154.3.099.08.232.125.371.125h3.91l-3.384 7.493Z"/>
</svg>
