<svg xmlns="http://www.w3.org/2000/svg" width="24" height="24" fill="currentColor" viewBox="0 0 24 24">
  <path d="M18.111 8.804c.167.08.318.192.445.327A.257.257 0 0019 8.955V7.192a.256.256 0 00-.153-.235 3.5 3.5 0 00-1.997-.245V5.257A.257.257 0 0016.593 5h-1.57a.257.257 0 00-.256.257v2.25c-.551.296-1.129.539-1.725.725V5.257A.257.257 0 0012.785 5h-1.57a.257.257 0 00-.256.257v2.975a9.802 9.802 0 01-1.725-.726v-2.25A.257.257 0 008.978 5H7.407a.257.257 0 00-.257.257v1.455a3.499 3.499 0 00-1.997.245.257.257 0 00-.153.235v1.762a.257.257 0 00.441.178c.129-.136.28-.246.449-.328.4-.173.849-.191 1.26-.052v1.44a3.514 3.514 0 00-1.997.242.257.257 0 00-.153.235v1.763a.257.257 0 00.442.177 1.53 1.53 0 01.448-.328c.399-.173.848-.192 1.26-.054v1.44a3.499 3.499 0 00-1.997.245.257.257 0 00-.153.234v1.764a.256.256 0 00.441.178c.13-.136.28-.247.449-.33.399-.172.848-.19 1.26-.051v3.037a.257.257 0 00.257.256h1.57a.257.257 0 00.256-.256v-2.08c.553.252 1.132.441 1.726.564v1.515a.257.257 0 00.257.257h1.57a.257.257 0 00.256-.256v-1.516a8.145 8.145 0 001.725-.563v2.079a.256.256 0 00.257.256h1.57a.256.256 0 00.256-.256v-3.037c.412-.14.86-.121 1.26.051.167.082.319.193.448.329A.257.257 0 0019 15.91v-1.764a.256.256 0 00-.153-.234 3.498 3.498 0 00-1.997-.246v-1.44a1.76 1.76 0 011.26.055c.167.082.319.193.448.328a.257.257 0 00.442-.177V10.67a.256.256 0 00-.153-.235 3.512 3.512 0 00-1.997-.243V8.75c.412-.139.862-.12 1.261.053zm-1.774-3.29v1.311a5.78 5.78 0 00-1.057.419v-1.73h1.057zm-.898 2.223c.38-.203.782-.358 1.2-.46l.022-.006a3.108 3.108 0 011.826.093v1.059c-.048-.03-.1-.056-.154-.082-.68-.328-1.503-.245-2.447.249-.949.496-1.883.955-2.844 1.16v-.988c.774-.197 1.548-.58 2.397-1.025zm-4.48 7.451a9.968 9.968 0 01-1.726-.727V13.19c.552.254 1.131.444 1.726.566v1.433zm0-4.916v1.44a9.9 9.9 0 01-1.725-.728V9.708c.552.252 1.131.441 1.725.564zm-1.726 2.352V11.56a8.33 8.33 0 001.943.733 3.838 3.838 0 001.68-.008 8.331 8.331 0 001.91-.725v1.065c-1.089.502-1.925.72-2.766.72-.84 0-1.677-.218-2.767-.72zm3.809 1.13a8.02 8.02 0 001.725-.564v1.272a9.79 9.79 0 01-1.725.726v-1.433zm1.725-2.77c-.551.297-1.129.54-1.725.728v-1.44a8.15 8.15 0 001.725-.563v1.275zm-2.239-5.47v6.31c-.35.06-.707.06-1.056 0v-6.31h1.056zm-4.865 0H8.72v1.729a5.794 5.794 0 00-1.057-.418V5.513zM5.668 8.34a1.96 1.96 0 00-.155.083v-1.06A3.108 3.108 0 017.34 7.27l.022.006c.417.102.82.257 1.2.46.85.444 1.622.827 2.397 1.025v.988c-.96-.206-1.894-.664-2.844-1.16-.944-.493-1.767-.577-2.446-.249zm0 3.477a2.004 2.004 0 00-.155.083v-1.06a3.063 3.063 0 011.637-.13v.988a2.197 2.197 0 00-1.482.12zm1.995-2.875c.07.032.14.064.213.102.282.147.563.291.844.428v4.725a5.795 5.795 0 00-1.057-.419V8.943zm1.057 9.544H7.663v-2.589c.07.033.14.065.213.103.282.147.563.291.844.427v2.059zm-.606-2.94c-.941-.494-1.765-.579-2.448-.25a2.093 2.093 0 00-.154.083v-1.062a3.11 3.11 0 011.827-.092l.021.005c.418.103.82.258 1.2.46.818.429 1.617.827 2.398 1.027v.988c-.96-.206-1.894-.664-2.844-1.16zm3.357 2.94V13.83a5.298 5.298 0 001.056 0v4.657h-1.056zm4.866 0H15.28v-2.058c.281-.137.562-.28.844-.428.073-.038.143-.07.213-.103v2.589zm2.15-4.169v1.061c-.049-.03-.1-.057-.154-.083-.682-.328-1.506-.244-2.447.25-.949.496-1.882.955-2.844 1.16v-.988c.78-.2 1.58-.598 2.398-1.027a5.137 5.137 0 011.221-.466 3.111 3.111 0 011.826.093zm0-3.477v1.06c-.048-.028-.1-.056-.154-.082a2.196 2.196 0 00-1.483-.12v-.987a3.063 3.063 0 011.637.129zm-2.15 2.938c-.365.105-.72.245-1.057.42V9.472c.281-.137.562-.28.844-.428.072-.038.143-.07.213-.103v4.837z"/>
</svg>
