<svg xmlns="http://www.w3.org/2000/svg" width="24" height="24" fill="currentColor" viewBox="0 0 24 24">
  <path d="M12 10.05c-1.42 0-2.575 1.189-2.575 2.652S10.58 15.354 12 15.354c1.42 0 2.575-1.189 2.575-2.652S13.421 10.05 12 10.05zm-.195 1.866a.6.6 0 00-.586.603h-.852c.017-.823.656-1.481 1.438-1.481v.878z"/>
  <path d="M19.814 12.153c-.87-1.116-3.978-4.755-7.814-4.755s-6.943 3.64-7.814 4.755a.9.9 0 000 1.097c.87 1.115 3.978 4.755 7.814 4.755s6.943-3.64 7.814-4.755a.9.9 0 000-1.097zM12 16.542c-2.06 0-3.73-1.72-3.73-3.84C8.27 10.58 9.94 8.86 12 8.86s3.73 1.719 3.73 3.84c0 2.122-1.67 3.84-3.73 3.84z"/>
  <g>
    <path d="M4.437 6.498l.771-.75 12.857 12.5-.772.75z"/>
    <path d="M5.208 5.752l.771-.75 12.857 12.5-.771.75z"/>
  </g>
</svg>
