<svg xmlns="http://www.w3.org/2000/svg" width="68" height="68" fill="none" viewBox="0 0 68 68">
  <path fill="#21B185" d="M36.914 48.61a2.656 2.656 0 100-5.313 2.656 2.656 0 000 5.312z"/>
  <path fill="#21B185" d="M45.812 62.687h-33.07a5.319 5.319 0 01-5.313-5.312V35.594a5.319 5.319 0 015.313-5.313h38.25c.605 0 1.085.053 1.467.163a2.656 2.656 0 001.463-5.107c-.865-.248-1.823-.368-2.93-.368h-3.193V15.6C47.8 6.999 40.65 0 31.862 0c-8.788 0-15.938 6.999-15.938 15.601v9.368h-3.182c-5.859 0-10.625 4.766-10.625 10.625v21.781C2.117 63.234 6.883 68 12.742 68h33.07a2.656 2.656 0 100-5.313zM21.237 15.601c0-5.673 4.766-10.289 10.625-10.289s10.625 4.616 10.625 10.289v9.368h-21.25V15.6z"/>
  <path fill="#21B185" d="M26.953 48.61a2.656 2.656 0 100-5.313 2.656 2.656 0 000 5.312zM65.881 43.988c-.058-5.152-4.267-9.325-9.432-9.325-5.202 0-9.433 4.232-9.433 9.433a2.656 2.656 0 105.312 0 4.125 4.125 0 014.12-4.12 4.125 4.125 0 011.617 7.916c-2.596 1.108-4.273 3.668-4.273 6.521v2.297a2.656 2.656 0 105.313 0v-2.297c0-.722.41-1.364 1.046-1.635a9.425 9.425 0 005.73-8.79zM56.437 68a2.656 2.656 0 100-5.312 2.656 2.656 0 000 5.312zM16.992 48.61a2.656 2.656 0 100-5.313 2.656 2.656 0 000 5.312z"/>
</svg>
