<svg xmlns="http://www.w3.org/2000/svg" width="24" height="24" fill="currentColor" viewBox="0 0 24 24">
  <path d="M12.139 3.952c-2.516 0-4.598 1.732-5.225 4.057-1.747.91-2.962 2.71-2.962 4.811a5.468 5.468 0 0 0 5.458 5.458h2.046v2.047h1.365v-4.493l3.21-3.211-.964-.965-2.246 2.246V8.045h-1.364v4.493L9.21 10.292l-.965.964 3.212 3.211v2.447H9.41a4.083 4.083 0 0 1-4.093-4.094c0-1.668.995-3.093 2.42-3.733l.32-.144.07-.344a4.088 4.088 0 0 1 4.012-3.283A4.088 4.088 0 0 1 16.15 8.6l.069.344.32.144a4.088 4.088 0 0 1 2.42 3.733 4.083 4.083 0 0 1-4.093 4.094h-.682v1.364h.682a5.468 5.468 0 0 0 5.458-5.457c0-2.102-1.215-3.902-2.962-4.812-.627-2.325-2.71-4.057-5.224-4.057Z"/>
</svg>
