<svg xmlns="http://www.w3.org/2000/svg" width="36" height="36" fill="none" viewBox="0 0 36 36">
  <circle cx="18" cy="17.357" r="16.071" fill="#fff"/>
  <g clip-path="url(#clip0)">
    <path fill="#21B185" d="M18 0C8.06 0 0 8.06 0 18s8.06 18 18 18 18-8.06 18-18c0-9.941-8.06-18-18-18zm9.044 14.796L22.642 19.2a2.512 2.512 0 01-1.788.74c-.675 0-1.31-.263-1.787-.74l-.172-.173-.47.47.173.171a2.53 2.53 0 010 3.575l-4.402 4.403a2.511 2.511 0 01-1.788.74c-.675 0-1.31-.263-1.788-.74L8.957 25.98a2.53 2.53 0 010-3.575l4.402-4.402a2.511 2.511 0 011.788-.74c.675 0 1.31.263 1.787.74l.172.172.469-.469-.172-.172a2.53 2.53 0 010-3.574l4.402-4.403a2.512 2.512 0 011.788-.74c.675 0 1.31.263 1.788.74l1.664 1.665a2.53 2.53 0 010 3.574z"/>
    <path fill="#21B185" d="M17.105 20.815l-.852.851-1.32-1.32.851-.85-.171-.173a.657.657 0 00-.934 0l-4.403 4.402a.661.661 0 000 .934l1.665 1.665c.25.25.685.25.934 0l4.402-4.402a.662.662 0 000-.935l-.172-.172zM24.06 10.877a.657.657 0 00-.936 0l-4.402 4.403a.662.662 0 000 .934l.172.172L20.2 15.08l1.32 1.32-1.305 1.306.172.172c.25.25.684.25.934 0l4.402-4.402a.662.662 0 000-.934l-1.664-1.665z"/>
  </g>
  <defs>
    <clipPath id="clip0">
      <path fill="#fff" d="M0 0h36v36H0z"/>
    </clipPath>
  </defs>
</svg>
