<svg xmlns="http://www.w3.org/2000/svg" width="24" height="24" fill="none" viewBox="0 0 24 24">
  <path fill="url(#paint0_linear_6865:201147)" d="M22 2H2v20h20V2z"/>
  <path fill="#fff" d="M4.27 8.136V4.271h3.865L4.269 8.136zM4.27 12.004V8.138h3.865L4.27 12.004zM8.135 8.136V4.271H12L8.135 8.136zM13.934 8.136V4.271h3.865l-3.865 3.865zM8.135 12.004V8.138H12l-3.865 3.866zM12.002 15.868v-3.866h3.865l-3.865 3.866z"/>
  <path fill="#fff" d="M4.27 15.868v-3.866h3.865L4.27 15.868z"/>
  <path fill="#fff" d="M4.27 19.733v-3.866h3.865L4.27 19.733z"/>
  <defs>
    <linearGradient id="paint0_linear_6865:201147" x1="3.4" x2="20.78" y1="3.4" y2="20.78" gradientUnits="userSpaceOnUse">
      <stop stop-color="#1E9A50"/>
      <stop offset=".445" stop-color="#5BB64D"/>
      <stop offset="1" stop-color="#65C2BB"/>
    </linearGradient>
  </defs>
</svg>
