<svg xmlns="http://www.w3.org/2000/svg" width="24" height="24" fill="currentColor" viewBox="0 0 24 24">
  <g clip-path="url(#clip0_9369:90103)">
    <path d="M14.566 5.152A22.127 22.127 0 0011.75 5c-3.365 0-6 1.318-6 3v4c0 1.346 1.696 2.48 4.194 2.861-.699.504-1.437 1.024-2.214 1.559a.498.498 0 00-.028.801l3.336 2.67a.503.503 0 00.61.013 35.601 35.601 0 003.134-2.577c.002-.002.006-.003.008-.006l.002-.003c.473-.437.927-.882 1.36-1.334.006-.005.013-.007.018-.013.005-.005.004-.008.007-.012.318-.332.629-.666.922-1.002.833-.956 1.87-2.145 2.067-3.609.201-1.493-.077-3.707-1.524-5.03-.903-.828-2.062-1.036-3.076-1.166zM11.75 5.5c2.981 0 5.5 1.145 5.5 2.5 0 1.62-3.225 2.5-5.5 2.5-2.981 0-5.5-1.145-5.5-2.5s2.519-2.5 5.5-2.5zM6.25 12V9.22C7.167 10.277 9.258 11 11.75 11a10.27 10.27 0 003.848-.681 51.48 51.48 0 01-4.848 3.954V13a.25.25 0 00-.5 0v1.4A9.613 9.613 0 019 14.152V12.75a.25.25 0 10-.5 0V14a6.079 6.079 0 01-1-.438V12a.25.25 0 10-.5 0v1.233c-.475-.37-.75-.794-.75-1.233zm5.1 7.5l-3.337-2.668c.38-.262.789-.546 1.212-.844.22.141.484.197.742.158a.586.586 0 01.704.507c.1.58.646.974 1.229.888a.59.59 0 01.704.51c.028.132.076.26.141.378-.455.367-.92.725-1.395 1.071zm7.323-8.22a3.833 3.833 0 01-.354 1.138l-.355-.5a.25.25 0 10-.408.29l.498.7c-.241.387-.51.757-.804 1.106l-.696-.796a.25.25 0 10-.376.33l.744.852-.198.228c-.243.28-.5.557-.761.834l-1.05-.9a.25.25 0 10-.325.38l1.029.883c-.329.336-.671.668-1.023.997l-1.182-1.012a.25.25 0 10-.325.38l1.138.974c-.35.318-.714.63-1.084.937a1.46 1.46 0 01-.052-.173c-.1-.58-.645-.973-1.226-.886a.593.593 0 01-.707-.512 1.077 1.077 0 00-1.226-.883c-.075.008-.15.008-.225.001 2.845-2.025 6.243-4.64 7.525-6.407.312-.33.497-.76.52-1.214.013-.786-.54-1.41-1.197-1.846.274.132.529.302.755.506 1.22 1.116 1.564 3.11 1.365 4.593z"/>
    <path d="M11.742 9.5c1.023 0 2.73-.293 3.17-1.22.298-.629-.22-1.275-.804-1.67a5.713 5.713 0 00-1.795-.745.678.678 0 00-.791.389C9.786 6.31 8.5 6.992 8.5 7.875c0 1.179 1.969 1.625 3.242 1.625zm1.836-.8l.09-1.776c.055.033.109.067.16.102.94.633.92 1.235-.25 1.674zm-1.614-2.18v-.004a.187.187 0 01.077-.138.175.175 0 01.149-.029c.338.084.668.194.989.329l-.11 2.176A5.648 5.648 0 0111.785 9l.179-2.48zm-.518.237l-.16 2.225C9.908 8.882 9 8.348 9 7.875c0-.494.991-1.047 2.446-1.118z"/>
    <path d="M12.5 7.5a.25.25 0 00-.25.25V8a.25.25 0 10.5 0v-.25a.25.25 0 00-.25-.25zM9.906 17.055a.25.25 0 00-.312.39l1.25 1a.25.25 0 10.312-.39l-1.25-1z"/>
  </g>
  <defs>
    <clipPath id="clip0_9369:90103">
      <path d="M0 0h15v15H0z" transform="translate(5 5)"/>
    </clipPath>
  </defs>
</svg>
