<svg xmlns="http://www.w3.org/2000/svg" width="24" height="24" fill="currentColor" viewBox="0 0 24 24">
  <g clip-path="url(#clip0)">
    <path d="M16.67 13.13C18.04 14.06 19 15.32 19 17v3h2.553l.29-1.526L23 17c0-.534-.214-1.015-.579-1.443-1.122-1.316-3.667-2.125-5.75-2.427zM15 12c2.21 0 4-1.79 4-4s-1.79-4-4-4c-.47 0-.91.1-1.33.24a5.98 5.98 0 010 7.52c.42.14.86.24 1.33.24zM9 12c2.21 0 4-1.79 4-4s-1.79-4-4-4-4 1.79-4 4 1.79 4 4 4zm0-6c1.1 0 2 .9 2 2s-.9 2-2 2-2-.9-2-2 .9-2 2-2zM9 13c-2.67 0-8 1.34-8 4v3h16v-3c0-2.66-5.33-4-8-4zm6 5H3v-.99C3.2 16.29 6.3 15 9 15s5.8 1.29 6 2v1z"/>
    <g>
      <path d="M23.326 17.744a4.45 4.45 0 00.012-.947l1.203-.936a.269.269 0 00.068-.353l-1.159-1.97c-.067-.122-.213-.166-.348-.122l-1.44.55a3.89 3.89 0 00-.844-.462l-.225-1.497a.278.278 0 00-.282-.242h-2.328c-.135 0-.26.099-.282.23l-.225 1.498a4.7 4.7 0 00-.832.463l-1.44-.55a.276.276 0 00-.349.12l-1.159 1.971a.269.269 0 00.068.353l1.204.947a4.45 4.45 0 00-.012.947l-1.204.936a.269.269 0 00-.067.352l1.159 1.97c.067.122.213.166.349.122l1.428-.55c.259.187.54.34.844.462l.225 1.497a.278.278 0 00.281.232h2.33a.287.287 0 00.28-.232l.225-1.497a4.7 4.7 0 00.833-.463l1.44.551c.135.055.281 0 .349-.121l1.159-1.971a.269.269 0 00-.068-.352l-1.192-.936z"/>
      <path d="M22.49 17.647a3.56 3.56 0 00.01-.757l.962-.749a.215.215 0 00.055-.282l-.927-1.576c-.055-.097-.172-.133-.28-.097l-1.152.44a3.117 3.117 0 00-.675-.37l-.18-1.198a.222.222 0 00-.225-.194h-1.863a.23.23 0 00-.225.185l-.18 1.198c-.234.097-.459.23-.666.37l-1.152-.44a.22.22 0 00-.279.097l-.927 1.576a.215.215 0 00.054.282l.963.758a3.56 3.56 0 00-.009.757l-.963.75a.215.215 0 00-.054.281l.927 1.577c.054.097.171.132.28.097l1.142-.44c.207.15.432.272.675.37l.18 1.197a.223.223 0 00.225.185h1.863a.23.23 0 00.225-.185l.18-1.198c.234-.097.46-.229.666-.37l1.152.44c.108.045.225 0 .28-.096l.927-1.577a.215.215 0 00-.054-.282l-.954-.749zm-3.339.943c-.747 0-1.35-.59-1.35-1.321s.603-1.322 1.35-1.322c.747 0 1.35.59 1.35 1.322 0 .73-.603 1.321-1.35 1.321z"/>
    </g>
  </g>
  <defs>
    <clipPath id="clip0">
      <path d="M0 0h24v24H0z"/>
    </clipPath>
  </defs>
</svg>
