<svg xmlns="http://www.w3.org/2000/svg" width="24" height="24" fill="currentColor" viewBox="0 0 24 24">
  <path d="M19 21.5h-2v-1h2c.142 0 .284-.02.42-.06l.28 1a2.319 2.319 0 01-.7.06zm-4 0h-2v-1h2v1zm-4 0H9v-1h2v1zm-4 0H5v-1h2v1zm-4.1-1.15A2.48 2.48 0 012.5 19v-.86h1V19c-.002.288.081.57.24.81l-.84.54zm18.5-.65l-1-.28c.054-.134.088-.276.1-.42v-1.43h1V19a2.37 2.37 0 01-.1.7zM3.5 16.14h-1v-2h1v2zm18-.57h-1v-2h1v2zm-18-3.43h-1v-2h1v2zm18-.57h-1v-2h1v2zm-18-3.43h-1v-2h1v2zm18-.57h-1v-2h1v2zM3.63 4.38L2.72 4a2.53 2.53 0 011.92-1.48l.14 1a1.51 1.51 0 00-1.15.86zM20.13 4A1.49 1.49 0 0019 3.5h-.29v-1H19a2.51 2.51 0 011.89.86l-.76.64zm-3.42-.5h-2v-1h2v1zm-4 0h-2v-1h2v1zm-4 0h-2v-1h2v1z"/>
  <path d="M9.07 7.55h3.44c.498-.01.997.02 1.49.09.32.047.624.167.89.35.274.184.5.431.66.72a1.9 1.9 0 01.27 1 2 2 0 01-.33 1.11 2 2 0 01-.88.76c.478.12.903.395 1.21.78.282.37.43.825.42 1.29a2.58 2.58 0 01-.24 1.14 2.341 2.341 0 01-.75.89c-.346.23-.745.368-1.16.4-.29 0-1 .05-2.09.06H9.07V7.55zM10.81 9v2H13.2a1.17 1.17 0 00.7-.31.902.902 0 00.26-.67 1 1 0 00-.22-.65 1.07 1.07 0 00-.65-.3H11.8L10.81 9zm0 3.42v2.3h1.6c.398.014.796-.006 1.19-.06a1 1 0 00.63-.34 1.06 1.06 0 00.25-.73 1.17 1.17 0 00-.19-.66 1.08 1.08 0 00-.54-.39 6.064 6.064 0 00-1.54-.12h-1.4z"/>
</svg>
