<svg xmlns="http://www.w3.org/2000/svg" width="24" height="24" fill="currentColor" viewBox="0 0 24 24">
  <path d="M19 21.5h-2v-1h2c.142 0 .284-.02.42-.06l.28 1a2.319 2.319 0 01-.7.06zm-4 0h-2v-1h2v1zm-4 0H9v-1h2v1zm-4 0H5v-1h2v1zm-4.1-1.15A2.48 2.48 0 012.5 19v-.86h1V19c-.002.288.081.57.24.81l-.84.54zm18.5-.65l-1-.28c.054-.134.088-.276.1-.42v-1.43h1V19a2.37 2.37 0 01-.1.7zM3.5 16.14h-1v-2h1v2zm18-.57h-1v-2h1v2zm-18-3.43h-1v-2h1v2zm18-.57h-1v-2h1v2zm-18-3.43h-1v-2h1v2zm18-.57h-1v-2h1v2zM3.63 4.38L2.72 4a2.53 2.53 0 011.92-1.48l.14 1a1.51 1.51 0 00-1.15.86zM20.13 4A1.49 1.49 0 0019 3.5h-.29v-1H19a2.51 2.51 0 011.89.86l-.76.64zm-3.42-.5h-2v-1h2v1zm-4 0h-2v-1h2v1zm-4 0h-2v-1h2v1z"/>
  <path d="M9.6 16.87V7.56H16v1.58h-4.5v2.2h3.89v1.58h-3.91v4l-1.88-.05z"/>
</svg>
