<svg xmlns="http://www.w3.org/2000/svg" width="24" height="24" fill="currentColor" viewBox="0 0 24 24">
  <path d="M12 10.055c-1.42 0-2.575 1.189-2.575 2.652S10.58 15.358 12 15.358c1.42 0 2.575-1.188 2.575-2.651 0-1.463-1.154-2.652-2.575-2.652zm-.195 1.866a.6.6 0 00-.586.603h-.852c.017-.823.656-1.481 1.438-1.481v.878z"/>
  <path d="M19.814 12.159c-.87-1.116-3.978-4.755-7.814-4.755s-6.943 3.639-7.814 4.755a.9.9 0 000 1.097C5.056 14.37 8.164 18.01 12 18.01s6.943-3.639 7.814-4.754a.9.9 0 000-1.098zM12 16.547c-2.06 0-3.73-1.719-3.73-3.84 0-2.121 1.67-3.84 3.73-3.84s3.73 1.719 3.73 3.84c0 2.121-1.67 3.84-3.73 3.84z"/>
</svg>
