<svg xmlns="http://www.w3.org/2000/svg" width="24" height="24" fill="currentColor" viewBox="0 0 24 24">
  <g clip-path="url(#clip0_9369:90108)">
    <path d="M5 17.216L6.784 19l.63-.63-1.782-1.783-.63.63zM5.001 14.32L9.68 19l.63-.63-4.679-4.68-.63.631zM5 11.424l7.575 7.575.63-.63-7.575-7.575-.63.63zM5.001 8.527l10.471 10.471.63-.63-10.47-10.47-.63.63zM18.371 15.25l-1.244 1.245-1.153-1.152 3.027-3.027-.63-.63-3.027 3.027-1.152-1.152 3.529-3.53-.63-.63-3.53 3.53-.929-.93 5.105-5.105-.63-.63-5.105 5.105-.93-.93 3.5-3.5-.63-.63-3.5 3.5L9.29 8.66l3.027-3.027-.63-.63L8.66 8.028l-.93-.93 1.468-1.467-.63-.63L7.1 6.468 5.633 5l-.63.63 13.368 13.37.63-.63-1.244-1.245L19 15.88l-.63-.63zM18.995 5.636l-.63-.63-.63.63.63.63.63-.63z"/>
    <path d="M15.83 5.68l-.63-.63-.63.63.63.63.63-.63zM17.72 8.77l.63.63.63-.63-.63-.63-.63.63z"/>
  </g>
  <defs>
    <clipPath id="clip0_9369:90108">
      <path d="M0 0h14v14H0z" transform="translate(5 5)"/>
    </clipPath>
  </defs>
</svg>
