<svg xmlns="http://www.w3.org/2000/svg" width="24" height="24" fill="currentColor" viewBox="0 0 24 24">
  <path d="M21.996 12.763c-.024-.554-.566-.996-1.614-1.315-.813-.243-1.845-.39-2.96-.415V6.781a.43.43 0 00-.06-.199c-.112-.482-.65-.873-1.602-1.16-.897-.27-2.068-.418-3.3-.418-1.227 0-2.387.148-3.267.419-.722.223-1.586.637-1.586 1.35 0 .044.004.088.012.132l.043 1.817A4.769 4.769 0 002 13.404c0 2.63 2.14 4.77 4.77 4.77a4.743 4.743 0 003.004-1.068c.746.175 1.622.271 2.55.28.204 1.103 2.595 1.609 4.822 1.609 1.228 0 2.387-.151 3.268-.426.721-.223 1.586-.642 1.586-1.355v-4.376c0-.023 0-.051-.004-.075zm-5.407-3.778c0 .052-.192.327-1.056.59-.81.243-1.93.386-3.069.386-.984 0-1.948-.103-2.713-.299l-.032-.008A4.597 4.597 0 008.47 8.95l-.027-1.124c.274.14.561.251.86.331.865.251 1.985.387 3.16.387 1.228 0 2.403-.148 3.3-.419.299-.087.59-.203.864-.346v1.044c-.043.055-.04.107-.04.163zM9.432 6.192c.805-.247 1.88-.387 3.028-.387 1.14 0 2.26.14 3.069.387.864.263 1.056.534 1.056.585 0 .056-.196.331-1.06.59-.81.243-1.925.383-3.065.383-1.1 0-2.144-.128-2.937-.359-.856-.247-1.095-.518-1.115-.606 0-.008-.004-.008-.004-.008.004-.075.187-.33 1.028-.585zm.012 10.153a3.974 3.974 0 01-5.611-.263A3.968 3.968 0 016.77 9.44c.398 0 .793.06 1.175.176a3.988 3.988 0 012.718 2.992c.052.263.08.534.08.801a3.948 3.948 0 01-1.3 2.937zm1.012.088c.323-.395.582-.837.765-1.311.339.028.69.047 1.056.052v.071l.024 1.351a12.454 12.454 0 01-1.845-.163zm1.064-3.499c.23.016.474.024.721.028l.024 1.41a13.44 13.44 0 01-.817-.035 4.896 4.896 0 00.072-1.403zm.98-.765h-.04c-.382 0-.753-.016-1.096-.04a4.723 4.723 0 00-.713-1.482c.598.075 1.2.115 1.805.115 1.232 0 2.407-.147 3.304-.418.299-.088.586-.203.86-.343v1.044c-1.71.048-3.466.407-4.12 1.124zm.526.633c0-.003 0-.008.004-.015.036-.108.319-.371 1.144-.602.773-.22 1.781-.339 2.84-.339h.069c1.14 0 2.255.132 3.068.379.849.255 1.048.518 1.052.578v.003c-.004.06-.203.335-1.088.598-.817.243-1.893.375-3.028.375-1.1 0-2.144-.128-2.937-.355-.857-.247-1.092-.522-1.116-.605l-.008-.017zm7.157 5.01c-.805.25-1.885.39-3.033.39-1.151 0-2.227-.136-3.024-.379-.84-.259-1.016-.526-1.016-.585v-.008l-.02-1.156c.319.155.65.275.992.363.837.219 1.9.342 2.993.342 1.231 0 2.399-.147 3.291-.418.291-.088.57-.203.837-.339v1.196h.004c0 .055-.183.33-1.024.593zm1.028-2.933h-.004c0 .04-.024.087-.024.131 0 .056-.187.327-1.048.59-.817.247-1.905.382-3.056.382-2.208 0-3.694-.498-4.005-.884l-.004-.335-.016-.916c.279.139.57.25.869.334.864.251 1.984.387 3.16.387 1.211 0 2.367-.144 3.255-.407.303-.083.594-.199.873-.342v1.06z"/>
  <path d="M8.22 13.97a1.506 1.506 0 00-1.45-1.095.707.707 0 110-1.415c.39 0 .71.32.71.71a.4.4 0 00.398.398.4.4 0 00.398-.398c0-.674-.446-1.268-1.096-1.45v-.18a.4.4 0 00-.398-.399.4.4 0 00-.399.399v.171a1.505 1.505 0 00.387 2.957.707.707 0 11-.705.71.4.4 0 00-.399-.4.4.4 0 00-.398.4 1.514 1.514 0 001.115 1.454v.346a.4.4 0 00.399.399.4.4 0 00.398-.399v-.35a1.503 1.503 0 001.04-1.857z"/>
</svg>
