<svg xmlns="http://www.w3.org/2000/svg" width="24" height="24" fill="currentColor" viewBox="0 0 24 24">
  <path d="M19 7.98a.439.439 0 00-.287-.406l-6.537-2.541a.487.487 0 00-.352 0L5.287 7.574A.439.439 0 005 7.98v8.042c0 .177.113.337.287.405l6.537 2.541a.485.485 0 00.351 0l6.538-2.541A.438.438 0 0019 16.02V7.979zm-7 2.104l-2.409-.936 5.206-2.15 2.57 1L12 10.084zM5.926 8.67l2.078.808v2.279a.45.45 0 00.463.438.45.45 0 00.462-.438v-1.92l2.608 1.014v7.057l-5.611-2.181V8.67zM12 5.912l1.604.623L8.4 8.685l-1.766-.687L12 5.912zm.463 4.94l5.611-2.182v7.057l-5.611 2.181v-7.057z"/>
</svg>
