<svg xmlns="http://www.w3.org/2000/svg" width="110" height="110" fill="currentColor" viewBox="0 0 110 110">
  <path fill-rule="evenodd" d="M94.074 107.053H41.877c-9.424 0-14.258-4.883-14.258-14.405V82.207H8a6 6 0 01-6-6v-28a6 6 0 016-6h19.62V17.355C27.62 7.834 32.501 3 41.876 3h23.437c4.737 0 7.276.732 10.4 3.906l28.712 29.004c3.222 3.32 3.906 5.664 3.906 10.938v45.8c0 9.522-4.785 14.405-14.258 14.405zm-60.4-14.551V82.207H58a6 6 0 006-6v-28a6 6 0 00-6-6H33.674V17.502c0-5.371 2.88-8.496 8.545-8.496h22.803V38.4c0 5.567 2.831 8.203 8.251 8.203h29.053v45.899c0 5.517-2.93 8.496-8.545 8.496H42.17c-5.615 0-8.496-2.979-8.496-8.496zm37.06-54.736c0 2.246.928 3.125 3.174 3.125h27.197l-30.37-30.664v27.539zM58 47.207H8a1 1 0 00-1 1v28a1 1 0 001 1h50a1 1 0 001-1v-28a1 1 0 00-1-1zm-30.143 24h-10.6v-1.78l6.9-10.56h-6.24v-2.48h9.88v1.78l-6.9 10.56h6.96v2.48zm5.585 0h-2.96v-14.82h2.96v14.82zm6.602 0h-2.96v-14.82h4.86c3.28 0 5.8 1.16 5.8 4.66 0 3.38-2.54 4.9-5.72 4.9h-1.98v5.26zm0-12.46v4.86h1.78c2.04 0 3.02-.86 3.02-2.56 0-1.72-1.08-2.3-3.12-2.3h-1.68z" clip-rule="evenodd"/>
</svg>
