<svg width="32" height="32" viewBox="0 0 32 32" fill="currentColor" xmlns="http://www.w3.org/2000/svg">
<path d="M14.8998 10.6668L12.2332 8.00016H5.33317V24.0002H26.6665V10.6668H14.8998ZM5.33317 26.6668C4.59984 26.6668 3.97206 26.4057 3.44984 25.8835C2.92762 25.3613 2.6665 24.7335 2.6665 24.0002V8.00016C2.6665 7.26683 2.92762 6.63905 3.44984 6.11683C3.97206 5.59461 4.59984 5.3335 5.33317 5.3335H13.3332L15.9998 8.00016H26.6665C27.3998 8.00016 28.0276 8.26127 28.5498 8.7835C29.0721 9.30572 29.3332 9.9335 29.3332 10.6668V24.0002C29.3332 24.7335 29.0721 25.3613 28.5498 25.8835C28.0276 26.4057 27.3998 26.6668 26.6665 26.6668H5.33317Z" fill="currentColor"/>
<path d="M16.6665 21.3335V13.3335H20.6665C21.0443 13.3335 21.3609 13.4613 21.6165 13.7168C21.8721 13.9724 21.9998 14.2891 21.9998 14.6668V20.0002C21.9998 20.3779 21.8721 20.6946 21.6165 20.9502C21.3609 21.2057 21.0443 21.3335 20.6665 21.3335H16.6665ZM9.99984 21.3335V19.3335H13.3332V18.0002H11.3332V16.6668H13.3332V15.3335H9.99984V13.3335H13.9998C14.3776 13.3335 14.6943 13.4613 14.9498 13.7168C15.2054 13.9724 15.3332 14.2891 15.3332 14.6668V20.0002C15.3332 20.3779 15.2054 20.6946 14.9498 20.9502C14.6943 21.2057 14.3776 21.3335 13.9998 21.3335H9.99984ZM18.6665 19.3335H19.9998V15.3335H18.6665V19.3335Z" fill="currentColor"/>
</svg>
