<svg xmlns="http://www.w3.org/2000/svg" width="24" height="24" fill="currentColor" viewBox="0 0 24 24">
  <mask id="a" width="24" height="24" x="0" y="0" maskUnits="userSpaceOnUse" style="mask-type:alpha">
    <path d="M0 0h24v24H0z"/>
  </mask>
  <g mask="url(#a)">
    <path d="m11 19.55-5-2.875a1.955 1.955 0 0 1-.737-.737A2.016 2.016 0 0 1 5 14.925V9.2c0-.367.088-.704.263-1.013.175-.308.42-.554.737-.737l5-2.875c.317-.183.65-.275 1-.275s.683.092 1 .275l5 2.875c.317.183.563.429.738.737.175.309.262.646.262 1.013v5.725c0 .367-.087.704-.262 1.013a1.962 1.962 0 0 1-.738.737l-5 2.875c-.317.183-.65.275-1 .275s-.683-.092-1-.275Zm0-2.3v-4.6l-4-2.3v4.6l4 2.3Zm2 0 4-2.3v-4.6l-4 2.3v4.6ZM1 6V4c0-.833.292-1.542.875-2.125A2.893 2.893 0 0 1 4 1h2v2H4a.967.967 0 0 0-.712.287A.968.968 0 0 0 3 4v2H1Zm3 17a2.893 2.893 0 0 1-2.125-.875A2.893 2.893 0 0 1 1 20v-2h2v2c0 .283.096.52.288.712A.965.965 0 0 0 4 21h2v2H4Zm14 0v-2h2c.283 0 .52-.096.712-.288A.965.965 0 0 0 21 20v-2h2v2c0 .833-.292 1.542-.875 2.125A2.893 2.893 0 0 1 20 23h-2Zm3-17V4a.968.968 0 0 0-.288-.713A.967.967 0 0 0 20 3h-2V1h2c.833 0 1.542.292 2.125.875S23 3.167 23 4v2h-2Zm-9 4.9 4-2.3-4-2.3-4 2.3 4 2.3Z"/>
  </g>
</svg>
