<svg xmlns="http://www.w3.org/2000/svg" width="24" height="24" fill="currentColor" viewBox="0 0 24 24">
  <path d="M9.33.27c.44-.14.88-.22 1.32-.24C11.09.01 11.54 0 12 0c1.66 0 3.215.315 4.665.945 1.45.63 2.72 1.49 3.81 2.58a12.22 12.22 0 0 1 2.58 3.81C23.685 8.785 24 10.34 24 12h-1.8c0-2.56-.835-4.8-2.505-6.72S15.91 2.23 13.35 1.89l1.8 1.8-1.2 1.2L9.33.27Zm5.34 23.43c-.44.14-.88.225-1.32.255-.44.03-.89.045-1.35.045-1.64 0-3.19-.315-4.65-.945a12.172 12.172 0 0 1-3.825-2.58 12.172 12.172 0 0 1-2.58-3.825C.315 15.19 0 13.64 0 12h1.8c0 2.54.84 4.775 2.52 6.705 1.68 1.93 3.8 3.065 6.36 3.405l-1.83-1.83 1.2-1.2 4.62 4.62Zm-1.8-7.86V8.13h3.78a1.281 1.281 0 0 1 1.32 1.32v5.07a1.281 1.281 0 0 1-1.32 1.32h-3.78Zm1.47-1.47h2.13V9.63h-2.13v4.74Zm-8.28 1.47v-1.47h3.6v-1.8H7.35V11.4h2.31V9.63h-3.6v-1.5h3.78a1.281 1.281 0 0 1 1.32 1.32v5.07a1.281 1.281 0 0 1-1.32 1.32H6.06Z"/>
</svg>
