<svg xmlns="http://www.w3.org/2000/svg" width="24" height="24" fill="currentColor" viewBox="0 0 24 24">
  <path fill-rule="evenodd" d="M5.353 5.16a.195.195 0 0 0-.195.195v3.9c0 .108.088.195.195.195h3.9a.195.195 0 0 0 .195-.195v-3.9a.195.195 0 0 0-.195-.195h-3.9Zm-1.755.195c0-.969.786-1.755 1.755-1.755h3.9c.97 0 1.755.786 1.755 1.755v3.9c0 .97-.786 1.755-1.755 1.755h-3.9a1.755 1.755 0 0 1-1.755-1.755v-3.9Zm11.505-.195a.195.195 0 0 0-.195.195v3.9c0 .108.088.195.195.195h3.9a.195.195 0 0 0 .195-.195v-3.9a.195.195 0 0 0-.195-.195h-3.9Zm-1.755.195c0-.969.786-1.755 1.755-1.755h3.9c.97 0 1.755.786 1.755 1.755v3.9c0 .97-.786 1.755-1.755 1.755h-3.9a1.755 1.755 0 0 1-1.755-1.755v-3.9Zm-7.995 9.556a.195.195 0 0 0-.195.194v3.9c0 .108.088.196.195.196h3.9a.195.195 0 0 0 .195-.195v-3.9a.195.195 0 0 0-.195-.195h-3.9Zm-1.755.194c0-.969.786-1.755 1.755-1.755h3.9c.97 0 1.755.787 1.755 1.755v3.9c0 .97-.786 1.756-1.755 1.756h-3.9a1.755 1.755 0 0 1-1.755-1.755v-3.9Zm11.505-.194a.195.195 0 0 0-.195.194v3.9c0 .108.088.196.195.196h3.9a.195.195 0 0 0 .195-.195v-3.9a.195.195 0 0 0-.195-.195h-3.9Zm-1.755.194c0-.969.786-1.755 1.755-1.755h3.9c.97 0 1.755.787 1.755 1.755v3.9c0 .97-.786 1.756-1.755 1.756h-3.9a1.755 1.755 0 0 1-1.755-1.755v-3.9Z" clip-rule="evenodd"/>
</svg>
