<svg xmlns="http://www.w3.org/2000/svg" width="24" height="24" fill="currentColor" viewBox="0 0 24 24">
  <path d="M4.55 21.15c-.45 0-.846-.17-1.188-.512-.341-.342-.512-.738-.512-1.188V4.55c0-.467.17-.867.512-1.2.342-.333.738-.5 1.188-.5h14.9c.467 0 .867.167 1.2.5.333.333.5.733.5 1.2v14.9c0 .45-.167.846-.5 1.188a1.617 1.617 0 0 1-1.2.512H4.55Zm0-1.7h14.9v-3.375h-3.6a4.398 4.398 0 0 1-1.688 1.538A4.642 4.642 0 0 1 12 18.15c-.75 0-1.47-.18-2.162-.537a4.399 4.399 0 0 1-1.688-1.538h-3.6v3.375Zm7.45-2.8c.683 0 1.3-.196 1.85-.587a5.314 5.314 0 0 0 1.4-1.488h4.2V4.55H4.55v10.025h4.2c.383.6.85 1.096 1.4 1.488.55.391 1.167.587 1.85.587Zm-7.45 2.8h14.9-14.9Z"/>
</svg>
