<svg xmlns="http://www.w3.org/2000/svg" width="24" height="24" fill="currentColor" viewBox="0 0 24 24">
  <path fill-rule="evenodd" d="M4.5 22h15a2.51 2.51 0 0 0 2.5-2.48v-15A2.509 2.509 0 0 0 19.5 2h-15A2.51 2.51 0 0 0 2 4.53v15A2.51 2.51 0 0 0 4.5 22Zm8.01-14.451H9.07v8.59H12c.688-.007 1.225-.029 1.6-.044.22-.01.383-.016.49-.016a2.43 2.43 0 0 0 1.16-.4 2.34 2.34 0 0 0 .75-.89 2.58 2.58 0 0 0 .24-1.14 2.06 2.06 0 0 0-.42-1.29 2.25 2.25 0 0 0-1.21-.78 2 2 0 0 0 .88-.76 2 2 0 0 0 .33-1.11 1.9 1.9 0 0 0-.27-1 2.08 2.08 0 0 0-.66-.72 2.11 2.11 0 0 0-.89-.35c-.493-.07-.991-.1-1.49-.09Zm-1.7 3.45v-2l.99.07h1.49c.245.022.475.128.65.3a1 1 0 0 1 .22.65.901.901 0 0 1-.26.67 1.17 1.17 0 0 1-.7.31h-2.39Zm0 3.72v-2.3h1.4a6.068 6.068 0 0 1 1.54.12c.217.07.406.206.54.39.128.196.194.425.19.66a1.06 1.06 0 0 1-.25.73 1 1 0 0 1-.63.34 6.892 6.892 0 0 1-1.19.06h-1.6Z" clip-rule="evenodd"/>
</svg>
