<svg xmlns="http://www.w3.org/2000/svg" width="24" height="24" fill="currentColor" viewBox="0 0 24 24">
  <path d="M19.5 22h-15A2.51 2.51 0 0 1 2 19.53v-15A2.51 2.51 0 0 1 4.5 2h15A2.51 2.51 0 0 1 22 4.52v15A2.51 2.51 0 0 1 19.5 22Z"/>
  <path d="M9.07 7.549h3.44c.499-.01.997.02 1.49.09.32.047.624.166.89.35.274.184.5.43.66.72a1.9 1.9 0 0 1 .27 1 2 2 0 0 1-.33 1.11 2 2 0 0 1-.88.76c.478.12.903.394 1.21.78.282.37.43.825.42 1.29a2.58 2.58 0 0 1-.24 1.14 2.34 2.34 0 0 1-.75.89 2.43 2.43 0 0 1-1.16.4c-.29 0-1 .05-2.09.06H9.07v-8.59Zm1.74 1.45v2h2.39a1.17 1.17 0 0 0 .7-.31.899.899 0 0 0 .26-.67 1 1 0 0 0-.22-.65 1.07 1.07 0 0 0-.65-.3H11.8l-.99-.07Zm0 3.42v2.3h1.6a6.96 6.96 0 0 0 1.19-.06 1 1 0 0 0 .63-.34 1.06 1.06 0 0 0 .25-.73 1.17 1.17 0 0 0-.19-.66 1.08 1.08 0 0 0-.54-.39 6.068 6.068 0 0 0-1.54-.12h-1.4Z"/>
</svg>
