<svg xmlns="http://www.w3.org/2000/svg" width="24" height="24" fill="currentColor" viewBox="0 0 24 24">
  <path d="M23.109 5.804a2.459 2.459 0 0 0-1.805-.76h-3.608V5c0-.543-.218-1.065-.587-1.413A1.99 1.99 0 0 0 15.696 3H9.174a2.002 2.002 0 0 0-2.022 2v.043H3.565c-.717 0-1.348.283-1.804.761A2.585 2.585 0 0 0 1 7.61v10.826c0 .717.283 1.348.76 1.804.457.457 1.11.761 1.805.761h17.74c.717 0 1.347-.283 1.804-.76a2.59 2.59 0 0 0 .76-1.805V7.609a2.46 2.46 0 0 0-.76-1.805Zm-.37 12.63h-.022c0 .392-.152.74-.413 1a1.39 1.39 0 0 1-1 .414H3.565c-.391 0-.739-.152-1-.413a1.396 1.396 0 0 1-.413-1V7.609c0-.392.152-.74.413-1a1.396 1.396 0 0 1 1-.413h4.196a.585.585 0 0 0 .587-.587v-.63c0-.24.087-.457.239-.61a.854.854 0 0 1 .609-.239h6.5a.85.85 0 0 1 .608.24c.152.152.24.37.24.608v.63c0 .327.26.588.586.588h4.196c.391 0 .74.152 1 .413.261.26.413.608.413 1v10.826Z"/>
  <path d="M12.435 7.675A5.357 5.357 0 0 0 8.652 9.24a5.305 5.305 0 0 0-1.565 3.783c0 1.478.609 2.826 1.565 3.782a5.305 5.305 0 0 0 3.783 1.566 5.357 5.357 0 0 0 3.783-1.566 5.305 5.305 0 0 0 1.565-3.782 5.357 5.357 0 0 0-1.565-3.783 5.357 5.357 0 0 0-3.783-1.565ZM15.392 16a4.248 4.248 0 0 1-2.957 1.217A4.248 4.248 0 0 1 9.478 16a4.156 4.156 0 0 1-1.217-2.957c0-1.152.478-2.195 1.217-2.956a4.156 4.156 0 0 1 2.957-1.218c1.152 0 2.196.479 2.957 1.218a4.156 4.156 0 0 1 1.217 2.956c.022 1.153-.457 2.196-1.218 2.957Zm4.782-6.216a1.065 1.065 0 1 0 0-2.13 1.065 1.065 0 0 0 0 2.13Z"/>
</svg>
