<svg xmlns="http://www.w3.org/2000/svg" width="24" height="24" fill="currentColor" viewBox="0 0 24 24">
  <path d="M23.109 5.804a2.459 2.459 0 00-1.805-.76h-3.608V5c0-.543-.218-1.065-.587-1.413A1.99 1.99 0 0015.696 3H9.174a2.002 2.002 0 00-2.022 2v.043H3.565c-.717 0-1.348.283-1.804.761A2.585 2.585 0 001 7.61v10.826c0 .717.283 1.348.76 1.804.457.457 1.11.761 1.805.761h17.74c.717 0 1.347-.283 1.804-.76.456-.457.76-1.11.76-1.805V7.609c0-.718-.282-1.348-.76-1.805zm-.37 12.63h-.022c0 .392-.152.74-.413 1-.26.262-.608.414-1 .414H3.565c-.391 0-.739-.152-1-.413a1.396 1.396 0 01-.413-1V7.609c0-.392.152-.74.413-1 .261-.261.609-.413 1-.413h4.196c.326 0 .587-.261.587-.587v-.63c0-.24.087-.457.239-.61a.854.854 0 01.609-.239h6.5c.239 0 .456.087.608.24.152.152.24.37.24.608v.63c0 .327.26.588.586.588h4.196c.391 0 .74.152 1 .413.261.26.413.608.413 1v10.826z"/>
  <path d="M12.435 7.675A5.357 5.357 0 008.652 9.24a5.305 5.305 0 00-1.565 3.783c0 1.478.609 2.826 1.565 3.782a5.305 5.305 0 003.783 1.566 5.357 5.357 0 003.783-1.566 5.305 5.305 0 001.565-3.782 5.357 5.357 0 00-1.565-3.783 5.357 5.357 0 00-3.783-1.565zM15.392 16a4.249 4.249 0 01-2.957 1.217 4.249 4.249 0 01-2.956-1.217 4.156 4.156 0 01-1.218-2.957c0-1.152.478-2.195 1.218-2.956a4.156 4.156 0 012.956-1.218c1.152 0 2.196.479 2.957 1.218a4.156 4.156 0 011.217 2.956c.022 1.153-.457 2.196-1.217 2.957zM20.174 9.783a1.065 1.065 0 100-2.13 1.065 1.065 0 000 2.13z"/>
</svg>
