<svg width="48" height="48" viewBox="0 0 48 48" fill="currentColor" xmlns="http://www.w3.org/2000/svg">
<path d="M16.08 35L24 27.08L31.92 35L35 31.92L27.08 24L35 16.08L31.92 13L24 20.92L16.08 13L13 16.08L20.92 24L13 31.92L16.08 35ZM24 46C20.9567 46 18.0967 45.4225 15.42 44.2675C12.7433 43.1125 10.415 41.545 8.435 39.565C6.455 37.585 4.8875 35.2567 3.7325 32.58C2.5775 29.9033 2 27.0433 2 24C2 20.9567 2.5775 18.0967 3.7325 15.42C4.8875 12.7433 6.455 10.415 8.435 8.435C10.415 6.455 12.7433 4.8875 15.42 3.7325C18.0967 2.5775 20.9567 2 24 2C27.0433 2 29.9033 2.5775 32.58 3.7325C35.2567 4.8875 37.585 6.455 39.565 8.435C41.545 10.415 43.1125 12.7433 44.2675 15.42C45.4225 18.0967 46 20.9567 46 24C46 27.0433 45.4225 29.9033 44.2675 32.58C43.1125 35.2567 41.545 37.585 39.565 39.565C37.585 41.545 35.2567 43.1125 32.58 44.2675C29.9033 45.4225 27.0433 46 24 46ZM24 41.6C28.9133 41.6 33.075 39.895 36.485 36.485C39.895 33.075 41.6 28.9133 41.6 24C41.6 19.0867 39.895 14.925 36.485 11.515C33.075 8.105 28.9133 6.4 24 6.4C19.0867 6.4 14.925 8.105 11.515 11.515C8.105 14.925 6.4 19.0867 6.4 24C6.4 28.9133 8.105 33.075 11.515 36.485C14.925 39.895 19.0867 41.6 24 41.6Z" fill="currentColor"/>
</svg>
