<svg xmlns="http://www.w3.org/2000/svg" width="24" height="24" fill="currentColor" viewBox="0 0 24 24">
  <g clip-path="url(#a)">
    <path d="M6.352 11.52h3.48c.42 0 .82-.17 1.116-.468a1.61 1.61 0 0 0 .464-1.127V6.408a1.609 1.609 0 0 0-.464-1.127 1.575 1.575 0 0 0-1.115-.468h-3.48c-.419 0-.82.17-1.116.468a1.609 1.609 0 0 0-.464 1.127v3.517c.002.423.168.828.464 1.127a1.58 1.58 0 0 0 1.115.469Zm-.63-5.112a.645.645 0 0 1 .186-.45.632.632 0 0 1 .444-.187h3.48a.632.632 0 0 1 .445.188c.118.12.185.28.186.45v3.516a.646.646 0 0 1-.186.45.633.633 0 0 1-.444.187h-3.48a.632.632 0 0 1-.445-.188.646.646 0 0 1-.186-.449V6.408Zm11.697-1.595h-3.48c-.419 0-.82.17-1.116.468a1.609 1.609 0 0 0-.464 1.127v3.517c.002.423.168.828.464 1.127a1.58 1.58 0 0 0 1.115.469h3.48c.42-.002.82-.17 1.116-.469.296-.299.463-.704.464-1.127V6.408a1.609 1.609 0 0 0-.464-1.127 1.576 1.576 0 0 0-1.115-.468Zm.63 5.112a.646.646 0 0 1-.186.45.632.632 0 0 1-.444.187h-3.48a.632.632 0 0 1-.445-.188.646.646 0 0 1-.186-.449V6.408a.645.645 0 0 1 .186-.45.632.632 0 0 1 .444-.187h3.48a.632.632 0 0 1 .445.188c.118.12.185.28.186.45v3.516Zm-11.697 9.26h3.48c.42-.002.82-.17 1.116-.469.296-.299.463-.704.464-1.127v-3.517a1.61 1.61 0 0 0-.464-1.127 1.575 1.575 0 0 0-1.115-.468h-3.48c-.419 0-.82.17-1.116.468a1.61 1.61 0 0 0-.464 1.127v3.517c.002.423.168.828.464 1.127a1.58 1.58 0 0 0 1.115.469Zm-.63-5.113a.646.646 0 0 1 .186-.45.632.632 0 0 1 .444-.187h3.48a.632.632 0 0 1 .445.188c.118.12.185.28.186.45v3.516a.645.645 0 0 1-.186.45.632.632 0 0 1-.444.188h-3.48a.632.632 0 0 1-.445-.189.645.645 0 0 1-.186-.449v-3.517Zm9.956-1.595c-.656 0-1.298.196-1.844.565a3.348 3.348 0 0 0-1.222 1.505 3.387 3.387 0 0 0 .72 3.655 3.288 3.288 0 0 0 3.617.727 3.327 3.327 0 0 0 1.49-1.235 3.38 3.38 0 0 0-.413-4.235 3.301 3.301 0 0 0-2.348-.982Zm0 5.75c-.468 0-.927-.141-1.317-.404a2.39 2.39 0 0 1-.873-1.076 2.419 2.419 0 0 1 .514-2.61 2.348 2.348 0 0 1 2.584-.52c.433.182.803.489 1.064.883a2.414 2.414 0 0 1-.295 3.025 2.359 2.359 0 0 1-1.677.702Z"/>
  </g>
  <defs>
    <clipPath id="a">
      <path d="M0 0h24v24H0z"/>
    </clipPath>
  </defs>
</svg>
