<svg xmlns="http://www.w3.org/2000/svg" width="24" height="24" fill="currentColor" viewBox="0 0 24 24">
  <g clip-path="url(#a)">
    <path d="m18.59 17.58-4.62-8.22a.53.53 0 0 1-.08-.27V4.87c0-.1.02-.15.12-.2.48-.24.71-.73.59-1.23-.11-.5-.53-.86-1.06-.87-1.49-.01-2.98 0-4.48 0-.04 0-.09 0-.13.01-.5.07-.86.44-.95.93-.08.47.15.93.59 1.15.11.05.13.11.13.22v4.05c0 .19-.04.34-.13.5-1.53 2.71-3.05 5.42-4.58 8.13-.73 1.3-.38 2.79.86 3.55.32.19.71.26 1.07.39h10.73c.05-.01.11-.03.16-.04.69-.13 1.25-.46 1.65-1.03.64-.93.67-1.89.12-2.87l.01.02Zm-11.94-3.2c.89-1.58 1.78-3.17 2.67-4.75.08-.14.12-.31.12-.47V4.8h.35c.23-.01.39-.16.39-.36 0-.21-.16-.37-.4-.37h-.65c-.26 0-.42-.15-.43-.36 0-.22.17-.37.44-.37h4.31c.26 0 .42.15.43.36 0 .22-.17.37-.44.38h-.61c-.26 0-.42.15-.43.36 0 .22.17.37.44.38h.3v4.34c0 .16.05.34.13.49.65 1.18 1.32 2.35 1.98 3.53.03.06.06.12.09.17-.51.03-1.01.04-1.5.09-.7.08-1.38.28-2.01.59-.72.35-1.45.67-2.25.8-1.02.17-2.02.09-3.03-.23.04-.07.07-.14.1-.2v-.02Zm9.72 6.4H6.23c-1.43 0-2.31-1.45-1.65-2.71.5-.95 1.05-1.88 1.59-2.84.65.22 1.29.35 1.95.39 1.21.07 2.37-.15 3.46-.68.69-.33 1.39-.63 2.15-.76.67-.11 1.34-.12 2.01-.02.05 0 .11.05.14.1.72 1.27 1.45 2.52 2.13 3.8.67 1.26-.21 2.71-1.64 2.71v.01Zm-.74-2.22H8.31c-.19.03-.33.18-.33.36s.14.33.33.36h7.32c.3 0 .48-.14.48-.37 0-.23-.18-.37-.48-.37v.02Zm-8.78 0c-.2 0-.36.18-.36.38 0 .19.18.36.38.36s.36-.18.36-.38c0-.19-.18-.36-.38-.36Zm2.97-5.19c.6 0 1.11-.5 1.11-1.1 0-.6-.49-1.11-1.1-1.12-.61 0-1.12.5-1.12 1.11 0 .6.5 1.11 1.11 1.11Zm0-1.48c.19 0 .37.18.36.37 0 .19-.18.37-.37.36-.19 0-.37-.18-.36-.37 0-.19.18-.37.37-.36Zm1.47-2.23c.19 0 .37-.17.37-.36 0-.19-.17-.37-.36-.37-.19 0-.37.17-.37.36 0 .19.17.37.36.37Zm1.48 2.22c.19 0 .37-.17.37-.36 0-.19-.17-.37-.36-.37-.19 0-.37.17-.37.36 0 .19.17.37.36.37Z"/>
  </g>
  <defs>
    <clipPath id="a">
      <path d="M0 0h24v24H0z"/>
    </clipPath>
  </defs>
</svg>
