<svg xmlns="http://www.w3.org/2000/svg" width="68" height="68" fill="currentColor" viewBox="0 0 68 68">
  <g clip-path="url(#a)">
    <path d="M54.825 28.447C52.898 18.672 44.313 11.333 34 11.333c-8.188 0-15.3 4.647-18.842 11.447C6.63 23.687 0 30.912 0 39.667c0 9.378 7.622 17 17 17h36.833C61.653 56.667 68 50.32 68 42.5c0-7.48-5.808-13.543-13.175-14.053ZM53.833 51H17c-6.262 0-11.333-5.072-11.333-11.333 0-5.809 4.335-10.654 10.086-11.249l3.032-.311 1.417-2.692C22.893 20.23 28.163 17 34 17c7.423 0 13.827 5.27 15.272 12.552l.85 4.25 4.335.311c4.42.284 7.876 3.995 7.876 8.387 0 4.675-3.825 8.5-8.5 8.5ZM23.52 35.98a.5.5 0 0 0 .354.853h6.018v8a.5.5 0 0 0 .5.5h7.216a.5.5 0 0 0 .5-.5v-8h6.018a.5.5 0 0 0 .354-.853L34.354 25.854a.5.5 0 0 0-.708 0L23.52 35.98Z"/>
  </g>
  <defs>
    <clipPath id="a">
      <path d="M0 0h68v68H0z"/>
    </clipPath>
  </defs>
</svg>
