<svg width="28" height="28" viewBox="0 0 28 28" fill="none" xmlns="http://www.w3.org/2000/svg">
<path id="Union" d="M8.46631 19.3337H24.4663V3.33366H21.7996V12.667L18.4663 10.667L15.133 12.667V3.33366H8.46631V19.3337ZM8.46631 22.0003C7.73298 22.0003 7.1052 21.7392 6.58297 21.217C6.06075 20.6948 5.79964 20.067 5.79964 19.3337V3.33366C5.79964 2.60033 6.06075 1.97255 6.58297 1.45033C7.1052 0.928103 7.73298 0.666992 8.46631 0.666992H24.4663C25.1996 0.666992 25.8274 0.928103 26.3496 1.45033C26.8719 1.97255 27.133 2.60033 27.133 3.33366V19.3337C27.133 20.067 26.8719 20.6948 26.3496 21.217C25.8274 21.7392 25.1996 22.0003 24.4663 22.0003H8.46631ZM3.13298 27.3337C2.39964 27.3337 1.77186 27.0725 1.24964 26.5503C0.72742 26.0281 0.466309 25.4003 0.466309 24.667V6.00033H3.13298V24.667H21.7996V27.3337H3.13298Z" fill="#00694D"/>
</svg>
