<svg xmlns="http://www.w3.org/2000/svg" width="24" height="24" fill="none" viewBox="0 0 24 24">
  <g clip-path="url(#clip0_9450:90189)">
    <path fill="#FF8E8E" d="M21 12l-1.934.492-2.32-.492c0-1.306-.53-2.49-1.385-3.349l1.244-1.679 1.766-1.331A8.941 8.941 0 0121 12z"/>
    <path fill="#4BB9EC" d="M18.378 18.352l-.013.014A8.944 8.944 0 0112 21l-.352-2.25.352-2.004a4.733 4.733 0 003.368-1.404l1.87 1.123 1.14 1.887z"/>
    <path fill="#FFF261" d="M12 3l.422 2.074L12 7.254A4.733 4.733 0 008.66 8.632L6.692 7.36 5.648 5.622A8.94 8.94 0 0112 3z"/>
    <path fill="#90CC1C" d="M8.652 15.36L7.57 17.239l-1.93 1.133-.005-.006A8.942 8.942 0 013 12l2.004-.457 2.25.457a4.73 4.73 0 001.398 3.36z"/>
    <path fill="#FFDA2D" d="M18.371 5.64l-3.01 3.012A4.732 4.732 0 0012 7.254V3a8.94 8.94 0 016.365 2.635l.006.006z"/>
    <path fill="#76E2F8" d="M12 16.746V21a8.941 8.941 0 01-6.359-2.628l3.01-3.011A4.732 4.732 0 0012 16.746z"/>
    <path fill="#FF637B" d="M21 12a8.94 8.94 0 01-2.622 6.352l-3.01-3.01A4.733 4.733 0 0016.746 12H21z"/>
    <path fill="#B9DD39" d="M8.658 8.633A4.733 4.733 0 007.254 12H3a8.94 8.94 0 012.648-6.378l3.01 3.01z"/>
    <path fill="#76E2F8" d="M12.012 12h.014l-.007-.007-.007.007zM12 12.012l.012-.012H12v.012z"/>
    <path fill="#76E2F8" d="M12 11.974V12h.012l.007-.007-.019-.02z"/>
    <path fill="#4BB9EC" d="M12.012 12h.014l-.007-.007-.007.007z"/>
    <path fill="#4BB9EC" d="M12 11.974V12h.012l.007-.007-.019-.02zM12 12.012l.012-.012H12v.012z"/>
    <path fill="#FDBF00" d="M16.106 7.906l-.907 1.528-1.329.709a2.629 2.629 0 00-1.87-.78l-.281-1.547L12 6.2c1.602 0 3.055.653 4.106 1.707z"/>
    <path fill="#E63950" d="M17.8 12a5.782 5.782 0 01-1.687 4.087l-1.617-1.169-.62-1.067c.47-.477.76-1.13.76-1.851l1.548-.387L17.8 12z"/>
    <path fill="#4BB9EC" d="M12 14.636l.246 1.442L12 17.8a5.781 5.781 0 01-4.094-1.695l.965-1.398 1.271-.838a2.627 2.627 0 001.858.767z"/>
    <path fill="#90CC1C" d="M10.15 10.123A2.629 2.629 0 009.362 12l-1.511.386L6.199 12c0-1.606.656-3.062 1.714-4.113l1.415.984.821 1.252z"/>
    <path fill="#596C76" d="M12 11.974v.038l.012-.012h.014L12 11.974z"/>
    <path fill="#596C76" d="M12.026 12h-.014l-.012.012v-.038l.026.026z"/>
    <path fill="#FFDA2D" d="M12 6.2v3.163c-.72 0-1.374.29-1.85.76L7.912 7.887A5.782 5.782 0 0112 6.2z"/>
    <path fill="#FF637B" d="M17.801 12h-3.164c0-.724-.293-1.38-.767-1.857l2.236-2.237A5.781 5.781 0 0117.801 12z"/>
    <path fill="#0095FF" d="M16.113 16.087A5.782 5.782 0 0112 17.801v-3.164c.734 0 1.398-.3 1.877-.786l2.236 2.236z"/>
    <path fill="#6B0" d="M10.143 13.87l-2.237 2.236a5.824 5.824 0 01-1.248-1.846A5.763 5.763 0 016.199 12h3.164c0 .73.298 1.392.78 1.87z"/>
  </g>
  <defs>
    <clipPath id="clip0_9450:90189">
      <path fill="#fff" d="M0 0h18v18H0z" transform="translate(3 3)"/>
    </clipPath>
  </defs>
</svg>
