<svg xmlns="http://www.w3.org/2000/svg" width="24" height="24" fill="none" viewBox="0 0 24 24">
  <path fill="#FF8E8E" d="m21 12-1.934.492-2.32-.492c0-1.306-.53-2.49-1.385-3.349l1.244-1.679 1.766-1.331A8.941 8.941 0 0 1 21 12Z"/>
  <path fill="#4BB9EC" d="m18.378 18.352-.013.014A8.944 8.944 0 0 1 12 21l-.352-2.25.352-2.004a4.733 4.733 0 0 0 3.368-1.404l1.87 1.123 1.14 1.887Z"/>
  <path fill="#FFF261" d="m12 3 .422 2.074L12 7.254a4.733 4.733 0 0 0-3.34 1.378L6.692 7.36 5.648 5.622A8.94 8.94 0 0 1 12 3Z"/>
  <path fill="#90CC1C" d="M8.652 15.36 7.57 17.239l-1.93 1.133-.005-.006A8.942 8.942 0 0 1 3 12l2.004-.457 2.25.457a4.73 4.73 0 0 0 1.398 3.36Z"/>
  <path fill="#FFDA2D" d="m18.371 5.64-3.01 3.012A4.732 4.732 0 0 0 12 7.254V3a8.94 8.94 0 0 1 6.365 2.635l.006.006Z"/>
  <path fill="#76E2F8" d="M12 16.746V21a8.941 8.941 0 0 1-6.359-2.628l3.01-3.011A4.732 4.732 0 0 0 12 16.746Z"/>
  <path fill="#FF637B" d="M21 12a8.94 8.94 0 0 1-2.622 6.352l-3.01-3.01A4.733 4.733 0 0 0 16.746 12H21Z"/>
  <path fill="#B9DD39" d="M8.658 8.633A4.732 4.732 0 0 0 7.254 12H3a8.94 8.94 0 0 1 2.635-6.365l.013-.013 3.01 3.01Z"/>
  <path fill="#76E2F8" d="M12.012 12h.014l-.007-.007-.007.007Zm-.012.012.012-.012H12v.012Z"/>
  <path fill="#76E2F8" d="M12 11.974V12h.012l.007-.007-.019-.02Z"/>
  <path fill="#4BB9EC" d="M12.012 12h.014l-.007-.007-.007.007Z"/>
  <path fill="#4BB9EC" d="M12 11.974V12h.012l.007-.007-.019-.02Zm0 .038.012-.012H12v.012Z"/>
  <path fill="#FDBF00" d="m16.106 7.906-.907 1.528-1.329.709a2.629 2.629 0 0 0-1.87-.78l-.281-1.547L12 6.2c1.602 0 3.055.653 4.106 1.707Z"/>
  <path fill="#E63950" d="M17.8 12a5.782 5.782 0 0 1-1.687 4.087l-1.617-1.169-.62-1.067c.47-.477.76-1.13.76-1.851l1.548-.387L17.8 12Z"/>
  <path fill="#4BB9EC" d="m12 14.636.246 1.442L12 17.8a5.781 5.781 0 0 1-4.094-1.695l.965-1.398 1.271-.838a2.627 2.627 0 0 0 1.858.767Z"/>
  <path fill="#90CC1C" d="M10.15 10.123A2.628 2.628 0 0 0 9.362 12l-1.511.387L6.199 12c0-1.606.656-3.062 1.714-4.113l1.415.984.821 1.252Z"/>
  <path fill="#596C76" d="M12 11.974v.038l.012-.012h.014L12 11.974Z"/>
  <path fill="#596C76" d="M12.026 12h-.014l-.012.012v-.038l.026.026Z"/>
  <path fill="#FFDA2D" d="M12 6.2v3.163c-.72 0-1.374.29-1.85.76L7.912 7.887A5.782 5.782 0 0 1 12 6.2Z"/>
  <path fill="#FF637B" d="M17.801 12h-3.164a2.63 2.63 0 0 0-.767-1.857l2.236-2.237A5.781 5.781 0 0 1 17.801 12Z"/>
  <path fill="#0095FF" d="M16.113 16.087A5.781 5.781 0 0 1 12 17.8v-3.164c.734 0 1.398-.3 1.877-.786l2.236 2.236Z"/>
  <path fill="#6B0" d="m10.143 13.87-2.237 2.236a5.824 5.824 0 0 1-1.248-1.846A5.763 5.763 0 0 1 6.199 12h3.164c0 .73.298 1.392.78 1.87Z"/>
</svg>
