<svg width="24" height="24" viewBox="0 0 24 24" fill="currentCorlor" xmlns="http://www.w3.org/2000/svg">
<path d="M4 20.0073C3.45 20.0073 2.97917 19.8115 2.5875 19.4198C2.19583 19.0282 2 18.5573 2 18.0073V6.00732C2 5.45732 2.19583 4.98649 2.5875 4.59482C2.97917 4.20316 3.45 4.00732 4 4.00732H20C20.55 4.00732 21.0208 4.20316 21.4125 4.59482C21.8042 4.98649 22 5.45732 22 6.00732V18.0073C22 18.5573 21.8042 19.0282 21.4125 19.4198C21.0208 19.8115 20.55 20.0073 20 20.0073H4ZM12 13.0073L4 8.00732V18.0073H20V8.00732L12 13.0073ZM12 11.0073L20 6.00732H4L12 11.0073ZM4 8.00732V6.00732V18.0073V8.00732Z" fill="currentCorlor"/>
</svg>
