<svg width="24" height="24" viewBox="0 0 24 24" fill="none" xmlns="http://www.w3.org/2000/svg">
<path d="M9.47061 18C8.91414 18 8.43777 17.8042 8.0415 17.4125C7.64522 17.0208 7.44708 16.55 7.44708 16V4C7.44708 3.45 7.64522 2.97917 8.0415 2.5875C8.43777 2.19583 8.91414 2 9.47061 2H18.5765C19.133 2 19.6093 2.19583 20.0056 2.5875C20.4019 2.97917 20.6 3.45 20.6 4V16C20.6 16.55 20.4019 17.0208 20.0056 17.4125C19.6093 17.8042 19.133 18 18.5765 18H9.47061ZM9.47061 16H18.5765V4H9.47061V16ZM5.42355 22C4.86708 22 4.39071 21.8042 3.99444 21.4125C3.59816 21.0208 3.40002 20.55 3.40002 20V6H5.42355V20H16.553V22H5.42355Z" fill="#00694D"/>
</svg>
