<svg xmlns="http://www.w3.org/2000/svg" width="24" height="24" fill="currentColor" viewBox="0 0 24 24">
  <g clip-path="url(#a)">
    <path d="M6.38 14.13s.07.01.1.01c.16 0 .3-.1.35-.26a.375.375 0 0 0-.25-.45c-.88-.25-1.62-.87-2.09-1.75-.5-.93-.61-1.99-.31-2.93.31-.98 1.03-1.74 1.98-2.08 1-.37 2.1-.25 3.03.33.17.1.39.05.5-.12a.37.37 0 0 0-.12-.5 4.198 4.198 0 0 0-3.66-.39 3.995 3.995 0 0 0-2.42 2.54c-.36 1.12-.23 2.39.36 3.49.56 1.05 1.46 1.8 2.53 2.1v.01Zm2.93-8.64c.66-.95 1.96-1.19 2.87-1.1 1.08.1 2.33.71 2.62 1.67.05.16.19.26.35.26.03 0 .07 0 .1-.02.19-.06.3-.26.24-.45-.4-1.32-1.96-2.05-3.24-2.18-1.1-.1-2.69.2-3.53 1.41-.11.16-.07.39.09.5.17.12.39.07.5-.09Zm9.27 1.81c-.97-.54-2.24-.77-3.48-.62-.2.02-.34.2-.32.4.02.2.21.34.4.32 1.09-.13 2.2.06 3.04.53 1.16.65 1.8 1.8 1.75 3.16-.06 1.55-1.03 3.02-2.4 3.65-.18.08-.26.3-.18.48.06.13.19.21.33.21.05 0 .1-.01.15-.03 1.64-.75 2.75-2.43 2.83-4.27.07-1.64-.7-3.03-2.11-3.82l-.01-.01Zm-8.17 9.42c-.56.75-1.46 1.25-2.4 1.33-.96.08-1.8-.22-2.41-.86-.74-.77-1.09-1.97-.94-3.21.02-.2-.12-.38-.32-.4-.2-.02-.38.12-.4.32-.18 1.45.25 2.87 1.14 3.8.69.72 1.59 1.09 2.63 1.09.12 0 .24 0 .37-.02 1.14-.09 2.23-.7 2.92-1.61.12-.16.09-.39-.07-.51a.365.365 0 0 0-.51.07h-.01Zm4.69-5.36c.2.02.38-.12.4-.31.18-1.46-.29-2.86-1.21-3.66-.79-.68-1.87-.88-3.02-.56-1.23.34-2.07 1.25-2.24 2.42-.12.83.05 1.73.54 2.83.06.13.19.21.33.21.05 0 .1-.01.15-.03.18-.08.26-.29.18-.48-.43-.97-.58-1.74-.48-2.44.13-.89.75-1.56 1.72-1.82.92-.26 1.74-.11 2.35.41.75.64 1.12 1.8.97 3.02-.02.2.12.38.31.4v.01Zm.5 5.01c.95-.42 1.47-1.39 1.95-2.44.21-.46.6-1.67.62-1.72.04-.11.02-.24-.06-.33a.366.366 0 0 0-.31-.14c-1.2.07-1.71.94-2.33 1.98-.14.24-.36.47-.55.65-.16-.87-.55-1.5-.92-1.7-.19-.1-.39-.1-.54 0-.12.08-.26.24-.25.59.05.91-.29 1.29-.45 1.42-.07-.02-.16-.05-.27-.09-.58-.2-1.65-.59-2.88-.59-1.94 0-2.67 1.96-2.7 2.04-.07.19.02.42.2.49.18.07.36 0 .44-.17 0-.01.01-.02.02-.03.04-.04.24-.17.98-.39 1.25-.36 2.98-.08 4.13.67.52.33 1.16.93 1.28 1.84.09.67-.46 1.49-.68 1.76-.09.11-.11.26-.05.39s.19.21.33.21H16c.11 0 .22-.05.29-.15.05-.07.49-.72.22-2.31-.1-.61-.59-1.47-.9-1.98h-.01Zm.16 3.71h-1.53c.26-.45.52-1.09.44-1.72-.13-.94-.68-1.75-1.6-2.35-1.33-.87-3.27-1.18-4.73-.76-.02 0-.05.01-.07.02.32-.3.76-.55 1.34-.55 1.11 0 2.07.34 2.64.54.41.14.58.2.75.11.04-.02.83-.41.93-1.73.16.29.32.76.33 1.41 0 .13.08.25.19.31.12.06.26.05.37-.02.03-.02.85-.56 1.29-1.3.45-.75.74-1.22 1.16-1.44-.13.37-.28.8-.38 1.02-.58 1.27-1.06 2-1.92 2.19-.12.03-.21.11-.26.22-.04.11-.03.24.04.34.25.38.94 1.49 1.04 2.09.15.88.05 1.39-.03 1.61v.01Z"/>
  </g>
  <defs>
    <clipPath id="a">
      <path d="M0 0h24v24H0z"/>
    </clipPath>
  </defs>
</svg>
