<svg xmlns="http://www.w3.org/2000/svg" width="24" height="24" fill="currentColor" viewBox="0 0 24 24">
  <mask id="a" width="24" height="24" x="0" y="0" maskUnits="userSpaceOnUse" style="mask-type:alpha">
    <path d="M0 0h24v24H0z"/>
  </mask>
  <g mask="url(#a)">
    <path d="M7 21a1.93 1.93 0 0 1-1.413-.587A1.928 1.928 0 0 1 5 19L3 5c0-.55.196-1.021.587-1.413A1.928 1.928 0 0 1 5 3h12c.55 0 1.021.196 1.413.587.391.392.587.863.587 1.413l2 14a1.93 1.93 0 0 1-.587 1.413A1.928 1.928 0 0 1 19 21H7Zm0-2h12L17 5H5l2 14Z"/>
    <circle cx="4" cy="4" r="2"/>
    <circle cx="6" cy="20" r="2"/>
    <circle cx="18" cy="4" r="2"/>
    <circle cx="20" cy="20" r="2"/>
  </g>
</svg>
