<svg xmlns="http://www.w3.org/2000/svg" width="24" height="24" fill="currentColor" viewBox="0 0 24 24">
  <mask id="a" width="24" height="24" x="0" y="0" maskUnits="userSpaceOnUse" style="mask-type:alpha">
    <path d="M0 0h24v24H0z"/>
  </mask>
  <g mask="url(#a)">
    <path fill-rule="evenodd" d="M12 19H7c-.55 0-1.02-.196-1.412-.587A1.927 1.927 0 0 1 5 17V7H1V5h4V1h2v16h5v2Zm7-10h-2V7H9V5h8c.55 0 1.021.196 1.413.588.392.391.587.862.587 1.412v2Z" clip-rule="evenodd"/>
    <path d="M14.775 22.5c-.35 0-.65-.125-.9-.375s-.375-.55-.375-.9v-4.95c0-.35.125-.65.375-.9s.55-.375.9-.375H15v-1.5c0-.825.293-1.531.88-2.12A2.893 2.893 0 0 1 18 10.5c.825 0 1.532.293 2.12.88.586.588.88 1.295.88 2.12V15h.225c.35 0 .65.125.9.375s.375.55.375.9v4.95c0 .35-.125.65-.375.9s-.55.375-.9.375h-6.45ZM16.5 15h3v-1.5c0-.425-.144-.781-.432-1.07A1.45 1.45 0 0 0 18 12a1.45 1.45 0 0 0-1.068.43 1.453 1.453 0 0 0-.432 1.07V15Z"/>
  </g>
</svg>
