<svg xmlns="http://www.w3.org/2000/svg" width="24" height="24" fill="currentColor" viewBox="0 0 24 24">
  <mask id="a" width="24" height="24" x="0" y="0" maskUnits="userSpaceOnUse" style="mask-type:alpha">
    <path d="M0 0h24v24H0z"/>
  </mask>
  <g mask="url(#a)">
    <path d="M5 21a1.93 1.93 0 0 1-1.413-.587A1.928 1.928 0 0 1 3 19v-4h2v4h4v2H5Zm10 0v-2h4v-4h2v4a1.93 1.93 0 0 1-.587 1.413A1.928 1.928 0 0 1 19 21h-4ZM3 9V5c0-.55.196-1.021.587-1.413A1.928 1.928 0 0 1 5 3h4v2H5v4H3Zm16 0V5h-4V3h4c.55 0 1.021.196 1.413.587.391.392.587.863.587 1.413v4h-2Z"/>
  </g>
</svg>
