<svg xmlns="http://www.w3.org/2000/svg" width="24" height="24" fill="currentColor" viewBox="0 0 24 24">
  <path fill-rule="evenodd" d="m12.1 3.937 6.735 3.13-6.735 3.52-6.733-3.52 6.733-3.13ZM4.078 6.79a.533.533 0 0 1 .246-.23l.002-.001L11.87 3.05h.002a.54.54 0 0 1 .456 0l.306.142-.304-.142 7.549 3.508a.532.532 0 0 1 .254.247c.043.07.067.15.067.237v9.4c0 .2-.11.384-.287.478l-7.392 3.915a.91.91 0 0 1-.129.056.448.448 0 0 1-.585 0 .91.91 0 0 1-.128-.056L4.287 16.92A.54.54 0 0 1 4 16.443v-9.4c0-.095.029-.182.078-.254Zm8.472 13.013 6.75-3.575V7.839l-6.75 3.528v8.435Zm-.9-8.435v8.435L4.9 16.227V7.838l6.75 3.53Z" clip-rule="evenodd"/>
</svg>
