<svg xmlns="http://www.w3.org/2000/svg" width="24" height="24" fill="currentColor" viewBox="0 0 24 24">
  <path fill-rule="evenodd" d="M12.1 3.937l6.735 3.13-6.735 3.52-6.733-3.52 6.733-3.13zM4.078 6.79a.533.533 0 01.246-.23l.002-.001L11.87 3.05h.002a.54.54 0 01.456 0l.306.142-.304-.142 7.549 3.508a.532.532 0 01.254.247c.043.07.067.15.067.237v9.4c0 .2-.11.384-.287.478l-7.392 3.915a.91.91 0 01-.129.056.448.448 0 01-.585 0 .91.91 0 01-.128-.056l-7.392-3.915A.54.54 0 014 16.443v-9.4c0-.095.029-.182.078-.254zm8.472 13.013l6.75-3.575V7.839l-6.75 3.528v8.435zm-.9-8.435v8.435L4.9 16.227V7.838l6.75 3.53z" clip-rule="evenodd"/>
</svg>
