<svg xmlns="http://www.w3.org/2000/svg" width="24" height="24" fill="currentColor" viewBox="0 0 24 24">
  <path d="m19.533 14.183-.76-5.683c-.117-.855-.825-1.5-1.647-1.5H14.72c-1.996 0-3.92.627-5.565 1.814C7.509 10 6.262 11.662 5.547 13.619a.513.513 0 0 0-.01.029l-.16.535h-.323a.47.47 0 0 0-.444.337l-.585 1.825a.52.52 0 0 0 .063.448.46.46 0 0 0 .38.207h15.063a.483.483 0 0 0 .469-.496V14.68a.483.483 0 0 0-.467-.496Zm-13.107-.22a9.222 9.222 0 0 1 3.257-4.33A8.565 8.565 0 0 1 14.72 7.99h2.406a.74.74 0 0 1 .72.65l.74 5.542H6.36l.066-.22Zm12.636 2.046H5.123l.268-.835h13.673v.835Z"/>
  <path d="M17.389 13.503c.26 0 .472-.222.472-.496a.485.485 0 0 0-.473-.495.484.484 0 0 0-.472.495c0 .274.212.496.473.496Zm-1.735 0a.485.485 0 0 0 .473-.496.485.485 0 0 0-.473-.495.485.485 0 0 0-.472.495c0 .274.211.496.472.496Zm1.392-3.939c0-.505-.39-.915-.869-.915h-2.583c-.908 0-2.586.308-3.625 2.376a.52.52 0 0 0 .012.488c.085.149.237.24.402.24h6.195a.483.483 0 0 0 .468-.495V9.564Zm-.937 1.198H11.26c.238-.295.51-.534.813-.715.453-.27.964-.407 1.52-.407h2.515v1.122Z"/>
</svg>
