<svg xmlns="http://www.w3.org/2000/svg" width="24" height="24" fill="currentColor" viewBox="0 0 24 24">
  <path d="M19.533 14.183l-.76-5.683c-.117-.855-.825-1.5-1.647-1.5H14.72c-1.996 0-3.92.627-5.565 1.814C7.509 10 6.262 11.662 5.547 13.619a.513.513 0 00-.01.029l-.16.535h-.323c-.201 0-.38.135-.444.337l-.585 1.825a.52.52 0 00.063.448c.088.13.23.207.38.207h15.063a.483.483 0 00.469-.496V14.68a.483.483 0 00-.467-.496zm-13.107-.22a9.222 9.222 0 013.257-4.33A8.565 8.565 0 0114.72 7.99h2.406a.74.74 0 01.72.65l.74 5.542H6.36l.066-.22zm12.636 2.046H5.123l.268-.835h13.673v.835z"/>
  <path d="M17.389 13.503c.26 0 .472-.222.472-.496a.485.485 0 00-.473-.495.484.484 0 00-.472.495c0 .274.212.496.473.496zM15.654 13.503c.261 0 .473-.222.473-.496a.485.485 0 00-.473-.495.485.485 0 00-.472.495c0 .274.211.496.472.496zM17.046 9.564c0-.505-.39-.916-.869-.916h-2.583c-.908 0-2.586.31-3.625 2.377a.52.52 0 00.012.488c.085.149.237.24.402.24h6.195a.483.483 0 00.468-.495V9.564zm-.937 1.198H11.26c.238-.295.51-.534.813-.715.453-.27.964-.407 1.52-.407h2.515v1.122z"/>
</svg>
