<svg width="24" height="24" viewBox="0 0 24 24" fill="currentColor" xmlns="http://www.w3.org/2000/svg">
<path d="M9.39942 16.501L12 13.9004L14.6005 16.501L16.0008 15.1007L13.4003 12.5001L16.0008 9.89958L14.6005 8.49928L12 11.0998L9.39942 8.49928L7.99912 9.89958L10.5997 12.5001L7.99912 15.1007L9.39942 16.501ZM6.99892 21.0019C6.4488 21.0019 5.97787 20.806 5.58612 20.4143C5.19437 20.0225 4.9985 19.5516 4.9985 19.0015V5.99876H3.99829V3.99835H8.99933V2.99814H15.0006V3.99835H20.0016V5.99876H19.0014V19.0015C19.0014 19.5516 18.8055 20.0225 18.4138 20.4143C18.022 20.806 17.5511 21.0019 17.001 21.0019H6.99892ZM17.001 5.99876H6.99892V19.0015H17.001V5.99876Z" fill="currentColor"/>
</svg>
