<svg xmlns="http://www.w3.org/2000/svg" width="24" height="24" fill="currentColor" viewBox="0 0 24 24">
  <g clip-path="url(#a)">
    <path d="M19.33 11.84c.54-.47 1.49-1.57 1.46-3.47-.03-1.74-1.17-3.35-2.9-4.1-1.65-.72-3.87-.61-5.06.86a.289.289 0 0 0-.06-.1c-.71-1.1-2.02-1.61-3.41-1.3-.83.18-1.57.66-2.05 1.31-.48.67-.54 1.32-.5 2.05-.48-.02-.86.05-1.02.08-1.59.24-2.75 1.39-3.04 3-.29 1.62.43 3.23 1.79 4.06 0 .11-.02.24-.03.34 0 .08-.01.14-.01.15-.02.63.02 1.24.12 1.81.22 1.3.82 2.25 1.79 2.82 1.03.61 2.53.68 3.71.18.67-.28 1.18-.72 1.5-1.28.42.72 1.28 1.82 2.84 2.44.5.2 1.05.3 1.6.3.73 0 1.47-.17 2.18-.51 1.25-.6 2.18-1.62 2.54-2.81.67-2.2.11-4.44-1.44-5.83h-.01Zm.82 5.64c-.31 1.01-1.11 1.89-2.2 2.41-1.08.52-2.27.59-3.26.19-2.13-.85-2.8-2.73-2.8-2.75a.334.334 0 0 0-.31-.22h-.02c-.14 0-.27.11-.3.25-.21.88-.88 1.33-1.4 1.56-.99.42-2.28.37-3.13-.14-.8-.47-1.3-1.27-1.48-2.37-.09-.52-.12-1.09-.11-1.67v-.11c.07-.61.09-.76-.12-.88-1.41-.77-1.83-2.3-1.63-3.47.18-1.04.93-2.23 2.53-2.47.16-.02.64-.1 1.21-.04.09 0 .19-.02.26-.09.07-.07.1-.16.1-.26-.07-.81-.08-1.39.36-1.99.38-.53.98-.91 1.66-1.06 1.11-.24 2.16.15 2.72 1.02.02.04.08.15.13.27l.14.28c.05.11.16.18.28.18.11-.02.23-.06.29-.17.85-1.54 2.98-1.75 4.56-1.07 1.5.65 2.48 2.03 2.51 3.51.04 2.21-1.44 3.13-1.5 3.17-.09.06-.15.15-.16.26 0 .11.04.21.13.28 1.58 1.19 2.18 3.3 1.54 5.39v-.01ZM3.93 5.64c.78 0 1.42-.64 1.42-1.42 0-.78-.64-1.42-1.42-1.42-.78 0-1.42.64-1.42 1.42 0 .78.64 1.42 1.42 1.42Zm0-2.19a.77.77 0 1 1 0 1.54.77.77 0 0 1 0-1.54Zm6.4 7.79c.17 0 .32.04.43.12.12.08.2.19.25.33h.64c-.08-.31-.23-.54-.46-.71-.23-.17-.52-.25-.87-.25-.28 0-.52.06-.73.18-.21.12-.38.3-.5.52-.12.23-.18.49-.18.78 0 .29.06.56.18.78.12.22.29.4.5.52.21.12.46.19.73.19.34 0 .63-.09.86-.26.23-.17.39-.41.47-.7h-.64c-.11.3-.34.46-.69.46-.24 0-.44-.09-.58-.26-.15-.17-.22-.42-.22-.73s.07-.55.22-.72c.14-.17.34-.26.58-.26l.01.01Zm4.62.98c0-.29-.06-.55-.19-.78-.13-.23-.31-.4-.53-.52a1.54 1.54 0 0 0-.75-.18c-.28 0-.52.06-.75.18-.23.12-.4.3-.53.52-.13.23-.19.49-.19.78 0 .29.06.56.19.78.13.22.3.4.52.52.22.12.47.19.74.19s.53-.06.76-.19c.23-.12.41-.3.54-.53.13-.23.2-.49.2-.78l-.01.01Zm-.74.53c-.08.15-.19.26-.33.33s-.28.11-.43.11c-.24 0-.44-.08-.6-.25-.16-.17-.24-.41-.24-.72 0-.21.04-.39.12-.53.08-.14.18-.25.31-.33.13-.08.27-.11.43-.11.16 0 .3.04.43.11s.24.18.32.33c.08.15.12.32.12.53 0 .21-.04.39-.12.53h-.01Zm.98 1.7c.06-.06.11-.13.16-.2.05-.08.07-.16.07-.25 0-.11-.03-.2-.1-.26-.07-.07-.16-.1-.29-.1-.12 0-.21.03-.28.1-.07.07-.11.17-.12.3h.22c0-.06.02-.11.05-.15.03-.04.07-.06.13-.06s.1.02.12.05c.03.03.04.08.04.13 0 .06-.02.12-.06.19-.04.07-.09.13-.16.18-.06.06-.15.13-.25.22l-.09.07v.17h.82v-.19h-.49c.1-.08.17-.15.23-.21v.01Z"/>
  </g>
  <defs>
    <clipPath id="a">
      <path d="M0 0h24v24H0z"/>
    </clipPath>
  </defs>
</svg>
