<svg xmlns="http://www.w3.org/2000/svg" width="24" height="24" fill="currentColor" viewBox="0 0 24 24">
  <g clip-path="url(#a)">
    <path d="M14.2 2.73c-3.65-.88-7.56.55-9.81 3.55a9.476 9.476 0 0 0-1.46 8.55l-1.43-.8a.382.382 0 0 0-.53.15c-.11.19-.04.43.15.53l2.32 1.3c.19.1.42.04.53-.15l1.35-2.37s.04-.09.05-.13a.399.399 0 0 0-.19-.4.382.382 0 0 0-.53.15l-.86 1.5c-.82-2.59-.44-5.55 1.43-7.94 2.02-2.6 5.47-3.83 8.68-3.1 5.24 1.2 8.03 6.7 6.17 11.53-1.59 4.12-5.99 6.22-10.2 5.25-.62-.14-.39-.56-.39-.56l1.49-3.86c1.77.44 3.64-.48 4.31-2.22l.71-1.83a.451.451 0 0 0-.26-.58l-.73-.28.6-1.55a.451.451 0 0 0-.26-.58.451.451 0 0 0-.58.26l-.6 1.55-2.9-1.12.6-1.55a.451.451 0 0 0-.26-.58.451.451 0 0 0-.58.26l-.6 1.55-.73-.28a.451.451 0 0 0-.58.26l-.71 1.83a3.66 3.66 0 0 0 1.7 4.54L8.52 19.7c-.2.53.05 1.1.49 1.23 4.73 1.41 9.95-.6 11.84-5.51 2.04-5.3-.98-11.32-6.69-12.7l.04.01Zm-4.91 8.58.51-1.33.73.28 4.46 1.72-.54 1.41a2.786 2.786 0 0 1-4.38 1.13c-.94-.76-1.2-2.09-.77-3.22l-.01.01Z"/>
  </g>
  <defs>
    <clipPath id="a">
      <path d="M0 0h24v24H0z"/>
    </clipPath>
  </defs>
</svg>
