<svg xmlns="http://www.w3.org/2000/svg" width="24" height="24" fill="currentColor" viewBox="0 0 24 24">
  <g clip-path="url(#a)">
    <path d="M3.527 17.77a7.96 7.96 0 0 0 11.242-.002 1.132 1.132 0 1 0-1.6-1.6 5.685 5.685 0 1 1 0-8.04 1.132 1.132 0 1 0 1.6-1.6A7.95 7.95 0 0 0 3.527 17.77Z"/>
    <path d="m22.118 11.683-3.167-2.987a.98.98 0 1 0-1.348 1.425l1.374 1.299-7.733-.004a.98.98 0 1 0 0 1.96h7.737l-1.378 1.295a.98.98 0 0 0-.038 1.386l.02.02a.98.98 0 0 0 1.366.019l3.163-2.992a.98.98 0 0 0 0-1.425l.004.004Z"/>
  </g>
  <defs>
    <clipPath id="a">
      <path d="M0 0h24v24H0z"/>
    </clipPath>
  </defs>
</svg>
