<svg xmlns="http://www.w3.org/2000/svg" width="24" height="24" fill="currentColor" viewBox="0 0 24 24">
  <path d="m17.465 16.423-2.721 1.973a.113.113 0 0 1-.09.019l-2.476-.541a.279.279 0 0 0-.33.226.292.292 0 0 0 .217.345l2.475.54a.655.655 0 0 0 .52-.11l2.722-1.973a.3.3 0 0 0 .07-.405.27.27 0 0 0-.387-.074Z"/>
  <path d="M21.486 10.888a.68.68 0 0 0-.522-.55l-1.099-.24h-.004l-.34-.075 1.688-1.225a.711.711 0 0 0 .277-.72.68.68 0 0 0-.522-.55l-7.565-1.653a.279.279 0 0 0-.33.226.292.292 0 0 0 .216.345L20.85 8.1a.114.114 0 0 1 .09.095.12.12 0 0 1-.047.125l-2.578 1.869-3.21-2.011a.647.647 0 0 0-.682-.006l-5.557 3.36-5.716-1.25a.114.114 0 0 1-.09-.095.12.12 0 0 1 .047-.124l6.15-4.457a.113.113 0 0 1 .09-.02l2.566.561a.279.279 0 0 0 .33-.225.292.292 0 0 0-.216-.345L9.46 5.015c-.18-.04-.37 0-.52.11L2.79 9.583a.71.71 0 0 0-.276.72.68.68 0 0 0 .522.55l1.444.315-1.69 1.224a.711.711 0 0 0-.276.72.68.68 0 0 0 .522.55l1.444.316-1.69 1.224a.711.711 0 0 0-.276.72.68.68 0 0 0 .522.55l7.628 1.667a.282.282 0 0 0 .33-.226.292.292 0 0 0-.217-.345L3.15 15.9a.114.114 0 0 1-.09-.095.12.12 0 0 1 .047-.124l2.124-1.54 9.31 2.034a.655.655 0 0 0 .52-.11l3.828-2.776 1.961.429a.114.114 0 0 1 .09.095.119.119 0 0 1-.047.124l-2.312 1.676a.3.3 0 0 0-.07.406c.054.081.14.125.229.125.055 0 .11-.017.158-.052l2.311-1.675a.71.71 0 0 0 .277-.72.68.68 0 0 0-.522-.55l-1.444-.315 1.69-1.225a.71.71 0 0 0 .276-.72Zm-1.957-.268v1.497l-.904.656v-2.1l.264-.192.64.14Zm-2.831.434v3.115l-.904.656v-3.646l.904-.125Zm.556-.077.814-.113v2.312l-.814.59v-2.79Zm-2.553-2.3a.112.112 0 0 1 .118 0l2.678 1.678-7.23 1.002 4.434-2.68Zm-7.399 3.107.904.198v2.214L7.302 14v-2.215Zm-.556 2.093-.814-.178v-2.214l.814.178v2.214Zm2.017-1.773.093.02a.266.266 0 0 0 .094.004l.626-.087v2.454l-.813-.177v-2.214Zm1.37-.14.904-.126v2.977l-.904-.198v-2.653Zm1.46-.203.814-.112v3.465l-.814-.178v-3.175Zm1.37-.19.904-.125v3.987l-.904-.197V11.57Zm-7.588-.207v2.214l-.904-.198v-1.497l.76-.55.144.03ZM3.06 12.995a.12.12 0 0 1 .047-.124l.808-.585v.972l-.765-.168a.114.114 0 0 1-.09-.095Zm11.684 2.59a.113.113 0 0 1-.09.019l-.23-.05v-4.186l.813-.113v3.972l-.493.358Zm6.149-4.457-.808.585v-.972l.765.167a.114.114 0 0 1 .09.095.119.119 0 0 1-.047.125Z"/>
</svg>
