<svg xmlns="http://www.w3.org/2000/svg" width="24" height="24" fill="currentColor" viewBox="0 0 24 24">
  <path d="M18.111 8.804c.167.08.318.192.445.327A.257.257 0 0 0 19 8.955V7.192a.256.256 0 0 0-.153-.235 3.5 3.5 0 0 0-1.997-.245V5.257A.257.257 0 0 0 16.593 5h-1.57a.257.257 0 0 0-.256.257v2.25a9.843 9.843 0 0 1-1.725.725V5.257A.257.257 0 0 0 12.785 5h-1.57a.257.257 0 0 0-.256.257v2.975a9.802 9.802 0 0 1-1.725-.726v-2.25A.257.257 0 0 0 8.978 5H7.407a.257.257 0 0 0-.257.257v1.455a3.499 3.499 0 0 0-1.997.245.257.257 0 0 0-.153.235v1.762a.257.257 0 0 0 .441.178c.129-.136.28-.246.449-.328.4-.173.849-.191 1.26-.052v1.44a3.514 3.514 0 0 0-1.997.242.257.257 0 0 0-.153.235v1.763a.257.257 0 0 0 .442.177 1.53 1.53 0 0 1 .448-.328 1.762 1.762 0 0 1 1.26-.054v1.44a3.499 3.499 0 0 0-1.997.245.257.257 0 0 0-.153.234v1.764a.256.256 0 0 0 .441.178c.13-.136.28-.247.449-.33.399-.172.848-.19 1.26-.051v3.037a.257.257 0 0 0 .257.256h1.57a.257.257 0 0 0 .256-.256v-2.08a8.145 8.145 0 0 0 1.726.564v1.515a.257.257 0 0 0 .257.257h1.57a.257.257 0 0 0 .256-.256v-1.516a8.145 8.145 0 0 0 1.725-.563v2.079a.256.256 0 0 0 .257.256h1.57a.256.256 0 0 0 .256-.256v-3.037c.412-.14.86-.121 1.26.051.167.082.319.193.448.329A.257.257 0 0 0 19 15.91v-1.764a.256.256 0 0 0-.153-.234 3.498 3.498 0 0 0-1.997-.246v-1.44a1.76 1.76 0 0 1 1.26.055c.167.082.319.193.448.328a.257.257 0 0 0 .442-.177V10.67a.256.256 0 0 0-.153-.235 3.512 3.512 0 0 0-1.997-.243V8.75c.412-.139.862-.12 1.261.053Zm-1.774-3.29v1.311a5.78 5.78 0 0 0-1.057.419v-1.73h1.057Zm-.898 2.223c.38-.203.782-.358 1.2-.46l.022-.006a3.108 3.108 0 0 1 1.826.093v1.059c-.048-.03-.1-.056-.154-.082-.68-.328-1.503-.245-2.447.249-.949.496-1.883.955-2.844 1.16v-.988c.774-.197 1.548-.58 2.397-1.025Zm-4.48 7.451a9.968 9.968 0 0 1-1.726-.727V13.19a7.948 7.948 0 0 0 1.726.566v1.433Zm0-4.916v1.44a9.9 9.9 0 0 1-1.725-.728V9.708a8.118 8.118 0 0 0 1.725.564Zm-1.726 2.352V11.56a8.33 8.33 0 0 0 1.943.733 3.838 3.838 0 0 0 1.68-.008 8.331 8.331 0 0 0 1.91-.725v1.065c-1.089.502-1.925.72-2.766.72-.84 0-1.677-.218-2.767-.72Zm3.809 1.13a8.02 8.02 0 0 0 1.725-.564v1.272a9.79 9.79 0 0 1-1.725.726v-1.433Zm1.725-2.77a9.932 9.932 0 0 1-1.725.728v-1.44a8.15 8.15 0 0 0 1.725-.563v1.275Zm-2.239-5.47v6.31c-.35.06-.707.06-1.056 0v-6.31h1.056Zm-4.865 0H8.72v1.729a5.794 5.794 0 0 0-1.057-.418V5.513ZM5.668 8.34a1.96 1.96 0 0 0-.155.083v-1.06A3.108 3.108 0 0 1 7.34 7.27l.022.006c.417.102.82.257 1.2.46.85.444 1.622.827 2.397 1.025v.988c-.96-.206-1.894-.664-2.844-1.16-.944-.493-1.767-.577-2.446-.249Zm0 3.477a2.004 2.004 0 0 0-.155.083v-1.06a3.063 3.063 0 0 1 1.637-.13v.988a2.197 2.197 0 0 0-1.482.12Zm1.995-2.875c.07.032.14.064.213.102.282.147.563.291.844.428v4.725a5.795 5.795 0 0 0-1.057-.419V8.943Zm1.057 9.544H7.663v-2.589c.07.033.14.065.213.103.282.147.563.291.844.427v2.059Zm-.606-2.94c-.941-.494-1.765-.579-2.448-.25a2.093 2.093 0 0 0-.154.083v-1.062a3.11 3.11 0 0 1 1.827-.092l.021.005c.418.103.82.258 1.2.46.818.429 1.617.827 2.398 1.027v.988c-.96-.206-1.894-.664-2.844-1.16Zm3.357 2.94V13.83a5.298 5.298 0 0 0 1.056 0v4.657h-1.056Zm4.866 0H15.28v-2.058c.281-.137.562-.28.844-.428.073-.038.143-.07.213-.103v2.589Zm2.15-4.169v1.061c-.049-.03-.1-.057-.154-.083-.682-.328-1.506-.244-2.447.25-.949.496-1.882.955-2.844 1.16v-.988c.78-.2 1.58-.598 2.398-1.027a5.137 5.137 0 0 1 1.221-.466 3.111 3.111 0 0 1 1.826.093Zm0-3.477v1.06a2.213 2.213 0 0 0-.154-.082 2.196 2.196 0 0 0-1.483-.12v-.987a3.063 3.063 0 0 1 1.637.129Zm-2.15 2.938c-.365.105-.72.245-1.057.42V9.472c.281-.137.562-.28.844-.428.072-.038.143-.07.213-.103v4.837Z"/>
</svg>
