<svg xmlns="http://www.w3.org/2000/svg" width="24" height="24" fill="currentColor" viewBox="0 0 24 24">
  <path d="M20.067 3H3.933c-.753 0-1.195.765-.764 1.322l6.157 7.562c.144.188.22.408.22.636v7.59c0 .739.937 1.146 1.573.712l2.733-1.86c.377-.252.602-.655.602-1.08V12.52c0-.228.076-.448.22-.636l6.157-7.562C21.26 3.765 20.82 3 20.067 3zm-6.34 8.265c-.264.326-.441.78-.441 1.255v5.362c0 .092-.05.18-.131.234l-2.44 1.66V12.52c0-.447-.15-.877-.435-1.244L6.262 6.34h11.476l-4.01 4.925zm4.87-5.98H5.403l-1.002-1.23h15.196l-1.002 1.23z"/>
</svg>
