<svg xmlns="http://www.w3.org/2000/svg" width="24" height="24" fill="currentColor" viewBox="0 0 24 24">
  <path d="M19.171 4H4.829c-.669 0-1.062.68-.679 1.175l5.473 6.722a.924.924 0 0 1 .195.565v6.748c0 .656.834 1.018 1.399.632l2.43-1.653c.335-.224.535-.583.535-.96v-4.767c0-.203.067-.398.195-.565l5.473-6.722C20.233 4.68 19.84 4 19.17 4Zm-5.635 7.347c-.236.29-.393.693-.393 1.115v4.767c0 .082-.044.16-.116.208-.064.042.42-.286-2.17 1.476v-6.45c0-.398-.133-.78-.386-1.107L5.246 4.937h13.508l-5.218 6.41Z"/>
</svg>
