<svg xmlns="http://www.w3.org/2000/svg" width="24" height="24" fill="currentColor" viewBox="0 0 24 24">
  <path d="M15 13c.55 0 1.02-.196 1.413-.588.391-.391.587-.862.587-1.412 0-.55-.196-1.02-.587-1.413A1.926 1.926 0 0 0 15 9c-.55 0-1.02.196-1.412.587A1.926 1.926 0 0 0 13 11c0 .55.196 1.02.588 1.412.391.392.862.588 1.412.588Zm-4 4h8v-.55c0-.75-.367-1.346-1.1-1.787C17.167 14.22 16.2 14 15 14s-2.167.22-2.9.662c-.733.442-1.1 1.038-1.1 1.788V17Zm-6.928 3.203a2.19 2.19 0 0 1-1.61-.665 2.193 2.193 0 0 1-.665-1.61V5.982c0-.63.222-1.166.665-1.61.443-.443.98-.665 1.61-.665H9.91L12 5.797h7.928c.63 0 1.167.221 1.61.665.444.443.665.98.665 1.61v9.856c0 .63-.221 1.166-.665 1.61a2.19 2.19 0 0 1-1.61.665H4.072Zm0-14.22v11.945h15.856V8.072h-8.867l-2.09-2.09h-4.9Z"/>
</svg>
