<svg xmlns="http://www.w3.org/2000/svg" width="24" height="24" fill="currentColor" viewBox="0 0 24 24">
  <mask id="a" width="24" height="24" x="0" y="0" maskUnits="userSpaceOnUse" style="mask-type:alpha">
    <path d="M0 0h24v24H0z"/>
  </mask>
  <g mask="url(#a)">
    <path d="M12 13 4 8v10h9v2H4c-.55 0-1.02-.196-1.412-.587A1.927 1.927 0 0 1 2 18V6c0-.55.196-1.02.588-1.412A1.923 1.923 0 0 1 4 4h16c.55 0 1.021.196 1.413.588.391.391.587.862.587 1.412v7h-2V8l-8 5Zm0-2 8-5H4l8 5Zm7 12-1.4-1.4 1.575-1.6H15v-2h4.175l-1.6-1.6L19 15l4 4-4 4ZM4 8v11-6 .075V6v2Z"/>
  </g>
</svg>
