<svg width="56" height="56" viewBox="0 0 56 56" fill="currentColor" xmlns="http://www.w3.org/2000/svg">
<path d="M0 4C0 1.79086 1.79086 0 4 0H52C54.2091 0 56 1.79086 56 4V52C56 54.2091 54.2091 56 52 56H4C1.79086 56 0 54.2091 0 52V4Z" fill="#0EA4CB"/>
<path fill-rule="evenodd" clip-rule="evenodd" d="M31.5174 31.465C30.5655 32.4217 29.4163 32.9 28.0697 32.9C26.6998 32.9 25.545 32.4217 24.6052 31.465C23.6653 30.5083 23.195 29.3533 23.194 28C23.1931 26.6467 23.663 25.4917 24.6038 24.535C25.5445 23.5783 26.6998 23.1 28.0697 23.1C29.4163 23.1 30.5655 23.5783 31.5174 24.535C32.4693 25.4917 32.9453 26.6467 32.9453 28C32.9453 29.3533 32.4693 30.5083 31.5174 31.465ZM25.9801 28C25.9894 26.8882 26.8936 25.935 28 25.935C29.1706 25.935 30.1029 26.8236 30.1128 28C30.1227 29.1858 29.1609 30.1 28 30.1C26.8838 30.1 25.9707 29.1218 25.9801 28Z" fill="#FAFCFC"/>
<path fill-rule="evenodd" clip-rule="evenodd" d="M23.6119 37.52L24.1692 42H31.8308L32.3881 37.52C32.6667 37.4033 32.9453 37.2633 33.2239 37.1C33.5025 36.9367 33.7695 36.7617 34.0249 36.575L38.1343 38.325L41.9652 31.675L38.3781 28.945C38.4245 28.7817 38.4478 28.6239 38.4478 28.4718V27.5282C38.4478 27.3761 38.4362 27.2183 38.4129 27.055L42 24.325L38.1692 17.675L34.0249 19.425C33.7704 19.2383 33.5095 19.0633 33.242 18.9C32.9745 18.7367 32.6899 18.5967 32.3881 18.48L31.8308 14H24.1692L23.6119 18.48C23.3333 18.5967 23.0547 18.7367 22.7761 18.9C22.4975 19.0633 22.2305 19.2383 21.9751 19.425L17.8308 17.675L14 24.325L17.5871 27.055C17.5638 27.2183 17.5522 27.3761 17.5522 27.5282V28.4732C17.5522 28.6244 17.5638 28.7817 17.5871 28.945L14 31.675L17.8308 38.325L21.9751 36.575C22.2314 36.7617 22.4929 36.9367 22.7594 37.1C23.0259 37.2633 23.3101 37.4033 23.6119 37.52ZM29.3582 39.2H26.607L26.1542 35.49C25.4354 35.3043 24.7682 35.0303 24.1524 34.6682C23.5367 34.3061 22.9735 33.8567 22.4627 33.32L19.0149 34.79L17.6567 32.41L20.6517 30.135C20.5357 29.785 20.4544 29.435 20.408 29.085C20.3615 28.735 20.3383 28.3733 20.3383 28C20.3383 27.6033 20.3615 27.23 20.408 26.88C20.4544 26.53 20.5357 26.18 20.6517 25.83L17.6567 23.59L19.0149 21.21L22.4627 22.645C22.9744 22.1326 23.5376 21.6953 24.1524 21.3332C24.7672 20.9711 25.4345 20.6967 26.1542 20.51L26.6418 16.8H29.393L29.8458 20.51C30.5664 20.6976 31.2342 20.972 31.849 21.3332C32.4637 21.6944 33.0265 22.1433 33.5373 22.68L36.9851 21.21L38.3433 23.59L35.3483 25.865C35.4643 26.1935 35.5456 26.5379 35.592 26.8982C35.6385 27.2585 35.6617 27.6257 35.6617 28C35.6617 28.3743 35.6385 28.742 35.592 29.1032C35.5456 29.4644 35.4643 29.8083 35.3483 30.135L38.3433 32.41L36.9851 34.79L33.5373 33.355C33.0275 33.8693 32.4647 34.307 31.849 34.6682C31.2332 35.0294 30.5655 35.3033 29.8458 35.49L29.3582 39.2Z" fill="#FAFCFC"/>
</svg>
