<svg xmlns="http://www.w3.org/2000/svg" width="24" height="24" fill="currentColor" viewBox="0 0 24 24">
  <mask id="a" width="24" height="24" x="0" y="0" maskUnits="userSpaceOnUse" style="mask-type:alpha">
    <path d="M0 0h24v24H0z"/>
  </mask>
  <g mask="url(#a)">
    <path d="M12 20a7.75 7.75 0 0 1-3.111-.632 8.112 8.112 0 0 1-2.543-1.714 8.112 8.112 0 0 1-1.714-2.543A7.75 7.75 0 0 1 4 12c0-1.104.21-2.142.632-3.114a8.12 8.12 0 0 1 1.714-2.54A8.112 8.112 0 0 1 8.89 4.632 7.75 7.75 0 0 1 12 4c1.104 0 2.142.21 3.114.632a8.12 8.12 0 0 1 2.54 1.714 8.12 8.12 0 0 1 1.714 2.54c.422.972.632 2.01.632 3.114 0 1.1-.21 2.138-.632 3.111a8.111 8.111 0 0 1-1.714 2.543 8.12 8.12 0 0 1-2.54 1.714A7.744 7.744 0 0 1 12 20Zm0-.882c.522-.67.952-1.328 1.29-1.974a10.4 10.4 0 0 0 .826-2.17H9.884c.234.846.515 1.592.842 2.238.328.646.752 1.282 1.274 1.906Zm-1.132-.133c-.414-.49-.793-1.093-1.136-1.813a10.426 10.426 0 0 1-.764-2.198H5.559a7.048 7.048 0 0 0 2.167 2.72 6.537 6.537 0 0 0 3.142 1.29Zm2.264 0a6.537 6.537 0 0 0 3.142-1.291 7.048 7.048 0 0 0 2.167-2.72h-3.408a15.232 15.232 0 0 1-.85 2.215c-.343.72-.694 1.318-1.051 1.796Zm-7.935-4.9h3.586c-.067-.364-.115-.72-.143-1.065a12.668 12.668 0 0 1 0-2.04c.028-.346.076-.7.143-1.065H5.197a7.31 7.31 0 0 0-.226 3.165c.053.363.129.698.226 1.006Zm4.475 0h4.656A10.782 10.782 0 0 0 14.513 12c0-.357-.014-.702-.042-1.037a10.71 10.71 0 0 0-.143-1.048H9.672A10.782 10.782 0 0 0 9.487 12a10.782 10.782 0 0 0 .185 2.085Zm5.545 0h3.586a7.315 7.315 0 0 0 .227-3.165 6.578 6.578 0 0 0-.227-1.005h-3.586c.067.364.115.72.143 1.065a12.636 12.636 0 0 1 0 2.04 10.58 10.58 0 0 1-.143 1.066Zm-.184-5.06h3.408c-.52-1.128-1.235-2.034-2.141-2.719-.907-.685-1.963-1.12-3.168-1.308.414.546.787 1.17 1.118 1.873.332.702.592 1.42.783 2.155Zm-5.15 0h4.233a12.312 12.312 0 0 0-.868-2.263A9.874 9.874 0 0 0 12 4.882a9.874 9.874 0 0 0-1.248 1.88 12.315 12.315 0 0 0-.868 2.264Zm-4.324 0h3.409c.19-.733.45-1.452.782-2.154.33-.703.704-1.327 1.118-1.873-1.217.187-2.276.626-3.177 1.317-.9.69-1.611 1.594-2.132 2.71Z"/>
  </g>
</svg>
