<svg width="16" height="16" viewBox="0 0 16 16" fill="none" xmlns="http://www.w3.org/2000/svg">
<path d="M7.97 11.6C8.18 11.6 8.3575 11.5275 8.5025 11.3825C8.6475 11.2375 8.72 11.06 8.72 10.85C8.72 10.64 8.6475 10.4625 8.5025 10.3175C8.3575 10.1725 8.18 10.1 7.97 10.1C7.76 10.1 7.5825 10.1725 7.4375 10.3175C7.2925 10.4625 7.22 10.64 7.22 10.85C7.22 11.06 7.2925 11.2375 7.4375 11.3825C7.5825 11.5275 7.76 11.6 7.97 11.6ZM7.43 9.29H8.54C8.54 8.96 8.5775 8.7 8.6525 8.51C8.7275 8.32 8.94 8.06 9.29 7.73C9.55 7.47 9.755 7.2225 9.905 6.9875C10.055 6.7525 10.13 6.47 10.13 6.14C10.13 5.58 9.925 5.15 9.515 4.85C9.105 4.55 8.62 4.4 8.06 4.4C7.49 4.4 7.0275 4.55 6.6725 4.85C6.3175 5.15 6.07 5.51 5.93 5.93L6.92 6.32C6.97 6.14 7.0825 5.945 7.2575 5.735C7.4325 5.525 7.7 5.42 8.06 5.42C8.38 5.42 8.62 5.5075 8.78 5.6825C8.94 5.8575 9.02 6.05 9.02 6.26C9.02 6.46 8.96 6.6475 8.84 6.8225C8.72 6.9975 8.57 7.16 8.39 7.31C7.95 7.7 7.68 7.995 7.58 8.195C7.48 8.395 7.43 8.76 7.43 9.29ZM8 14C7.17 14 6.39 13.8425 5.66 13.5275C4.93 13.2125 4.295 12.785 3.755 12.245C3.215 11.705 2.7875 11.07 2.4725 10.34C2.1575 9.61 2 8.83 2 8C2 7.17 2.1575 6.39 2.4725 5.66C2.7875 4.93 3.215 4.295 3.755 3.755C4.295 3.215 4.93 2.7875 5.66 2.4725C6.39 2.1575 7.17 2 8 2C8.83 2 9.61 2.1575 10.34 2.4725C11.07 2.7875 11.705 3.215 12.245 3.755C12.785 4.295 13.2125 4.93 13.5275 5.66C13.8425 6.39 14 7.17 14 8C14 8.83 13.8425 9.61 13.5275 10.34C13.2125 11.07 12.785 11.705 12.245 12.245C11.705 12.785 11.07 13.2125 10.34 13.5275C9.61 13.8425 8.83 14 8 14ZM8 12.8C9.34 12.8 10.475 12.335 11.405 11.405C12.335 10.475 12.8 9.34 12.8 8C12.8 6.66 12.335 5.525 11.405 4.595C10.475 3.665 9.34 3.2 8 3.2C6.66 3.2 5.525 3.665 4.595 4.595C3.665 5.525 3.2 6.66 3.2 8C3.2 9.34 3.665 10.475 4.595 11.405C5.525 12.335 6.66 12.8 8 12.8Z" fill="#0EA4CB"/>
</svg>
