<svg xmlns="http://www.w3.org/2000/svg" width="24" height="24" fill="currentColor" viewBox="0 0 24 24">
  <path d="M12 10.05c-1.42 0-2.575 1.189-2.575 2.652S10.58 15.354 12 15.354c1.42 0 2.575-1.19 2.575-2.652 0-1.463-1.154-2.652-2.575-2.652Zm-.195 1.865a.6.6 0 0 0-.586.604h-.852c.017-.823.656-1.481 1.438-1.481v.877Z"/>
  <path d="M19.814 12.153c-.87-1.116-3.978-4.755-7.814-4.755s-6.943 3.64-7.814 4.755a.9.9 0 0 0 0 1.097c.87 1.116 3.978 4.755 7.814 4.755s6.943-3.64 7.814-4.755a.9.9 0 0 0 0-1.097ZM12 16.542c-2.06 0-3.73-1.72-3.73-3.84C8.27 10.58 9.94 8.86 12 8.86s3.73 1.719 3.73 3.84c0 2.122-1.67 3.84-3.73 3.84Z"/>
  <path d="m4.437 6.498.771-.75 12.857 12.5-.771.75z"/>
  <path d="m5.208 5.752.772-.75 12.856 12.5-.771.75z"/>
</svg>
