<svg width="48" height="48" viewBox="0 0 48 48" fill="currentColor" xmlns="http://www.w3.org/2000/svg">
<path d="M10 42L6 18H36L35 22H10.8L13.34 38H34V42H10ZM20 30H28C28.5667 30 29.0417 29.8083 29.425 29.425C29.8083 29.0417 30 28.5667 30 28C30 27.4333 29.8083 26.9583 29.425 26.575C29.0417 26.1917 28.5667 26 28 26H20C19.4333 26 18.9583 26.1917 18.575 26.575C18.1917 26.9583 18 27.4333 18 28C18 28.5667 18.1917 29.0417 18.575 29.425C18.9583 29.8083 19.4333 30 20 30ZM12 16C11.4333 16 10.9583 15.8083 10.575 15.425C10.1917 15.0417 10 14.5667 10 14C10 13.4333 10.1917 12.9583 10.575 12.575C10.9583 12.1917 11.4333 12 12 12H36C36.5667 12 37.0417 12.1917 37.425 12.575C37.8083 12.9583 38 13.4333 38 14C38 14.5667 37.8083 15.0417 37.425 15.425C37.0417 15.8083 36.5667 16 36 16H12ZM16 10C15.4333 10 14.9583 9.80833 14.575 9.425C14.1917 9.04167 14 8.56667 14 8C14 7.43333 14.1917 6.95833 14.575 6.575C14.9583 6.19167 15.4333 6 16 6H32C32.5667 6 33.0417 6.19167 33.425 6.575C33.8083 6.95833 34 7.43333 34 8C34 8.56667 33.8083 9.04167 33.425 9.425C33.0417 9.80833 32.5667 10 32 10H16Z"/>
<path d="M40 42C39.4333 42 38.9583 41.8083 38.575 41.425C38.1917 41.0417 38 40.5667 38 40C38 39.4333 38.1917 38.9583 38.575 38.575C38.9583 38.1917 39.4333 38 40 38C40.5667 38 41.0417 38.1917 41.425 38.575C41.8083 38.9583 42 39.4333 42 40C42 40.5667 41.8083 41.0417 41.425 41.425C41.0417 41.8083 40.5667 42 40 42ZM38 34V22H42V34H38Z"/>
</svg>
