<svg width="27" height="26" viewBox="0 0 27 26" fill="none" xmlns="http://www.w3.org/2000/svg">
<path d="M3.48899 26C2.69454 26 2.01445 25.7171 1.44871 25.1514C0.882968 24.5856 0.600098 23.9056 0.600098 23.1111V2.88889C0.600098 2.09444 0.882968 1.41435 1.44871 0.848611C2.01445 0.28287 2.69454 0 3.48899 0H23.7112C24.5057 0 25.1857 0.28287 25.7515 0.848611C26.3172 1.41435 26.6001 2.09444 26.6001 2.88889V23.1111C26.6001 23.9056 26.3172 24.5856 25.7515 25.1514C25.1857 25.7171 24.5057 26 23.7112 26H3.48899ZM3.48899 23.1111H23.7112V2.88889H3.48899V23.1111ZM4.93343 20.2222H22.2668L16.8501 13L12.5168 18.7778L9.26676 14.4444L4.93343 20.2222ZM8.54454 10.1111C9.14639 10.1111 9.65797 9.90046 10.0793 9.47917C10.5006 9.05787 10.7112 8.5463 10.7112 7.94444C10.7112 7.34259 10.5006 6.83102 10.0793 6.40972C9.65797 5.98843 9.14639 5.77778 8.54454 5.77778C7.94269 5.77778 7.43112 5.98843 7.00982 6.40972C6.58852 6.83102 6.37788 7.34259 6.37788 7.94444C6.37788 8.5463 6.58852 9.05787 7.00982 9.47917C7.43112 9.90046 7.94269 10.1111 8.54454 10.1111Z" fill="#00694D"/>
</svg>
