<svg xmlns="http://www.w3.org/2000/svg" width="24" height="24" fill="currentColor" viewBox="0 0 24 24">
  <path d="M17.422 8.183v-1.55C17.395 5.846 15.535 5 11.986 5c-3.55 0-5.409.817-5.409 1.662v1.55c0 .422.48.844 1.437 1.154v5.268c-.93.281-1.437.676-1.437 1.155v1.549c0 .817 1.86 1.662 5.409 1.662 3.55 0 5.408-.817 5.408-1.662v-1.55c0-.478-.479-.844-1.436-1.154v-.62l1.267-.563c.141-.057.197-.226.141-.367-.056-.14-.225-.197-.366-.14l-1.014.45V9.338c.93-.31 1.436-.732 1.436-1.155Zm-5.436-2.62c3.155 0 4.845.705 4.845 1.099s-1.69 1.099-4.845 1.099S7.14 7.056 7.14 6.662s1.69-1.099 4.845-1.099ZM16.83 17.31c0 .366-1.69 1.099-4.845 1.099s-4.845-.705-4.845-1.1v-.788c.789.507 2.422.901 4.845.901 2.422 0 4.056-.394 4.845-.9v.788Zm-.817-1.55v-.563c.592.226.817.45.817.564 0 .366-1.718 1.098-4.845 1.098s-4.845-.704-4.845-1.098c0-.113.225-.338.873-.564v.564c0 .112.085.225.169.253.028.028 1.07.395 3.718.395 2.817 0 3.86-.367 3.916-.395a.27.27 0 0 0 .197-.253Zm-5.69-4.14c1.352 0 3.211-.197 5.098-.958v.591c-2.957 1.268-6.028.986-6.873.874v-.62c.366.056.986.113 1.775.113Zm-1.775-.676V9.507c.873.197 2.028.338 3.437.338 1.408 0 2.563-.14 3.436-.338v.563c-2.957 1.268-6.028.986-6.873.874Zm1.775 1.859c1.352 0 3.211-.197 5.098-.958v.592c-2.957 1.267-6.028.986-6.873.873v-.62c.366.056.986.113 1.775.113Zm0 1.211c1.352 0 3.211-.197 5.098-.958v.564c-2.957 1.296-6.028 1.014-6.873.901v-.62c.366.057.986.113 1.775.113ZM8.577 15.09c.37.055.978.108 1.747.108 1.352 0 3.211-.197 5.098-.958v1.324c-.394.085-1.492.31-3.52.31-1.916 0-2.958-.197-3.325-.31v-.474Zm3.409-5.807c-3.155 0-4.845-.705-4.845-1.099v-.789c.789.536 2.422.93 4.845.93 2.422 0 4.056-.394 4.845-.901v.788c0 .366-1.69 1.07-4.845 1.07Z"/>
  <path d="M12.55 6.38h-1.1c-.168 0-.281.113-.281.282 0 .169.113.282.282.282h1.098c.17 0 .282-.113.282-.282 0-.17-.113-.282-.282-.282Z"/>
</svg>
