<svg width="48" height="48" viewBox="0 0 48 48" fill="currentColor" xmlns="http://www.w3.org/2000/svg">
<path d="M24.0002 25.9998C22.3336 25.9998 20.9169 25.4164 19.7502 24.2498C18.5836 23.0831 18.0002 21.6664 18.0002 19.9998C18.0002 18.3331 18.5836 16.9164 19.7502 15.7498C20.9169 14.5831 22.3336 13.9998 24.0002 13.9998C25.6669 13.9998 27.0836 14.5831 28.2502 15.7498C29.4169 16.9164 30.0002 18.3331 30.0002 19.9998C30.0002 21.6664 29.4169 23.0831 28.2502 24.2498C27.0836 25.4164 25.6669 25.9998 24.0002 25.9998ZM12.0002 45.9998V30.5498C10.7336 29.1498 9.75024 27.5498 9.05024 25.7498C8.35024 23.9498 8.00024 22.0331 8.00024 19.9998C8.00024 15.5331 9.55024 11.7498 12.6502 8.64976C15.7502 5.54976 19.5336 3.99976 24.0002 3.99976C28.4669 3.99976 32.2502 5.54976 35.3502 8.64976C38.4502 11.7498 40.0002 15.5331 40.0002 19.9998C40.0002 22.0331 39.6502 23.9498 38.9502 25.7498C38.2502 27.5498 37.2669 29.1498 36.0002 30.5498V45.9998L24.0002 41.9998L12.0002 45.9998ZM24.0002 31.9998C27.3336 31.9998 30.1669 30.8331 32.5002 28.4998C34.8336 26.1664 36.0002 23.3331 36.0002 19.9998C36.0002 16.6664 34.8336 13.8331 32.5002 11.4998C30.1669 9.16642 27.3336 7.99976 24.0002 7.99976C20.6669 7.99976 17.8336 9.16642 15.5002 11.4998C13.1669 13.8331 12.0002 16.6664 12.0002 19.9998C12.0002 23.3331 13.1669 26.1664 15.5002 28.4998C17.8336 30.8331 20.6669 31.9998 24.0002 31.9998ZM16.0002 40.0498L24.0002 37.9998L32.0002 40.0498V33.8498C30.8336 34.5164 29.5752 35.0414 28.2252 35.4248C26.8752 35.8081 25.4669 35.9998 24.0002 35.9998C22.5336 35.9998 21.1252 35.8081 19.7752 35.4248C18.4252 35.0414 17.1669 34.5164 16.0002 33.8498V40.0498Z" fill="currentColor"/>
</svg>
