<svg xmlns="http://www.w3.org/2000/svg" width="40" height="40" fill="currentColor" viewBox="0 0 40 40">
  <path d="M33.335 23.015v10.318h-5.717v-9.627c0-2.417-.825-4.068-2.895-4.068-1.58 0-2.518 1.112-2.933 2.188-.15.384-.19.918-.19 1.458v10.049h-5.716s.076-16.305 0-17.993H21.6v2.55c-.011.02-.027.04-.038.059h.038v-.06c.76-1.223 2.115-2.972 5.153-2.972 3.76 0 6.58 2.572 6.58 8.098ZM9.903 6.667c-1.956 0-3.235 1.343-3.235 3.108 0 1.728 1.242 3.11 3.16 3.11h.037c1.994 0 3.234-1.382 3.234-3.11-.038-1.765-1.24-3.108-3.196-3.108ZM7.008 33.333h5.715V15.34H7.008v17.993Z"/>
</svg>
