<svg xmlns="http://www.w3.org/2000/svg" width="24" height="24" fill="currentColor" viewBox="0 0 24 24">
  <path d="M16.5 9.875h-1.126v-2.57C15.374 5.483 13.86 4 11.999 4S8.624 5.483 8.624 7.305v2.57H7.5a1.877 1.877 0 0 0-1.875 1.875v6.375C5.625 19.159 6.466 20 7.5 20h9a1.877 1.877 0 0 0 1.875-1.875V11.75A1.877 1.877 0 0 0 16.5 9.875Zm-6.626-2.57c0-1.133.953-2.055 2.125-2.055 1.172 0 2.125.922 2.125 2.055v2.57h-4.25v-2.57Zm7.251 10.82c0 .345-.28.625-.625.625h-9a.626.626 0 0 1-.625-.625V11.75c0-.345.28-.625.625-.625h9c.345 0 .625.28.625.625v6.375Z"/>
  <path d="M12 12.938a1.156 1.156 0 0 0-.626 2.128v1.371a.625.625 0 0 0 1.25 0v-1.37a1.155 1.155 0 0 0-.624-2.13Z"/>
</svg>
