<svg xmlns="http://www.w3.org/2000/svg" width="24" height="24" fill="currentColor" viewBox="0 0 24 24">
  <path d="M18.594 6.375H5.406C4.63 6.375 4 7.008 4 7.781v8.438c0 .777.634 1.406 1.406 1.406h13.188c.77 0 1.406-.626 1.406-1.406V7.78c0-.771-.627-1.406-1.406-1.406Zm-.197.938-5.403 5.374a1.397 1.397 0 0 1-.994.411c-.376 0-.729-.146-.995-.412L5.603 7.313h12.794Zm-13.46 8.715V7.973l4.052 4.03-4.052 4.025Zm.667.66 4.05-4.024.689.685a2.328 2.328 0 0 0 1.657.687c.626 0 1.215-.244 1.656-.686l.69-.686 4.05 4.024H5.604Zm13.459-.66-4.052-4.025 4.052-4.03v8.055Z"/>
</svg>
