<svg xmlns="http://www.w3.org/2000/svg" width="24" height="24" fill="currentColor" viewBox="0 0 24 24">
  <g clip-path="url(#a)">
    <path fill-rule="evenodd" d="M5.54 3.64h2.94c1.01.24 1.64.88 1.88 1.89.02.48.02.96.02 1.44 3.27 0 6.55 0 9.82.02.06.04.12.09.16.15v13.05l-.16.16H5.54c-1.01-.25-1.64-.88-1.89-1.89v-6.27c.13-.15.29-.2.49-.15.06.04.11.09.15.15l.03 4.24c.29-.31.65-.51 1.06-.6.54-.04 1.09-.05 1.63-.05.55 0 1.09.01 1.63.05.42.1.77.3 1.06.6 0-1.75.01-3.5.02-5.25 0-1.86-.01-3.72-.05-5.58-.23-.8-.75-1.23-1.58-1.29-.83-.03-1.65-.02-2.48.03-.8.23-1.23.75-1.29 1.58l-.03 3.66c-.12.16-.28.2-.47.15a.572.572 0 0 1-.16-.15V5.53c.25-1.01.88-1.64 1.89-1.89h-.01Zm4.83 3.98c.15 0 .3 0 .46.02l8.86 8.86c.02 1.06.02 2.11 0 3.17l-9.3-9.3c-.02-.91-.02-1.83-.02-2.74v-.01Zm1.44.03c1.05-.04 2.1-.04 3.17-.02l4.72 4.72c.02 1.06.02 2.11 0 3.17-2.62-2.63-5.25-5.25-7.88-7.87h-.01Zm4.18 0c1.23-.03 2.47-.04 3.72-.03 0 1.24 0 2.48-.02 3.72-1.23-1.24-2.47-2.47-3.7-3.69Zm-5.61 3.69c2.79 2.77 5.57 5.55 8.36 8.34-1.06.02-2.11.02-3.17 0l-5.17-5.17c-.02-1.06-.02-2.11-.02-3.17Zm0 4.14c1.41 1.39 2.81 2.79 4.21 4.19-1.62.02-3.24.02-4.86 0 .35-.34.56-.74.64-1.22.02-.99.02-1.98.02-2.97h-.01Zm-4.44.95c.72 0 1.44 0 2.15.02.83.06 1.36.49 1.58 1.29.1.98-.31 1.62-1.26 1.91-.83.05-1.65.06-2.48.03-.76-.06-1.28-.44-1.55-1.16-.17-1.21.34-1.91 1.55-2.09h.01Z" clip-rule="evenodd" opacity=".97"/>
    <path fill-rule="evenodd" d="M3.64 11.05v-.33c.13-.15.29-.2.49-.15.16.12.2.28.15.47-.12.16-.28.2-.47.15a.572.572 0 0 1-.16-.15l-.01.01Z" clip-rule="evenodd" opacity=".91"/>
    <path fill-rule="evenodd" d="M5.77 17.74c.83 0 1.65 0 2.48.02.16.12.2.28.15.47-.04.06-.09.11-.15.15-.83.02-1.65.02-2.48 0-.16-.12-.2-.28-.15-.47.04-.06.09-.12.15-.16v-.01Z" clip-rule="evenodd" opacity=".98"/>
  </g>
  <defs>
    <clipPath id="a">
      <path d="M0 0h24v24H0z"/>
    </clipPath>
  </defs>
</svg>
