<svg xmlns="http://www.w3.org/2000/svg" width="24" height="24" fill="currentColor" viewBox="0 0 24 24">
  <g clip-path="url(#a)">
    <path d="M16.67 13.13C18.04 14.06 19 15.32 19 17v3h2.553l.29-1.526L23 17c0-.535-.214-1.015-.579-1.443-1.122-1.316-3.667-2.125-5.75-2.427ZM15 12c2.21 0 4-1.79 4-4s-1.79-4-4-4c-.47 0-.91.1-1.33.24a5.98 5.98 0 0 1 0 7.52c.42.14.86.24 1.33.24Zm-6 0c2.21 0 4-1.79 4-4s-1.79-4-4-4-4 1.79-4 4 1.79 4 4 4Zm0-6c1.1 0 2 .9 2 2s-.9 2-2 2-2-.9-2-2 .9-2 2-2Zm0 7c-2.67 0-8 1.34-8 4v3h16v-3c0-2.66-5.33-4-8-4Zm6 5H3v-.99C3.2 16.29 6.3 15 9 15s5.8 1.29 6 2v1Z"/>
    <path d="M23.326 17.744a4.45 4.45 0 0 0 .012-.947l1.203-.936a.269.269 0 0 0 .068-.353l-1.159-1.97c-.067-.122-.213-.166-.348-.122l-1.44.55a3.89 3.89 0 0 0-.844-.462l-.225-1.497a.278.278 0 0 0-.282-.242h-2.328a.288.288 0 0 0-.282.23l-.225 1.498a4.7 4.7 0 0 0-.832.463l-1.44-.55a.276.276 0 0 0-.349.12l-1.159 1.971a.269.269 0 0 0 .068.353l1.204.947a4.45 4.45 0 0 0-.012.947l-1.204.936a.269.269 0 0 0-.067.352l1.159 1.97c.067.122.213.166.349.122l1.428-.55c.259.187.54.34.844.462l.225 1.497a.278.278 0 0 0 .281.232h2.33c.134 0 .258-.1.28-.232l.225-1.497a4.7 4.7 0 0 0 .833-.463l1.44.551c.135.055.281 0 .349-.121l1.159-1.971a.269.269 0 0 0-.068-.352l-1.192-.936Z"/>
    <path d="M22.49 17.648a3.56 3.56 0 0 0 .01-.758l.962-.749a.215.215 0 0 0 .055-.282l-.927-1.576c-.055-.097-.171-.133-.28-.097l-1.152.44a3.117 3.117 0 0 0-.675-.37l-.18-1.198a.223.223 0 0 0-.225-.194h-1.863a.23.23 0 0 0-.225.185l-.18 1.198c-.234.097-.459.23-.666.37l-1.152-.44a.22.22 0 0 0-.279.097l-.927 1.577a.215.215 0 0 0 .054.281l.963.758a3.56 3.56 0 0 0-.009.758l-.963.748a.215.215 0 0 0-.054.282l.927 1.577c.054.097.171.132.28.097l1.142-.44c.207.15.432.273.675.37l.18 1.198a.223.223 0 0 0 .225.184h1.863a.23.23 0 0 0 .225-.184l.18-1.198c.234-.097.46-.23.666-.37l1.152.44a.22.22 0 0 0 .28-.097l.927-1.577a.215.215 0 0 0-.054-.282l-.954-.748Zm-3.339.942c-.747 0-1.35-.59-1.35-1.321s.603-1.321 1.35-1.321c.747 0 1.35.59 1.35 1.32 0 .732-.603 1.322-1.35 1.322Z"/>
  </g>
  <defs>
    <clipPath id="a">
      <path d="M0 0h24v24H0z"/>
    </clipPath>
  </defs>
</svg>
