<svg xmlns="http://www.w3.org/2000/svg" width="24" height="24" fill="currentColor" viewBox="0 0 24 24">
  <path d="M4.5 22h15a2.51 2.51 0 0 0 2.5-2.48v-15A2.51 2.51 0 0 0 19.5 2h-15A2.51 2.51 0 0 0 2 4.53v15A2.51 2.51 0 0 0 4.5 22Z"/>
  <path d="M7.635 17V7.38h2.132l1.638 4.498c.208.598.39 1.235.585 1.859h.065c.208-.624.377-1.261.585-1.859l1.6-4.498h2.131V17h-1.755v-4.017c0-.91.143-2.249.234-3.159h-.052l-.78 2.262-1.482 4.043h-1.105l-1.495-4.043-.767-2.262h-.052c.091.91.247 2.249.247 3.159V17H7.635Z"/>
</svg>
