<svg xmlns="http://www.w3.org/2000/svg" width="24" height="24" fill="currentColor" viewBox="0 0 24 24">
  <path fill-rule="evenodd" d="M19.5 22h-15A2.51 2.51 0 0 1 2 19.53v-15A2.51 2.51 0 0 1 4.5 2h15A2.51 2.51 0 0 1 22 4.52v15A2.51 2.51 0 0 1 19.5 22ZM7.635 7.38V17h1.73v-4.017c0-.768-.112-1.842-.201-2.706l-.047-.453h.052l.767 2.262 1.495 4.043h1.105l1.482-4.043.78-2.262h.052l-.023.229c-.09.894-.21 2.093-.21 2.93V17h1.754V7.38H14.24l-1.599 4.498c-.113.324-.214.66-.316.998-.086.287-.174.575-.269.861h-.065a75.5 75.5 0 0 1-.178-.581 34.191 34.191 0 0 0-.407-1.278L9.767 7.38H7.635Z" clip-rule="evenodd"/>
</svg>
