<svg width="48" height="48" viewBox="0 0 48 48" fill="currentColor" xmlns="http://www.w3.org/2000/svg">
<path d="M24 46C22.4875 46 21.1927 45.4615 20.1156 44.3844C19.0385 43.3073 18.5 42.0125 18.5 40.5C18.5 38.9875 19.0385 37.6927 20.1156 36.6156C21.1927 35.5385 22.4875 35 24 35C25.5125 35 26.8073 35.5385 27.8844 36.6156C28.9615 37.6927 29.5 38.9875 29.5 40.5C29.5 42.0125 28.9615 43.3073 27.8844 44.3844C26.8073 45.4615 25.5125 46 24 46ZM24 29.5C22.4875 29.5 21.1927 28.9615 20.1156 27.8844C19.0385 26.8073 18.5 25.5125 18.5 24C18.5 22.4875 19.0385 21.1927 20.1156 20.1156C21.1927 19.0385 22.4875 18.5 24 18.5C25.5125 18.5 26.8073 19.0385 27.8844 20.1156C28.9615 21.1927 29.5 22.4875 29.5 24C29.5 25.5125 28.9615 26.8073 27.8844 27.8844C26.8073 28.9615 25.5125 29.5 24 29.5ZM24 13C22.4875 13 21.1927 12.4615 20.1156 11.3844C19.0385 10.3073 18.5 9.0125 18.5 7.5C18.5 5.9875 19.0385 4.69271 20.1156 3.61563C21.1927 2.53854 22.4875 2 24 2C25.5125 2 26.8073 2.53854 27.8844 3.61563C28.9615 4.69271 29.5 5.9875 29.5 7.5C29.5 9.0125 28.9615 10.3073 27.8844 11.3844C26.8073 12.4615 25.5125 13 24 13Z" fill="currentColor"/>
</svg>
