<svg xmlns="http://www.w3.org/2000/svg" width="110" height="110" fill="currentColor" viewBox="0 0 110 110">
  <path fill-rule="evenodd" d="M94.074 107.053H41.877c-9.424 0-14.258-4.883-14.258-14.405V82.207H8a6 6 0 01-6-6v-28a6 6 0 016-6h19.62V17.355C27.62 7.834 32.501 3 41.876 3h23.437c4.737 0 7.276.732 10.4 3.906l28.712 29.004c3.222 3.32 3.906 5.664 3.906 10.938v45.8c0 9.522-4.785 14.405-14.258 14.405zm-60.4-14.551V82.207H58a6 6 0 006-6v-28a6 6 0 00-6-6H33.674V17.502c0-5.371 2.88-8.496 8.545-8.496h22.803V38.4c0 5.567 2.831 8.203 8.251 8.203h29.053v45.899c0 5.517-2.93 8.496-8.545 8.496H42.17c-5.615 0-8.496-2.979-8.496-8.496zm37.06-54.736c0 2.246.928 3.125 3.174 3.125h27.197l-30.37-30.664v27.539zM58 47.207H8a1 1 0 00-1 1v28a1 1 0 001 1h50a1 1 0 001-1v-28a1 1 0 00-1-1zm-42.315 24h-2.66v-14.82h3.28l2.52 6.94c.206.593.396 1.21.585 1.826.104.34.208.68.315 1.014h.1c.154-.451.293-.911.433-1.37.15-.497.3-.991.467-1.47l2.46-6.94h3.28v14.82h-2.7v-6.18c0-1.4.22-3.46.38-4.86h-.1l-1.2 3.48-2.28 6.22h-1.7l-2.3-6.22-1.18-3.48h-.08l.072.697c.137 1.329.308 2.981.308 4.163v6.18zm26.91-7.46c0 4.8-2.7 7.74-6.62 7.74s-6.62-2.94-6.62-7.74c0-4.82 2.7-7.62 6.62-7.62s6.62 2.82 6.62 7.62zm-10.22 0c0 3.16 1.4 5.18 3.6 5.18s3.6-2.02 3.6-5.18c0-3.18-1.4-5.08-3.6-5.08s-3.6 1.9-3.6 5.08zm19.017 7.46h-3.54l-4.52-14.82h3.1l1.96 7.22c.235.841.435 1.64.635 2.442.19.763.38 1.53.605 2.338h.1c.256-.888.467-1.724.678-2.561.184-.728.368-1.456.582-2.219l1.92-7.22h3l-4.52 14.82z" clip-rule="evenodd"/>
</svg>
