<svg xmlns="http://www.w3.org/2000/svg" width="24" height="24" fill="currentColor" viewBox="0 0 24 24">
  <g clip-path="url(#a)">
    <mask id="b" width="24" height="24" x="0" y="0" maskUnits="userSpaceOnUse" style="mask-type:alpha">
      <path d="M0 0h24v24H0z"/>
    </mask>
    <g mask="url(#b)">
      <path d="M10 14.175 11 12l2.175-1L11 10l-1-2.175L9 10l-2.175 1L9 12l1 2.175ZM10 19l-2.5-5.5L2 11l5.5-2.5L10 3l2.5 5.5L18 11l-5.5 2.5L10 19Zm8 2-1.25-2.75L14 17l2.75-1.25L18 13l1.25 2.75L22 17l-2.75 1.25L18 21Z"/>
    </g>
  </g>
  <defs>
    <clipPath id="a">
      <path d="M0 0h24v24H0z"/>
    </clipPath>
  </defs>
</svg>
