<svg xmlns="http://www.w3.org/2000/svg" width="24" height="24" fill="currentColor" viewBox="0 0 24 24">
  <path d="M15 17.1h-1.64v-.84H15a1.51 1.51 0 0 0 .36-.05l.23.81a2.3 2.3 0 0 1-.59.08Zm-3.37 0H10v-.84h1.68l-.05.84Zm-3.37 0H6.62v-.84H8.3l-.04.84Zm-3.37 0H3.25v-.84h1.68l-.04.84Zm-3.45-1a2.1 2.1 0 0 1-.29-1.1v-.72H2V15c0 .241.07.477.2.68l-.76.42Zm15.58-.55-.81-.23c.046-.102.076-.21.09-.32v-1.21h.85V15c0 .2-.03.399-.09.59l-.04-.04ZM2 12.59h-.85v-1.68H2v1.68Zm15.16-.48h-.86v-1.68h.85l.01 1.68ZM2 9.22h-.85V7.54H2v1.68Zm15.16-.48h-.86V7.06h.85l.01 1.68ZM2 5.85h-.85V4.17H2v1.68Zm15.16-.48h-.86V3.69h.85l.01 1.68ZM2.1 2.68l-.77-.35A2.14 2.14 0 0 1 3 1.12l.07.88a1.29 1.29 0 0 0-.97.68Zm13.9-.3A1.23 1.23 0 0 0 15 2h-.2v-.9h.2a2.11 2.11 0 0 1 1.59.73l-.59.55ZM13.12 2h-1.69v-.9h1.69V2ZM9.75 2H8.06v-.9h1.69V2ZM6.38 2H4.69v-.9h1.69V2Z"/>
  <path d="M20.93 23.09h-1.68v-.85h1.68a.999.999 0 0 0 .36 0l.24.81a2 2 0 0 1-.6.04Zm-3.36 0h-1.69v-.85h1.69v.85Zm-3.37 0h-1.69v-.85h1.69v.85Zm-3.37 0H9.15v-.85h1.68v.85Zm-3.46-1A2.16 2.16 0 0 1 7 21v-.72h.84V21a1.23 1.23 0 0 0 .2.68l-.67.41ZM23 21.57l-.81-.23c.016-.113.02-.227.01-.34v-1.2h.8V21c.023.19.023.38 0 .57Zm-15.08-3H7v-1.68h.84l.08 1.68ZM23 18.09h-.8v-1.68h.8v1.68Zm0-3.36h-.8V13h.8v1.73Zm0-3.37h-.8V9.67h.8v1.69Zm-1.15-3a1.29 1.29 0 0 0-1-.43h-.24v-.84h.24a2.14 2.14 0 0 1 1.6.72l-.6.55ZM19 7.93h-1.67v-.84H19v.84Z"/>
</svg>
