<svg xmlns="http://www.w3.org/2000/svg" width="24" height="24" fill="currentColor" viewBox="0 0 24 24">
  <path d="M19 21.5h-2v-1h2c.142 0 .284-.02.42-.06l.28 1a2.319 2.319 0 0 1-.7.06Zm-4 0h-2v-1h2v1Zm-4 0H9v-1h2v1Zm-4 0H5v-1h2v1Zm-4.1-1.15A2.48 2.48 0 0 1 2.5 19v-.86h1V19c-.002.288.081.57.24.81l-.84.54Zm18.5-.65-1-.28c.054-.134.088-.276.1-.42v-1.43h1V19a2.37 2.37 0 0 1-.1.7ZM3.5 16.14h-1v-2h1v2Zm18-.57h-1v-2h1v2Zm-18-3.43h-1v-2h1v2Zm18-.57h-1v-2h1v2Zm-18-3.43h-1v-2h1v2Zm18-.57h-1v-2h1v2ZM3.63 4.38 2.72 4a2.53 2.53 0 0 1 1.92-1.48l.14 1a1.51 1.51 0 0 0-1.15.86ZM20.13 4A1.49 1.49 0 0 0 19 3.5h-.29v-1H19a2.51 2.51 0 0 1 1.89.86l-.76.64Zm-3.42-.5h-2v-1h2v1Zm-4 0h-2v-1h2v1Zm-4 0h-2v-1h2v1Zm.36 4.05h3.44c.498-.01.997.02 1.49.09.32.047.624.167.89.35.274.184.5.431.66.72a1.9 1.9 0 0 1 .27 1 2 2 0 0 1-.33 1.11 2 2 0 0 1-.88.76c.478.12.903.395 1.21.78.282.37.43.825.42 1.29a2.58 2.58 0 0 1-.24 1.14 2.34 2.34 0 0 1-.75.89 2.43 2.43 0 0 1-1.16.4c-.29 0-1 .05-2.09.06H9.07V7.55ZM10.81 9v2h2.39a1.17 1.17 0 0 0 .7-.31.9.9 0 0 0 .26-.67 1 1 0 0 0-.22-.65 1.07 1.07 0 0 0-.65-.3H11.8L10.81 9Zm0 3.42v2.3h1.6a6.96 6.96 0 0 0 1.19-.06 1 1 0 0 0 .63-.34 1.06 1.06 0 0 0 .25-.73 1.17 1.17 0 0 0-.19-.66 1.08 1.08 0 0 0-.54-.39 6.068 6.068 0 0 0-1.54-.12h-1.4Z"/>
</svg>
