<svg xmlns="http://www.w3.org/2000/svg" width="24" height="24" fill="currentColor" viewBox="0 0 24 24">
  <path d="M19 21.5h-2v-1h2c.142 0 .284-.02.42-.06l.28 1a2.319 2.319 0 0 1-.7.06Zm-4 0h-2v-1h2v1Zm-4 0H9v-1h2v1Zm-4 0H5v-1h2v1Zm-4.1-1.15A2.48 2.48 0 0 1 2.5 19v-.86h1V19c-.002.288.081.57.24.81l-.84.54Zm18.5-.65-1-.28c.054-.134.088-.276.1-.42v-1.43h1V19a2.37 2.37 0 0 1-.1.7ZM3.5 16.14h-1v-2h1v2Zm18-.57h-1v-2h1v2Zm-18-3.43h-1v-2h1v2Zm18-.57h-1v-2h1v2Zm-18-3.43h-1v-2h1v2Zm18-.57h-1v-2h1v2ZM3.63 4.38 2.72 4a2.53 2.53 0 0 1 1.92-1.48l.14 1a1.51 1.51 0 0 0-1.15.86ZM20.13 4A1.49 1.49 0 0 0 19 3.5h-.29v-1H19a2.51 2.51 0 0 1 1.89.86l-.76.64Zm-3.42-.5h-2v-1h2v1Zm-4 0h-2v-1h2v1Zm-4 0h-2v-1h2v1Zm.89 13.37V7.56H16v1.58h-4.5v2.2h3.89v1.58h-3.91v4l-1.88-.05Z"/>
</svg>
