<svg xmlns="http://www.w3.org/2000/svg" width="24" height="24" fill="currentColor" viewBox="0 0 24 24">
  <path d="M12 10.056c-1.42 0-2.575 1.188-2.575 2.651 0 1.463 1.154 2.652 2.575 2.652 1.42 0 2.575-1.189 2.575-2.652S13.421 10.055 12 10.055Zm-.195 1.865a.6.6 0 0 0-.586.603h-.853c.018-.823.658-1.481 1.439-1.481v.878Z"/>
  <path d="M19.814 12.159c-.87-1.116-3.978-4.755-7.814-4.755s-6.943 3.64-7.814 4.755a.9.9 0 0 0 0 1.097C5.056 14.37 8.164 18.01 12 18.01s6.943-3.64 7.814-4.755a.9.9 0 0 0 0-1.097ZM12 16.548c-2.06 0-3.73-1.72-3.73-3.84 0-2.122 1.67-3.841 3.73-3.841s3.73 1.719 3.73 3.84c0 2.122-1.67 3.84-3.73 3.84Z"/>
</svg>
