<svg xmlns="http://www.w3.org/2000/svg" width="24" height="24" fill="currentColor" viewBox="0 0 24 24">
  <g clip-path="url(#a)">
    <path d="M12.73 20.88h2.85v-5.32c0-.2.03-.38.27-.41.22-.03.35.11.35.37v5.38c.49 0 .96 0 1.43-.01.05 0 .12-.16.13-.25v-2.33c0-.3.12-.43.37-.43.19 0 .3.1.3.29v2.68c0 .37-.39.68-.8.68h-7.31c-.25 0-.34-.09-.35-.32 0-.23.12-.31.34-.3h.98c-.3-.34-.54-.62-.79-.9-.14-.15-.18-.31-.15-.53.21-1.24.41-2.49.61-3.73.05-.3.08-.61.16-.91.05-.2-.02-.32-.16-.42-.46.22-.68.14-.91-.32-.26-.52-.52-1.04-.79-1.57-.7.27-1.43.49-2.1.82-.56.27-.91.79-.92 1.43-.02 1.96 0 3.92-.01 5.87 0 .18.06.26.25.26H7.8v-5.37c0-.27.09-.39.31-.39.2 0 .31.14.31.4v5.06c0 .23.06.33.29.29.09-.01.19 0 .28 0 .2 0 .28.11.28.31 0 .19-.08.31-.28.31-.91 0-1.82.01-2.73 0-.36 0-.69-.37-.69-.74 0-2.03-.01-4.05 0-6.08 0-.51.27-.96.6-1.36.44-.54 1.08-.74 1.69-.99.79-.32 1.59-.61 2.38-.92.05-.02.1-.04.12-.08.08-.13 0-.66-.11-.76-.5-.42-.83-.95-.93-1.6-.6-.12-.98-.45-1.1-1.06-.06-.31.06-.56.17-.82.04-.1.09-.21.09-.32.03-.49-.04-.99.07-1.46.3-1.38 1.11-2.34 2.52-2.72 1.4-.38 2.57.02 3.54 1.05.59.63.84 1.41.87 2.27v.53c0 .26.02.5.14.75.2.41.22.86-.09 1.23-.22.27-.47.52-.82.52-.17.37-.31.73-.49 1.06-.11.19-.29.35-.44.52-.12.13-.24.68-.13.8.08.1.24.15.36.2 1.01.4 2.02.78 3.02 1.2.67.28 1.09.82 1.3 1.51.09.28.1.59.11.89.02.57 0 1.13 0 1.7 0 .23-.14.34-.32.34-.15 0-.31-.06-.32-.28 0-.1-.04-.2-.04-.29v-1.72c0-.37-.11-.7-.31-.99-.24-.35-.57-.57-.97-.72-.58-.21-1.16-.44-1.76-.68-.16.34-.33.69-.5 1.04-.12.24-.23.49-.37.71-.17.28-.41.32-.82.14-.15.11-.19.23-.16.42.16.89.3 1.78.44 2.67.11.68.25 1.37.34 2.05.02.13-.06.31-.15.42-.23.3-.49.57-.78.9l.01.03ZM9.91 6.83v.31c0 .53-.04 1.07.01 1.59.06.62.35 1.15.88 1.51.4.27.84.35 1.32.34.87-.03 1.63-.63 1.8-1.48.12-.61.07-1.25.12-1.88.03-.41-.02-.76-.4-1.01-.06-.04-.09-.12-.14-.18-.09-.13-.18-.14-.34-.06-.35.19-.71.36-1.09.5-.69.25-1.4.4-2.17.35l.01.01Zm4.9-.2c.12-1.46-.34-2.57-1.54-3.19-1.1-.58-2.21-.44-3.16.37-.84.72-1.11 1.68-.98 2.82.1-.07.19-.11.22-.17.15-.24.36-.31.64-.32.43-.01.89.02 1.3-.1.58-.17 1.13-.43 1.69-.69.32-.15.59-.14.85.11.13.13.27.25.39.4.14.17.27.36.41.54.05.06.1.12.19.22l-.01.01Zm-3.04 8.31c-.08.47-.16.9-.23 1.33-.16.92-.3 1.84-.47 2.76-.06.33-.11.62.17.89.27.25.5.53.75.8.26-.27.49-.52.73-.76.23-.23.32-.47.23-.8-.1-.33-.14-.69-.2-1.03-.18-1.06-.35-2.11-.53-3.18h-.45v-.01Zm.22-2.2c.3-.37.56-.71.84-1.04.17-.19.18-.38.13-.62-.65.19-1.3.17-1.99.01.03.18 0 .36.08.47.29.4.61.77.94 1.18Zm1.43-.75c-.29.35-.54.68-.81 1-.13.15-.1.25.04.35.23.16.47.31.72.48.25-.51.5-1 .76-1.52-.24-.1-.47-.2-.7-.3l-.01-.01Zm-2.8 1.83c.26-.18.5-.35.74-.52.13-.09.12-.18.03-.29-.28-.33-.55-.67-.84-1.02-.22.1-.45.2-.7.3.26.52.51 1.01.77 1.53Zm.89.18c.14.25.14.26.64.23.12 0 .23-.12.36-.19-.45-.43-.59-.43-1.01-.04h.01ZM9.3 8.29V7.25c-.29.03-.44.21-.45.5 0 .3.15.49.45.54Zm5.35 0c.33-.09.44-.25.43-.55 0-.29-.16-.46-.43-.51v1.06Z"/>
  </g>
  <defs>
    <clipPath id="a">
      <path d="M0 0h24v24H0z"/>
    </clipPath>
  </defs>
</svg>
