<svg xmlns="http://www.w3.org/2000/svg" width="24" height="24" fill="currentColor" viewBox="0 0 24 24">
  <mask id="a" width="24" height="24" x="0" y="0" maskUnits="userSpaceOnUse" style="mask-type:alpha">
    <path d="M0 0h24v24H0z"/>
  </mask>
  <g mask="url(#a)">
    <path d="M15 13c.55 0 1.02-.196 1.413-.588.391-.391.587-.862.587-1.412 0-.55-.196-1.02-.587-1.412A1.926 1.926 0 0 0 15 9c-.55 0-1.02.196-1.412.588A1.926 1.926 0 0 0 13 11c0 .55.196 1.02.588 1.412.391.392.862.588 1.412.588Zm-4 4h8v-.55c0-.75-.367-1.346-1.1-1.787C17.167 14.22 16.2 14 15 14s-2.167.22-2.9.662c-.733.442-1.1 1.038-1.1 1.788V17Zm-7 3c-.55 0-1.02-.196-1.413-.587A1.926 1.926 0 0 1 2 18V6c0-.55.196-1.02.587-1.412A1.926 1.926 0 0 1 4 4h6l2 2h8c.55 0 1.02.196 1.413.588.391.391.587.862.587 1.412v10c0 .55-.196 1.02-.587 1.413A1.926 1.926 0 0 1 20 20H4Z"/>
  </g>
</svg>
