<svg xmlns="http://www.w3.org/2000/svg" width="20" height="20" fill="currentColor" viewBox="0 0 20 20">
  <mask id="a" width="20" height="20" x="0" y="0" maskUnits="userSpaceOnUse" style="mask-type:alpha">
    <path d="M0 0h20v20H0z"/>
  </mask>
  <g mask="url(#a)">
    <path d="M10 18.33a8.063 8.063 0 0 1-3.23-.655 8.452 8.452 0 0 1-2.656-1.792 8.452 8.452 0 0 1-1.791-2.656 8.063 8.063 0 0 1-.656-3.23 7.9 7.9 0 0 1 .677-3.25 8.442 8.442 0 0 1 1.833-2.645A8.733 8.733 0 0 1 6.875 2.32a8.316 8.316 0 0 1 3.291-.656c1.112 0 2.16.191 3.146.573.986.382 1.851.91 2.594 1.583a7.578 7.578 0 0 1 1.77 2.396 6.89 6.89 0 0 1 .657 2.99c0 1.597-.486 2.823-1.458 3.677-.972.854-2.153 1.281-3.542 1.281h-1.542c-.125 0-.211.035-.26.104a.391.391 0 0 0-.073.23c0 .166.104.406.313.718.208.313.312.67.312 1.073 0 .694-.19 1.208-.573 1.542-.382.333-.885.5-1.51.5Zm-4.583-7.5c.36 0 .66-.117.895-.353.236-.236.354-.535.354-.896s-.118-.66-.354-.896a1.214 1.214 0 0 0-.896-.354c-.36 0-.66.118-.895.354a1.214 1.214 0 0 0-.354.896c0 .36.118.66.354.896s.534.354.896.354Zm2.5-3.333c.36 0 .66-.118.895-.354.236-.236.354-.534.354-.896 0-.36-.118-.66-.354-.895a1.214 1.214 0 0 0-.895-.355c-.362 0-.66.118-.896.355a1.214 1.214 0 0 0-.354.895c0 .362.118.66.354.896s.534.354.896.354Zm4.166 0c.361 0 .66-.118.896-.354s.354-.534.354-.896c0-.36-.118-.66-.354-.895a1.214 1.214 0 0 0-.896-.355c-.36 0-.66.118-.896.355a1.214 1.214 0 0 0-.354.895c0 .362.118.66.354.896s.535.354.896.354Zm2.5 3.334c.361 0 .66-.118.896-.354s.354-.535.354-.896-.118-.66-.354-.896a1.214 1.214 0 0 0-.896-.354c-.36 0-.66.118-.896.354a1.214 1.214 0 0 0-.354.896c0 .36.118.66.354.896s.535.354.896.354ZM10 16.664a.432.432 0 0 0 .302-.104.349.349 0 0 0 .114-.27c0-.195-.104-.424-.312-.688-.208-.264-.313-.66-.313-1.188 0-.583.202-1.048.605-1.396.402-.347.895-.52 1.479-.52h1.458c.917 0 1.702-.268 2.354-.803.653-.534.98-1.364.98-2.49 0-1.68-.643-3.08-1.928-4.197C13.455 3.89 11.93 3.33 10.166 3.33c-1.888 0-3.5.646-4.833 1.937-1.333 1.292-2 2.868-2 4.73 0 1.847.65 3.42 1.948 4.718 1.299 1.3 2.872 1.949 4.719 1.949Z"/>
  </g>
</svg>
