<svg xmlns="http://www.w3.org/2000/svg" width="24" height="24" fill="currentColor" viewBox="0 0 24 24">
  <path d="M5 17.216 6.784 19l.63-.63-1.782-1.783-.63.63Zm.001-2.896L9.68 19l.63-.631-4.679-4.68-.63.631ZM5 11.424l7.575 7.575.63-.63-7.575-7.575-.63.63Zm.001-2.896 10.471 10.47.63-.63-10.47-10.47-.63.63Zm13.37 6.722-1.244 1.245-1.153-1.152 3.027-3.027-.63-.63-3.027 3.027-1.152-1.152 3.529-3.53-.63-.63-3.53 3.53-.929-.93 5.105-5.105-.63-.63-5.105 5.105-.93-.93 3.5-3.5-.63-.63-3.5 3.5L9.29 8.66l3.027-3.027-.63-.63L8.66 8.029l-.93-.93 1.468-1.467-.63-.63L7.1 6.469 5.633 5.002l-.63.63L18.37 19l.63-.63-1.244-1.244L19 15.88l-.63-.63Zm.624-9.614-.63-.63-.63.63.63.63.63-.63Z"/>
  <path d="m15.83 5.68-.63-.63-.63.63.63.63.63-.63Zm1.89 3.09.63.63.63-.63-.63-.63-.63.63Z"/>
</svg>
