<svg width="32" height="32" viewBox="0 0 32 32" fill="none" xmlns="http://www.w3.org/2000/svg">
<path d="M13.2846 15.2941C11.733 15.2941 10.4047 14.7412 9.29975 13.6353C8.19479 12.5294 7.64232 11.2 7.64232 9.64706C7.64232 8.09412 8.19479 6.76471 9.29975 5.65882C10.4047 4.55294 11.733 4 13.2846 4C14.8363 4 16.1646 4.55294 17.2695 5.65882C18.3745 6.76471 18.927 8.09412 18.927 9.64706C18.927 11.2 18.3745 12.5294 17.2695 13.6353C16.1646 14.7412 14.8363 15.2941 13.2846 15.2941ZM2 26.5882V22.6353C2 21.8588 2.19983 21.1294 2.5995 20.4471C2.99916 19.7647 3.55164 19.2471 4.25693 18.8941C5.45592 18.2824 6.80772 17.7647 8.31234 17.3412C9.81696 16.9176 11.4744 16.7059 13.2846 16.7059H13.7783C13.9194 16.7059 14.0605 16.7294 14.2015 16.7765C14.0134 17.2 13.8547 17.6412 13.7254 18.1C13.5961 18.5588 13.4962 19.0353 13.4257 19.5294H13.2846C11.6154 19.5294 10.1167 19.7412 8.78841 20.1647C7.46012 20.5882 6.3728 21.0118 5.52645 21.4353C5.31486 21.5529 5.14442 21.7176 5.01511 21.9294C4.88581 22.1412 4.82116 22.3765 4.82116 22.6353V23.7647H13.7078C13.8489 24.2588 14.0369 24.7471 14.272 25.2294C14.5071 25.7118 14.7657 26.1647 15.0479 26.5882H2ZM21.7481 28L21.3249 25.8824C21.0428 25.7647 20.7783 25.6412 20.5315 25.5118C20.2846 25.3824 20.0319 25.2235 19.7733 25.0353L17.728 25.6706L16.3174 23.2706L17.9395 21.8588C17.8925 21.5294 17.869 21.2235 17.869 20.9412C17.869 20.6588 17.8925 20.3529 17.9395 20.0235L16.3174 18.6118L17.728 16.2118L19.7733 16.8471C20.0319 16.6588 20.2846 16.5 20.5315 16.3706C20.7783 16.2412 21.0428 16.1176 21.3249 16L21.7481 13.8824H24.5693L24.9924 16C25.2746 16.1176 25.539 16.2471 25.7859 16.3882C26.0327 16.5294 26.2855 16.7059 26.5441 16.9176L28.5894 16.2118L30 18.6824L28.3778 20.0941C28.4249 20.3765 28.4484 20.6706 28.4484 20.9765C28.4484 21.2824 28.4249 21.5765 28.3778 21.8588L30 23.2706L28.5894 25.6706L26.5441 25.0353C26.2855 25.2235 26.0327 25.3824 25.7859 25.5118C25.539 25.6412 25.2746 25.7647 24.9924 25.8824L24.5693 28H21.7481ZM23.1587 23.7647C23.9345 23.7647 24.5987 23.4882 25.1511 22.9353C25.7036 22.3824 25.9798 21.7176 25.9798 20.9412C25.9798 20.1647 25.7036 19.5 25.1511 18.9471C24.5987 18.3941 23.9345 18.1176 23.1587 18.1176C22.3829 18.1176 21.7187 18.3941 21.1662 18.9471C20.6138 19.5 20.3375 20.1647 20.3375 20.9412C20.3375 21.7176 20.6138 22.3824 21.1662 22.9353C21.7187 23.4882 22.3829 23.7647 23.1587 23.7647ZM13.2846 12.4706C14.0605 12.4706 14.7246 12.1941 15.2771 11.6412C15.8296 11.0882 16.1058 10.4235 16.1058 9.64706C16.1058 8.87059 15.8296 8.20588 15.2771 7.65294C14.7246 7.1 14.0605 6.82353 13.2846 6.82353C12.5088 6.82353 11.8447 7.1 11.2922 7.65294C10.7397 8.20588 10.4635 8.87059 10.4635 9.64706C10.4635 10.4235 10.7397 11.0882 11.2922 11.6412C11.8447 12.1941 12.5088 12.4706 13.2846 12.4706Z" fill="#2B2C2C"/>
</svg>
