<svg width="48" height="48" viewBox="0 0 48 48" fill="currentColor" xmlns="http://www.w3.org/2000/svg">
<path d="M24 36.1002C26.75 36.1002 29.0875 35.1377 31.0125 33.2127C32.9375 31.2877 33.9 28.9502 33.9 26.2002C33.9 23.4502 32.9375 21.1127 31.0125 19.1877C29.0875 17.2627 26.75 16.3002 24 16.3002C21.25 16.3002 18.9125 17.2627 16.9875 19.1877C15.0625 21.1127 14.1 23.4502 14.1 26.2002C14.1 28.9502 15.0625 31.2877 16.9875 33.2127C18.9125 35.1377 21.25 36.1002 24 36.1002ZM24 31.7002C22.46 31.7002 21.1583 31.1685 20.095 30.1052C19.0317 29.0419 18.5 27.7402 18.5 26.2002C18.5 24.6602 19.0317 23.3585 20.095 22.2952C21.1583 21.2319 22.46 20.7002 24 20.7002C25.54 20.7002 26.8417 21.2319 27.905 22.2952C28.9683 23.3585 29.5 24.6602 29.5 26.2002C29.5 27.7402 28.9683 29.0419 27.905 30.1052C26.8417 31.1685 25.54 31.7002 24 31.7002ZM6.4 43.8002C5.19 43.8002 4.15417 43.3694 3.2925 42.5077C2.43083 41.646 2 40.6102 2 39.4002V13.0002C2 11.7902 2.43083 10.7544 3.2925 9.89269C4.15417 9.03103 5.19 8.60019 6.4 8.60019H13.33L17.4 4.2002H30.6L34.67 8.60019H41.6C42.81 8.60019 43.8458 9.03103 44.7075 9.89269C45.5692 10.7544 46 11.7902 46 13.0002V39.4002C46 40.6102 45.5692 41.646 44.7075 42.5077C43.8458 43.3694 42.81 43.8002 41.6 43.8002H6.4ZM6.4 39.4002H41.6V13.0002H32.69L28.675 8.60019H19.325L15.31 13.0002H6.4V39.4002Z" fill="currentColor"/>
</svg>
