<svg width="26" height="26" viewBox="0 0 26 26" fill="currentColor" xmlns="http://www.w3.org/2000/svg">
<path d="M4.33333 20.2227H21.6667L16.25 13.0005L11.9167 18.7783L8.66667 14.4449L4.33333 20.2227ZM0 26.0005V0.000488281H26V26.0005H0ZM2.88889 23.1116H23.1111V2.88938H2.88889V23.1116ZM7.94444 10.1116C8.5463 10.1116 9.05811 9.90119 9.47989 9.48038C9.90167 9.05956 10.1121 8.54775 10.1111 7.94493C10.1101 7.34212 9.89974 6.83078 9.47989 6.41093C9.06004 5.99108 8.54822 5.78019 7.94444 5.77827C7.34067 5.77634 6.82933 5.98723 6.41044 6.41093C5.99156 6.83464 5.78067 7.34597 5.77778 7.94493C5.77489 8.5439 5.98578 9.05571 6.41044 9.48038C6.83511 9.90504 7.34644 10.1155 7.94444 10.1116Z" fill="currentColor"/>
</svg>
