<svg xmlns="http://www.w3.org/2000/svg" width="24" height="24" fill="currentColor" viewBox="0 0 24 24">
  <g clip-path="url(#a)">
    <path d="m19 14.323-2.032-2.905V3.663a1.58 1.58 0 0 0-.502-1.174A1.663 1.663 0 0 0 15.262 2H8.713c-.436 0-.813.142-1.129.43-.316.284-.492.621-.527 1.013v7.995L5 14.323v1.662h6.197v5.184l.853.831.853-.831v-5.184H19v-1.662Zm-11.867 0 1.58-2.347V3.663h6.549v8.298l1.6 2.362h-9.73Z"/>
  </g>
  <defs>
    <clipPath id="a">
      <path d="M0 0h24v24H0z"/>
    </clipPath>
  </defs>
</svg>
