<svg xmlns="http://www.w3.org/2000/svg" width="24" height="24" fill="currentColor" viewBox="0 0 24 24">
  <path d="M6.5 7.425V3.8h11v3.625h-11ZM17.8 12.3a.968.968 0 0 0 .713-.288.967.967 0 0 0 .287-.712.97.97 0 0 0-.287-.713.97.97 0 0 0-.713-.287.97.97 0 0 0-.713.287.97.97 0 0 0-.287.713c0 .283.096.52.287.712.192.192.43.288.713.288ZM8 19h8v-4.275H8V19Zm-1.5 1.5v-4H2.8v-5.7c0-.7.242-1.292.725-1.775C4.008 8.542 4.6 8.3 5.3 8.3h13.4c.717 0 1.313.242 1.788.725.475.483.712 1.075.712 1.775v5.7h-3.7v4h-11Z"/>
</svg>
