<svg width="32" height="32" viewBox="0 0 32 32" fill="currentColor" xmlns="http://www.w3.org/2000/svg">
<path d="M27.9977 30L24.1243 26.1221C23.0739 26.8232 21.9414 27.3599 20.7268 27.7324C19.5123 28.1049 18.2267 28.2911 16.8699 28.2911C15.0535 28.2911 13.3466 27.946 11.7491 27.2559C10.1516 26.5657 8.76202 25.6291 7.5803 24.446C6.39859 23.2629 5.46307 21.8717 4.77374 20.2723C4.08441 18.6729 3.73974 16.964 3.73974 15.1455C3.73974 13.7872 3.92575 12.5 4.29777 11.284C4.66979 10.0681 5.20594 8.93427 5.90621 7.88263L2 3.97183L3.87104 2.09859L29.8687 28.1268L27.9977 30ZM15.5569 25.5962V23.0329C14.8347 23.0329 14.2165 22.7754 13.7022 22.2606C13.188 21.7457 12.9308 21.1268 12.9308 20.4038V19.0892L6.62837 12.7793C6.56272 13.1737 6.50254 13.5681 6.44783 13.9624C6.39312 14.3568 6.36577 14.7512 6.36577 15.1455C6.36577 17.7966 7.23564 20.1189 8.97538 22.1127C10.7151 24.1064 12.9089 25.2676 15.5569 25.5962ZM27.8335 22.3427L25.9297 20.4366C26.3892 19.626 26.7448 18.777 26.9965 17.8897C27.2481 17.0023 27.374 16.0876 27.374 15.1455C27.374 12.9984 26.7776 11.0376 25.585 9.26291C24.3923 7.48826 22.8003 6.20657 20.8089 5.41784V5.94366C20.8089 6.66667 20.5518 7.2856 20.0375 7.80047C19.5233 8.31534 18.905 8.57277 18.1829 8.57277H15.5569V10.0516L9.68113 4.16901C10.7315 3.48983 11.8585 2.95853 13.0621 2.57512C14.2657 2.19171 15.535 2 16.8699 2C18.6862 2 20.3931 2.34507 21.9906 3.03521C23.5881 3.72535 24.9777 4.66197 26.1594 5.84507C27.3411 7.02817 28.2767 8.41941 28.966 10.0188C29.6553 11.6182 30 13.3271 30 15.1455C30 16.482 29.8085 17.7527 29.4256 18.9577C29.0426 20.1628 28.5119 21.2911 27.8335 22.3427Z" fill="currentColor"/>
</svg>
