<svg xmlns="http://www.w3.org/2000/svg" width="24" height="24" fill="currentColor" viewBox="0 0 24 24">
  <g clip-path="url(#a)">
    <path d="M12 21.52H7.27c-.62 0-.7-.09-.7-.72v-7.92c0-.05 0-.11-.05-.14-.07-.04-.11.02-.16.06-.13.12-.25.26-.39.37-.22.19-.46.16-.61-.08-.71-1.1-1.41-2.21-2.1-3.32-.2-.33-.15-.49.17-.7.45-.29.91-.58 1.36-.87.49-.31 1-.6 1.48-.93.39-.27.82-.41 1.28-.49.67-.12 1.33-.27 1.99-.39.67-.12 1.3-.38 1.94-.59.14-.05.18-.14.18-.28v-.64c0-.35.07-.43.41-.5.26-.05.48-.25.51-.48.04-.29-.07-.51-.31-.64-.25-.13-.46-.05-.67.11-.13.1-.15.25-.18.39-.07.27-.2.39-.41.36-.21-.03-.3-.18-.27-.47.06-.56.38-.92.91-1.1.49-.16.93-.03 1.28.32.4.4.49.89.28 1.42-.11.28-.3.51-.58.63-.34.14-.23.42-.24.66-.01.23.19.24.33.29 1.13.43 2.3.69 3.49.84.9.12 1.56.6 2.24 1.11.73.54 1.47 1.07 2.2 1.61.26.19.32.4.13.66-.7 1.01-1.42 2.02-2.13 3.03-.16.22-.33.25-.55.09-.17-.11-.33-.25-.49-.37-.12-.09-.17-.05-.17.08v8.15c-.02.36-.13.46-.5.46h-4.91l-.03-.01Zm.01-.68h4.3c.39 0 .39 0 .39-.38v-8.54c.04-.31.33-.45.58-.27.24.17.45.36.68.55.28.22.3.23.5-.06.48-.69.95-1.38 1.44-2.07.13-.18.09-.27-.08-.39-.73-.52-1.44-1.05-2.16-1.57-.29-.21-.55-.49-.91-.57-.77-.17-1.55-.3-2.32-.46-.15-.03-.23 0-.28.17-.09.34-.27.63-.52.9-1.16 1.23-3.24.78-3.76-.82-.07-.22-.17-.28-.39-.24-.68.15-1.36.28-2.04.41-.24.05-.45.13-.66.26-.83.54-1.66 1.06-2.5 1.59-.32.2-.33.24-.13.55l1.44 2.25c.13.21.18.22.37.04.23-.21.46-.44.7-.64.27-.22.58-.1.64.25.02.11.01.22.01.33v8.28c0 .273.14.41.42.41H12l.01.02ZM12 8.14c.61.05 1.23-.4 1.45-1.02.06-.16.03-.27-.14-.32l-1.2-.39c-.16-.05-.31 0-.45.05-.31.1-.61.22-.92.31-.23.07-.25.19-.18.39.24.61.78.97 1.44.97v.01Z"/>
  </g>
  <defs>
    <clipPath id="a">
      <path d="M0 0h24v24H0z"/>
    </clipPath>
  </defs>
</svg>
