<svg xmlns="http://www.w3.org/2000/svg" width="24" height="24" fill="currentColor" viewBox="0 0 24 24">
  <path d="M14.318 3.315a8.284 8.284 0 0 1 2.16.898 9.622 9.622 0 0 1 1.867 1.439 9.61 9.61 0 0 1 1.44 1.865 9.11 9.11 0 0 1 .9 2.157A9.12 9.12 0 0 1 21 12.012c0 .359-.022.741-.067 1.1 0 .046-.023.09-.023.136a7.586 7.586 0 0 1-.225 1.078 9.11 9.11 0 0 1-.9 2.157 9.61 9.61 0 0 1-1.44 1.866l-2.07-2.068a6.165 6.165 0 0 0 1.665-3.1 6.222 6.222 0 0 0-.337-3.507 6.113 6.113 0 0 0-2.228-2.719c-.99-.674-2.182-1.01-3.375-1.01V3c.36 0 .72.022 1.103.067.045 0 .112.023.157.023.36.045.72.135 1.058.225ZM7.702 16.28l-2.07 2.068A8.987 8.987 0 0 0 7.5 19.787l1.462-2.54a5.36 5.36 0 0 1-1.26-.966Zm3.488 1.731a8.16 8.16 0 0 1-.787-.157l-.766 2.832c.383.09.765.18 1.148.224.405.045.787.068 1.17.09v-2.92c-.225-.023-.495-.045-.765-.068Zm2.362-.157a5.584 5.584 0 0 0 1.463-.607l1.462 2.54a9.136 9.136 0 0 1-2.16.899l-.765-2.832Zm-7.425-4.292a5.57 5.57 0 0 0 .607 1.46l-2.542 1.461a9.115 9.115 0 0 1-.9-2.157l2.835-.764ZM8.962 6.73a5.54 5.54 0 0 1 1.463-.606L9.66 3.292a9.138 9.138 0 0 0-2.16.899l1.462 2.54Zm-1.26.967a5.865 5.865 0 0 0-.967 1.258l-2.543-1.46a9.613 9.613 0 0 1 1.44-1.866l2.07 2.068ZM3.067 10.82c.045-.404.135-.786.225-1.146l2.835.742c-.067.247-.112.517-.157.786-.045.27-.045.54-.045.787H3c0-.382.022-.787.067-1.169Z"/>
</svg>
