<svg width="32" height="32" viewBox="0 0 32 32" fill="currentColor" xmlns="http://www.w3.org/2000/svg">
<path d="M16 30C14.0633 30 12.2433 29.6325 10.54 28.8975C8.83667 28.1625 7.355 27.165 6.095 25.905C4.835 24.645 3.8375 23.1633 3.1025 21.46C2.3675 19.7567 2 17.9367 2 16C2 14.0633 2.3675 12.2433 3.1025 10.54C3.8375 8.83667 4.835 7.355 6.095 6.095C7.355 4.835 8.83667 3.8375 10.54 3.1025C12.2433 2.3675 14.0633 2 16 2C17.9367 2 19.7567 2.3675 21.46 3.1025C23.1633 3.8375 24.645 4.835 25.905 6.095C27.165 7.355 28.1625 8.83667 28.8975 10.54C29.6325 12.2433 30 14.0633 30 16C30 17.9367 29.6325 19.7567 28.8975 21.46C28.1625 23.1633 27.165 24.645 25.905 25.905C24.645 27.165 23.1633 28.1625 21.46 28.8975C19.7567 29.6325 17.9367 30 16 30ZM14.6 27.13V24.4C13.83 24.4 13.1708 24.1258 12.6225 23.5775C12.0742 23.0292 11.8 22.37 11.8 21.6V20.2L5.08 13.48C5.01 13.9 4.94583 14.32 4.8875 14.74C4.82917 15.16 4.8 15.58 4.8 16C4.8 18.8233 5.7275 21.2967 7.5825 23.42C9.4375 25.5433 11.7767 26.78 14.6 27.13ZM24.26 23.56C24.7267 23.0467 25.1467 22.4925 25.52 21.8975C25.8933 21.3025 26.2025 20.6842 26.4475 20.0425C26.6925 19.4008 26.8792 18.7417 27.0075 18.065C27.1358 17.3883 27.2 16.7 27.2 16C27.2 13.7133 26.5642 11.625 25.2925 9.735C24.0208 7.845 22.3233 6.48 20.2 5.64V6.2C20.2 6.97 19.9258 7.62917 19.3775 8.1775C18.8292 8.72583 18.17 9 17.4 9H14.6V11.8C14.6 12.1967 14.4658 12.5292 14.1975 12.7975C13.9292 13.0658 13.5967 13.2 13.2 13.2H10.4V16H18.8C19.1967 16 19.5292 16.1342 19.7975 16.4025C20.0658 16.6708 20.2 17.0033 20.2 17.4V21.6H21.6C22.2067 21.6 22.755 21.7808 23.245 22.1425C23.735 22.5042 24.0733 22.9767 24.26 23.56Z" fill="currentColor"/>
</svg>
