<svg width="24" height="24" viewBox="0 0 24 24" fill="currentColor" xmlns="http://www.w3.org/2000/svg">
<path d="M12 10.5C12.2633 10.5 12.51 10.4805 12.75 10.4543V16.4062C12.5153 16.4602 12.2723 16.5007 12 16.5007C11.7277 16.5007 11.4847 16.4602 11.25 16.4062V10.4543C11.49 10.4805 11.7367 10.5 12 10.5ZM3 16.5H5.25V15H3V16.5ZM18.75 6V7.5H21V6H18.75ZM7.5 3H6V9.7995C6.55125 9.86625 7.04475 10.005 7.5 10.1745V3ZM18 3H16.5V10.1745C16.9552 10.005 17.4487 9.86625 18 9.7995V3ZM15 9.04725V7.24875C14.055 7.7895 13.227 8.25 12 8.25C10.773 8.25 9.945 7.7895 9 7.24875V9.04725C9.822 9.438 10.7745 9.75 12 9.75C13.2255 9.75 14.178 9.438 15 9.04725ZM12.75 7.4055V3H11.25V7.4055C11.4847 7.4595 11.7277 7.5 12 7.5C12.2723 7.5 12.5153 7.4595 12.75 7.4055ZM5.25 6H3V7.5H5.25V6ZM18.75 16.5H21V15H18.75V16.5ZM16.5 13.596V21H18V12.8737C17.5485 13.0095 17.109 13.2487 16.5458 13.5712C16.5315 13.5795 16.5142 13.5878 16.5 13.596ZM15.0555 11.7172C14.6528 11.9482 14.2718 12.1628 13.875 12.3383V13.9838C14.7697 13.7213 15.4995 13.305 16.173 12.9195C17.0707 12.405 17.781 11.9992 18.75 11.9992H21V10.4992H18.75C17.1825 10.4992 16.0522 11.1458 15.0555 11.7165V11.7172ZM6 12.8737V21H7.5V13.596C7.48575 13.5878 7.4685 13.5795 7.45425 13.5712C6.89025 13.2487 6.45075 13.0095 6 12.8737ZM10.125 12.3383C9.72825 12.1628 9.34725 11.9482 8.9445 11.7172C7.94775 11.1465 6.8175 10.5 5.25 10.5H3V12H5.25C6.219 12 6.92925 12.4058 7.827 12.9202C8.5005 13.3057 9.23025 13.722 10.125 13.9845V12.3383ZM11.25 19.4543V21H12.75V19.4543C12.51 19.4805 12.2633 19.5 12 19.5C11.7367 19.5 11.49 19.4805 11.25 19.4543ZM9 16.2488V18.0472C9.822 18.438 10.7745 18.75 12 18.75C13.2255 18.75 14.178 18.438 15 18.0472V16.2488C14.055 16.7895 13.227 17.25 12 17.25C10.773 17.25 9.945 16.7895 9 16.2488Z" fill="currentColor"/>
</svg>
