<svg width="88" height="88" viewBox="0 0 88 88" fill="currentColor" xmlns="http://www.w3.org/2000/svg">
<path d="M0 44C0 19.6995 19.6995 0 44 0C68.3005 0 88 19.6995 88 44C88 68.3005 68.3005 88 44 88C19.6995 88 0 68.3005 0 44Z" fill="#EBF1FF"/>
<path d="M30.0001 62L26.0001 38H56.0001L55.0001 42H30.8001L33.3401 58H54.0001V62H30.0001ZM40.0001 50H48.0001C48.5667 50 49.0417 49.8083 49.4251 49.425C49.8084 49.0417 50.0001 48.5667 50.0001 48C50.0001 47.4333 49.8084 46.9583 49.4251 46.575C49.0417 46.1917 48.5667 46 48.0001 46H40.0001C39.4334 46 38.9584 46.1917 38.5751 46.575C38.1917 46.9583 38.0001 47.4333 38.0001 48C38.0001 48.5667 38.1917 49.0417 38.5751 49.425C38.9584 49.8083 39.4334 50 40.0001 50ZM32.0001 36C31.4334 36 30.9584 35.8083 30.5751 35.425C30.1917 35.0417 30.0001 34.5667 30.0001 34C30.0001 33.4333 30.1917 32.9583 30.5751 32.575C30.9584 32.1917 31.4334 32 32.0001 32H56.0001C56.5667 32 57.0417 32.1917 57.4251 32.575C57.8084 32.9583 58.0001 33.4333 58.0001 34C58.0001 34.5667 57.8084 35.0417 57.4251 35.425C57.0417 35.8083 56.5667 36 56.0001 36H32.0001ZM36.0001 30C35.4334 30 34.9584 29.8083 34.5751 29.425C34.1917 29.0417 34.0001 28.5667 34.0001 28C34.0001 27.4333 34.1917 26.9583 34.5751 26.575C34.9584 26.1917 35.4334 26 36.0001 26H52.0001C52.5667 26 53.0417 26.1917 53.4251 26.575C53.8084 26.9583 54.0001 27.4333 54.0001 28C54.0001 28.5667 53.8084 29.0417 53.4251 29.425C53.0417 29.8083 52.5667 30 52.0001 30H36.0001Z" fill="#4052C7"/>
<path d="M60.0001 62C59.4334 62 58.9584 61.8083 58.5751 61.425C58.1917 61.0417 58.0001 60.5667 58.0001 60C58.0001 59.4333 58.1917 58.9583 58.5751 58.575C58.9584 58.1917 59.4334 58 60.0001 58C60.5667 58 61.0417 58.1917 61.4251 58.575C61.8084 58.9583 62.0001 59.4333 62.0001 60C62.0001 60.5667 61.8084 61.0417 61.4251 61.425C61.0417 61.8083 60.5667 62 60.0001 62ZM58.0001 54V42H62.0001V54H58.0001Z" fill="#4052C7"/>
</svg>
