<svg xmlns="http://www.w3.org/2000/svg" width="24" height="24" fill="currentColor" viewBox="0 0 24 24">
  <g clip-path="url(#a)">
    <path d="M13.56 14.68c.07 0 .15-.02.22-.03.65-.02 1.09.3 1.38.86.16.32.25.65.31 1 .03.2.09.4.19.58.16.3.45.42.79.43.29.01.57-.04.85-.12.1-.03.1-.08.06-.17-.2-.38-.24-.77-.09-1.18.16-.44.55-.67 1.01-.57.17.04.34.09.49.17.21.1.3.31.38.51.14.36.03.67-.22.94-.05.05-.11.1-.16.15-.03.03-.05.07-.07.11.04.01.08.04.12.04.45.01.9.01 1.35.03.47.02.93.09 1.37.27.65.28 1.1.78 1.38 1.42.06.13.1.26.15.39.05.14-.02.29-.15.34-.13.06-.28 0-.35-.14-.09-.19-.16-.38-.25-.56-.31-.6-.8-.98-1.47-1.09-.37-.06-.75-.08-1.13-.1-.34-.02-.67 0-1.01-.03-.23-.02-.45-.09-.68-.13a.49.49 0 0 0-.21.01c-.46.16-.93.28-1.43.25-.69-.04-1.21-.49-1.37-1.15-.07-.3-.14-.61-.22-.91-.03-.1-.08-.2-.13-.3-.28-.48-.66-.62-1.21-.44-.4.13-.73.36-1.04.64-.63.57-1.34 1-2.15 1.28-.36.13-.74.24-1.11.32-.59.12-1.19.15-1.79.1-1.37-.12-2.61-.6-3.69-1.45-.85-.67-1.49-1.5-1.96-2.47-.29-.61-.48-1.25-.57-1.91-.08-.57-.09-1.14-.03-1.71.08-.75.27-1.47.59-2.15a6.797 6.797 0 0 1 3.03-3.17c.58-.31 1.19-.52 1.83-.65.47-.1.94-.14 1.41-.13 1.37.02 2.63.42 3.77 1.19.52.35.98.77 1.39 1.26a6.8 6.8 0 0 1 1.07 1.74c.13.31.22.63.31.96.08.28.15.57.17.86.03.4.12.8.03 1.2-.04.19-.04.39-.06.59-.04.42-.15.83-.28 1.22-.18.54-.43 1.05-.74 1.53-.03.05-.05.1-.08.15 0 .01.01.02.02.03l-.02-.01ZM1.62 10.77c0 .56.08 1.13.23 1.68.21.76.55 1.45 1.02 2.08.02.03.06.05.09.07.02-.03.05-.07.06-.1l.12-.61c.21-1.02.54-1.99 1.01-2.92.07-.14.06-.24 0-.38-.35-.69-.63-1.41-.82-2.16-.11-.45-.2-.91-.3-1.36 0-.04-.04-.07-.05-.11-.03.02-.07.04-.09.08-.07.09-.14.19-.21.29a6.271 6.271 0 0 0-1.04 3.45l-.02-.01Zm3.84-1.96-.03-.1c-.37-1.04-.59-2.1-.63-3.21 0-.13-.04-.16-.15-.07-.35.26-.7.53-1.04.79-.1.07-.12.16-.11.28.08.66.2 1.32.41 1.95.17.54.39 1.06.59 1.59.01.03.05.06.07.08.03-.02.06-.05.08-.08l.75-1.11c.03-.04.05-.08.07-.12h-.01Zm-2 6.3c.04.07.06.14.11.18.32.32.69.59 1.07.83.13.08.16.07.16-.08.05-1.09.26-2.15.63-3.17.03-.09.02-.15-.03-.23l-.72-1.05c-.04-.05-.08-.1-.12-.14-.03.05-.08.1-.1.16-.27.6-.5 1.22-.65 1.86-.13.55-.23 1.11-.35 1.67v-.03Zm5.07-8.43s.01.06.02.07c.13.38.25.77.38 1.15.03.1.1.08.16.03.92-.68 1.91-1.2 3-1.57.13-.04.14-.08.04-.18-.33-.31-.7-.57-1.09-.81a.216.216 0 0 0-.22-.01c-.21.1-.42.19-.63.29-.55.26-1.07.56-1.56.91-.05.03-.08.08-.11.11l.01.01Zm2.4 9.54s.08-.03.11-.05c.39-.22.75-.49 1.08-.79.11-.1.1-.14-.04-.19-.6-.21-1.2-.44-1.75-.77-.43-.25-.84-.53-1.25-.8-.08-.05-.13-.05-.16.04-.12.37-.24.73-.37 1.1-.04.11 0 .17.09.23.63.44 1.29.8 1.99 1.11l.3.12Zm3.19-6.19h-.01c-.02-.11-.05-.22-.06-.33-.02-.16-.04-.18-.2-.15-.91.2-1.75.59-2.51 1.13-.11.08-.12.12 0 .19.39.23.78.49 1.2.68.43.19.9.31 1.35.46.1.03.15-.01.16-.12 0-.05 0-.09.01-.14.03-.21.07-.41.08-.61 0-.37-.01-.74-.02-1.11Zm-1.48 4.75s.09-.05.12-.09c.16-.23.32-.45.48-.68.09-.13.07-.16-.08-.2-.01 0-.03 0-.04-.01a8.78 8.78 0 0 1-1.51-.55c-.58-.28-1.14-.61-1.65-1.01-.12-.09-.14-.09-.22.03a8.8 8.8 0 0 0-.42.64c-.08.13-.07.15.05.25.88.66 1.84 1.17 2.89 1.52.12.04.24.07.38.11v-.01Zm0-8c-.06.01-.1.02-.14.04-.35.13-.7.24-1.04.38-.76.31-1.46.74-2.12 1.23-.08.06-.1.13-.04.21.14.21.28.43.42.64.09.14.11.13.25.03.27-.19.53-.38.81-.56.75-.46 1.55-.8 2.4-1.02.12-.03.14-.07.07-.17-.17-.25-.34-.49-.51-.73-.02-.03-.06-.05-.09-.07l-.01.02Zm-6.72 6.5h-.06c-.04.11-.08.22-.11.33-.09.37-.17.74-.25 1.11-.11.54-.15 1.09-.16 1.65 0 .08.03.14.11.17.25.09.49.18.74.26.23.07.23.06.22-.18-.01-.8.08-1.58.27-2.35a.22.22 0 0 0-.06-.22c-.19-.2-.39-.4-.58-.6-.05-.05-.09-.11-.14-.17h.02Zm.51-7.92v-.49c0-.13-.04-.16-.16-.12-.25.08-.49.16-.73.25-.18.06-.19.07-.18.27.01.99.18 1.95.47 2.9.04.13.08.13.17.04.22-.23.43-.46.65-.68.07-.07.08-.14.06-.23-.17-.65-.25-1.31-.27-1.92l-.01-.02Zm7.11 2.85s-.06.01-.08.02c-.58.15-1.14.34-1.68.6-.52.25-1.01.55-1.47.9-.12.09-.12.13-.01.23.12.12.24.23.35.35.08.08.14.09.24.02.58-.43 1.2-.78 1.88-1.02.32-.12.66-.2.99-.3.07-.02.13-.05.1-.14-.07-.19-.14-.38-.21-.56-.02-.04-.07-.07-.09-.1h-.02Zm.31 4.47c0-.11-.05-.12-.12-.14-.3-.09-.61-.16-.9-.27-.7-.25-1.35-.61-1.95-1.05-.09-.06-.15-.06-.22.01-.12.12-.25.24-.37.37-.1.11-.1.12.02.22.02.01.04.03.05.04.87.66 1.83 1.12 2.88 1.41.39.11.32.16.48-.24.05-.12.09-.25.13-.34v-.01Zm-7.41-1.9s-.02-.06-.04-.09c-.2-.38-.41-.75-.61-1.13-.06-.11-.1-.12-.17-.01-.24.37-.47.75-.7 1.12-.05.08-.05.15 0 .23l.72 1.14c.06.09.09.08.14-.01.2-.38.41-.75.61-1.13.02-.03.03-.07.05-.11v-.01Zm.54-5.52c0 .54.06 1.07.18 1.59.03.11.06.13.14.07.18-.14.36-.28.53-.43.04-.04.06-.12.07-.18 0-.09-.03-.18-.04-.28-.02-.45-.04-.9-.05-1.36 0-.09-.03-.14-.13-.13-.19.02-.38.04-.58.05-.1 0-.13.05-.13.14v.53h.01ZM7.44 17c.08 0 .15.02.23.02.12.01.14 0 .14-.13-.03-.54 0-1.07.09-1.6.02-.1-.01-.18-.1-.24-.15-.11-.3-.23-.44-.35-.14-.11-.17-.1-.21.07-.15.67-.19 1.35-.17 2.04 0 .14.05.18.18.19h.28ZM6.12 8.94s.02.07.03.09l.57 1.14c.04.08.09.08.15.01.2-.24.39-.49.58-.73.03-.03.03-.11 0-.15-.16-.38-.34-.75-.5-1.13-.05-.11-.08-.12-.16-.03-.21.23-.42.47-.63.7-.03.03-.04.07-.06.11l.02-.01Zm0 3.69s.03.07.05.1c.21.24.42.48.63.71.08.09.11.08.16-.03.16-.37.33-.74.5-1.11.04-.08.03-.13-.02-.2-.19-.23-.37-.46-.56-.7-.07-.09-.11-.09-.17.02-.19.37-.38.74-.56 1.12l-.03.09Zm2.22 3.74h.01v.39c0 .24.03.26.27.24h.05c.24-.05.48-.08.72-.15.26-.07.51-.15.76-.24.02 0 .05-.04.06-.06 0-.02-.02-.04-.04-.06-.02-.02-.05-.02-.07-.04-.52-.29-1.04-.58-1.55-.87-.09-.05-.12-.05-.13.06l-.06.73h-.02Zm1.92-11.35c-.06-.04-.09-.06-.12-.07-.23-.08-.46-.16-.69-.22-.32-.07-.65-.12-.98-.17-.08-.01-.11.04-.1.1.01.42.02.83.04 1.25 0 .12.04.13.15.07.48-.27.95-.54 1.43-.81.08-.05.16-.08.28-.14l-.01-.01Zm-2.89 8.92s.04.08.07.1c.17.14.33.29.5.43.08.07.1.05.14-.05.14-.37.27-.75.42-1.12.03-.08.03-.13-.03-.19l-.45-.42c-.08-.08-.12-.07-.16.03-.11.25-.22.51-.33.77-.06.14-.1.29-.16.44v.01Zm0-6.31s.01.06.02.08c.15.38.31.76.47 1.15.03.08.09.08.15.02l.46-.43c.05-.05.06-.1.04-.18l-.42-1.11c-.04-.1-.07-.12-.16-.05-.16.13-.32.27-.48.41-.03.03-.05.08-.07.11h-.01Zm.44 4.02s.05-.04.06-.06c.18-.24.36-.48.53-.73a.22.22 0 0 0 0-.16c-.17-.24-.35-.48-.52-.72-.05-.07-.09-.06-.14 0-.19.24-.38.48-.56.73-.03.04-.03.13 0 .16.18.25.37.49.56.73.02.02.05.04.07.06v-.01Zm1.58-1.87s-.02-.06-.03-.07l-.5-.74c-.04-.05-.08-.07-.12-.02-.16.15-.32.29-.47.45-.03.03-.04.12-.02.15.16.25.34.49.51.73.04.06.09.06.14 0l.41-.41c.03-.03.05-.07.07-.1l.01.01Zm0 2.02s-.03-.06-.06-.08c-.14-.14-.29-.28-.43-.42-.06-.06-.1-.06-.15 0-.17.24-.34.48-.5.72-.05.07-.03.12.03.17.15.14.29.28.44.41.06.06.1.05.15-.02.15-.24.32-.47.47-.7.02-.03.03-.05.05-.09v.01Zm8.74 4.24c-.16 0-.25.04-.31.14-.15.23-.11.69.08.9.03.03.11.05.14.03.18-.13.36-.26.53-.41.12-.11.11-.25.05-.4-.1-.23-.32-.23-.48-.26h-.01Zm-8.37-4.69s.05-.02.06-.04l.45-.45c.05-.05.03-.11-.01-.15l-.42-.42c-.05-.06-.1-.06-.16 0l-.42.42c-.06.06-.06.12 0 .18.14.14.29.28.43.42.02.02.04.03.07.04Z"/>
  </g>
  <defs>
    <clipPath id="a">
      <path d="M0 0h24v24H0z"/>
    </clipPath>
  </defs>
</svg>
