<svg width="12" height="13" viewBox="0 0 12 13" fill="currentColor" xmlns="http://www.w3.org/2000/svg">
<path id="Union" d="M0 12.9805V11.4805H2.0625L1.7625 11.218C1.1125 10.643 0.65625 9.98672 0.39375 9.24922C0.13125 8.51172 0 7.76797 0 7.01797C0 5.63047 0.415625 4.39609 1.24688 3.31484C2.07812 2.23359 3.1625 1.51797 4.5 1.16797V2.74297C3.6 3.06797 2.875 3.62109 2.325 4.40234C1.775 5.18359 1.5 6.05547 1.5 7.01797C1.5 7.58047 1.60625 8.12734 1.81875 8.65859C2.03125 9.18984 2.3625 9.68047 2.8125 10.1305L3 10.318V8.48047H4.5V12.9805H0ZM7.5 12.793V11.218C8.4 10.893 9.125 10.3398 9.675 9.55859C10.225 8.77734 10.5 7.90547 10.5 6.94297C10.5 6.38047 10.3938 5.83359 10.1812 5.30234C9.96875 4.77109 9.6375 4.28047 9.1875 3.83047L9 3.64297V5.48047H7.5V0.980469H12V2.48047H9.9375L10.2375 2.74297C10.85 3.35547 11.2969 4.02109 11.5781 4.73984C11.8594 5.45859 12 6.19297 12 6.94297C12 8.33047 11.5844 9.56484 10.7531 10.6461C9.92188 11.7273 8.8375 12.443 7.5 12.793Z" fill="currentColor"/>
</svg>
