<svg xmlns="http://www.w3.org/2000/svg" width="24" height="24" fill="currentColor" viewBox="0 0 24 24">
  <path d="M23.142 22.99a.848.848 0 0 1-.737-.449c-2.374-4.233-6.978-6.662-12.978-6.882v4.582a.962.962 0 0 1-.15.517.868.868 0 0 1-.398.335.806.806 0 0 1-.507.037.849.849 0 0 1-.436-.275L.22 11.691a.954.954 0 0 1-.22-.614c0-.226.079-.445.22-.614L7.937 1.3a.848.848 0 0 1 .436-.275.805.805 0 0 1 .507.037c.16.066.3.183.397.335.098.152.15.332.151.517v4.582c3.828.126 7.466 1.808 10.173 4.702 2.708 2.895 4.281 6.784 4.4 10.876a.96.96 0 0 1-.165.574.859.859 0 0 1-.461.342.677.677 0 0 1-.232 0ZM8.57 13.827c5.537 0 10.21 1.832 13.278 5.03-.788-3.092-2.525-5.813-4.933-7.722-2.409-1.91-5.348-2.898-8.345-2.806a.83.83 0 0 1-.606-.269.95.95 0 0 1-.251-.648V4.306l-5.7 6.772 5.7 6.771v-3.106a.95.95 0 0 1 .25-.648.83.83 0 0 1 .607-.269Z"/>
</svg>
