<svg xmlns="http://www.w3.org/2000/svg" width="24" height="24" fill="currentColor" viewBox="0 0 24 24">
  <mask id="a" width="24" height="24" x="0" y="0" maskUnits="userSpaceOnUse" style="mask-type:alpha">
    <path d="M0 0h24v24H0z"/>
  </mask>
  <g mask="url(#a)">
    <path d="M5.1 16.05a8.25 8.25 0 0 1-.825-1.95A7.696 7.696 0 0 1 4 12.05c0-2.233.775-4.133 2.325-5.7C7.875 4.783 9.767 4 12 4h.175l-1.6-1.6 1.4-1.4 4 4-4 4-1.4-1.4 1.6-1.6H12c-1.667 0-3.083.587-4.25 1.762C6.583 8.937 6 10.367 6 12.05c0 .433.05.858.15 1.275.1.417.25.825.45 1.225l-1.5 1.5ZM12.025 23l-4-4 4-4 1.4 1.4-1.6 1.6H12c1.667 0 3.083-.587 4.25-1.762C17.417 15.063 18 13.633 18 11.95c0-.433-.05-.858-.15-1.275a5.71 5.71 0 0 0-.45-1.225l1.5-1.5c.367.633.642 1.283.825 1.95.183.667.275 1.35.275 2.05 0 2.233-.775 4.133-2.325 5.7C16.125 19.217 14.233 20 12 20h-.175l1.6 1.6-1.4 1.4Z"/>
  </g>
</svg>
