<svg xmlns="http://www.w3.org/2000/svg" width="24" height="24" fill="currentColor" viewBox="0 0 24 24">
  <mask id="a" width="24" height="24" x="0" y="0" maskUnits="userSpaceOnUse" style="mask-type:alpha">
    <path d="M0 0h24v24H0z"/>
  </mask>
  <g mask="url(#a)">
    <path d="M13 22c-.85 0-1.683-.116-2.5-.35a8.442 8.442 0 0 1-2.3-1.05l1.45-1.45a6.806 6.806 0 0 0 1.625.638A7.099 7.099 0 0 0 13 20c1.95 0 3.604-.68 4.962-2.038C19.32 16.604 20 14.95 20 13c0-1.95-.68-3.604-2.038-4.963C16.604 6.68 14.95 6 13 6h-.15l1.55 1.55L13 9 9 5l4-4 1.4 1.45L12.85 4H13c2.5 0 4.625.875 6.375 2.625S22 10.5 22 13c0 1.25-.237 2.42-.712 3.512a9.151 9.151 0 0 1-1.925 2.85 9.156 9.156 0 0 1-2.85 1.926A8.715 8.715 0 0 1 13 22Zm-6-3-6-6 6-6 6 6-6 6Zm0-2.85L10.15 13 7 9.85 3.85 13 7 16.15Z"/>
  </g>
</svg>
