<svg xmlns="http://www.w3.org/2000/svg" width="24" height="24" fill="currentColor" viewBox="0 0 24 24">
  <mask id="a" width="24" height="24" x="0" y="0" maskUnits="userSpaceOnUse" style="mask-type:alpha">
    <path d="M0 0h24v24H0z"/>
  </mask>
  <g mask="url(#a)">
    <path d="M11 22c-1.25 0-2.42-.237-3.512-.712a9.142 9.142 0 0 1-2.85-1.926 9.129 9.129 0 0 1-1.925-2.85A8.698 8.698 0 0 1 2 13c0-2.5.875-4.625 2.625-6.375S8.5 4 11 4h.15L9.6 2.45 11 1l4 4-4 4-1.4-1.45L11.15 6H11c-1.95 0-3.604.68-4.962 2.037C4.68 9.396 4 11.05 4 13c0 1.95.68 3.604 2.038 4.962C7.396 19.321 9.05 20 11 20c.583 0 1.158-.07 1.725-.212a6.807 6.807 0 0 0 1.625-.638l1.45 1.45a8.443 8.443 0 0 1-2.3 1.05c-.817.234-1.65.35-2.5.35Zm6-3-6-6 6-6 6 6-6 6Zm0-2.85L20.15 13 17 9.85 13.85 13 17 16.15Z"/>
  </g>
</svg>
