<svg xmlns="http://www.w3.org/2000/svg" width="24" height="24" fill="currentColor" viewBox="0 0 24 24">
  <g clip-path="url(#a)">
    <path d="M13.45 17.23c-.1-.77-.41-3.09-1.19-4.1-.57-.73-1.38-1.28-2.28-1.58l.79-2.84a.4.4 0 0 0-.06-.32.414.414 0 0 0-.29-.15H6.27c-.1 0-.23.06-.29.14a.4.4 0 0 0-.06.32l.82 2.87c-.8.28-1.53.76-2.1 1.41-.4.46-.69 1.01-.92 1.74-.19.6-.28 1.23-.36 1.84l-.06.4c-.11.78-.17 1.68.56 2.44.42.43.96.61 1.55.75h5.6c.67 0 1.27-.29 1.84-.87.49-.51.67-1.52.61-1.89l-.02-.16h.01ZM6.66 8.9h3.38l-.7 2.49c-.3-.06-.61-.1-.92-.1h-.08c-.07 0-.16.01-.24.02-.13 0-.25.02-.38.03-.13.02-.26.04-.37.05L6.64 8.9h.02Zm5.73 9.93c-.44.46-.87.67-1.37.67H5.49c-.49-.11-.87-.25-1.16-.55-.48-.49-.5-1.06-.38-1.89l.06-.4c.08-.58.16-1.19.33-1.73.2-.64.45-1.12.79-1.5.67-.77 1.6-1.25 2.6-1.41l-1.56 2.11a.324.324 0 0 0 .26.52c.1 0 .2-.05.26-.13l1.32-1.79v2.01c0 .18.15.33.33.33.18 0 .33-.15.33-.33v-1.99l1.3 1.76c.06.09.16.13.26.13a.324.324 0 0 0 .26-.52l-1.58-2.14c.31.04.59.09.59.1h.02c.87.24 1.66.75 2.21 1.44.45.57.81 1.85 1.06 3.78.01.09.02.16.03.19.03.18-.11.98-.44 1.32l.01.02Z"/>
    <path d="m20.37 15.72-.35-3.39c-.18-1.79-.76-3.21-1.71-4.22a5.661 5.661 0 0 0-2.28-1.48l.79-2.81c.03-.1 0-.23-.06-.32a.403.403 0 0 0-.29-.14h-4.08c-.1 0-.23.06-.29.14a.4.4 0 0 0-.06.32l.81 2.83c-.36.13-.7.28-1.03.49-.15.1-.19.29-.1.44.1.15.29.19.44.1.49-.31 1.03-.51 1.59-.61l-1.97 2.68c-.09.13-.07.3.06.4.05.04.11.06.17.06.09 0 .17-.04.23-.12l1.9-2.58v2.94c0 .16.13.28.28.28.15 0 .28-.13.28-.28V7.54l1.88 2.54c.06.08.14.12.23.12.06 0 .12-.02.17-.06.13-.09.15-.27.06-.4l-1.97-2.68c.09.01.19.01.28.03h.05c.89.21 1.77.72 2.44 1.44.85.91 1.37 2.2 1.54 3.85l.35 3.39c.07.73.23 2.24-.13 2.78-.43.65-1.23.95-2.54.95h-2.92c-.18 0-.32.14-.32.32s.14.32.32.32h2.92c.97 0 2.34-.13 3.07-1.23.45-.67.35-2 .23-3.2l.01.01ZM14.5 6.36h-.07c-.18 0-.39.02-.6.05-.04 0-.07 0-.11.02-.09.01-.18.02-.25.04l-.7-2.45h3.33l-.69 2.45c-.3-.06-.61-.1-.91-.1v-.01Z"/>
  </g>
  <defs>
    <clipPath id="a">
      <path d="M0 0h24v24H0z"/>
    </clipPath>
  </defs>
</svg>
