<svg width="48" height="48" viewBox="0 0 48 48" fill="currentColor" xmlns="http://www.w3.org/2000/svg">
<path d="M41.7333 45L27.0333 30.3C25.8667 31.2333 24.525 31.9722 23.0083 32.5167C21.4917 33.0611 19.8778 33.3333 18.1667 33.3333C13.9278 33.3333 10.3403 31.8653 7.40417 28.9292C4.46806 25.9931 3 22.4056 3 18.1667C3 13.9278 4.46806 10.3403 7.40417 7.40417C10.3403 4.46806 13.9278 3 18.1667 3C22.4056 3 25.9931 4.46806 28.9292 7.40417C31.8653 10.3403 33.3333 13.9278 33.3333 18.1667C33.3333 19.8778 33.0611 21.4917 32.5167 23.0083C31.9722 24.525 31.2333 25.8667 30.3 27.0333L45 41.7333L41.7333 45ZM18.1667 28.6667C21.0833 28.6667 23.5625 27.6458 25.6042 25.6042C27.6458 23.5625 28.6667 21.0833 28.6667 18.1667C28.6667 15.25 27.6458 12.7708 25.6042 10.7292C23.5625 8.6875 21.0833 7.66667 18.1667 7.66667C15.25 7.66667 12.7708 8.6875 10.7292 10.7292C8.6875 12.7708 7.66667 15.25 7.66667 18.1667C7.66667 21.0833 8.6875 23.5625 10.7292 25.6042C12.7708 27.6458 15.25 28.6667 18.1667 28.6667Z" fill="currentColor"/>
</svg>
