<svg width="24" height="24" viewBox="0 0 24 24" fill="none" xmlns="http://www.w3.org/2000/svg">
<path fill-rule="evenodd" clip-rule="evenodd" d="M8.86567 18.7672L9.26368 21.9513H14.7363L15.1343 18.7672C15.3333 18.6843 15.5323 18.5848 15.7313 18.4687C15.9304 18.3526 16.1211 18.2282 16.3035 18.0956L19.2388 19.3393L21.9751 14.613L19.4129 12.6727C19.4461 12.5566 19.4627 12.4445 19.4627 12.3364V11.6657C19.4627 11.5576 19.4544 11.4455 19.4378 11.3294L22 9.38909L19.2637 4.66272L16.3035 5.9065C16.1217 5.77383 15.9353 5.64945 15.7443 5.53337C15.5532 5.41728 15.3499 5.31778 15.1343 5.23486L14.7363 2.05078H9.26368L8.86567 5.23486C8.66667 5.31778 8.46766 5.41728 8.26866 5.53337C8.06965 5.64945 7.87894 5.77383 7.69652 5.9065L4.73632 4.66272L2 9.38909L4.56219 11.3294C4.54561 11.4455 4.53731 11.5576 4.53731 11.6657V12.3373C4.53731 12.4448 4.54561 12.5566 4.56219 12.6727L2 14.613L4.73632 19.3393L7.69652 18.0956C7.8796 18.2282 8.06634 18.3526 8.25672 18.4687C8.4471 18.5848 8.65008 18.6843 8.86567 18.7672ZM12.9702 19.9612H11.005L10.6816 17.3244C10.1682 17.1924 9.69154 16.9977 9.25174 16.7403C8.81194 16.483 8.40962 16.1636 8.04478 15.7821L5.58209 16.8269L4.61194 15.1354L6.75124 13.5184C6.66832 13.2697 6.61028 13.0209 6.57712 12.7722C6.54395 12.5234 6.52736 12.2664 6.52736 12.001C6.52736 11.7191 6.54395 11.4538 6.57712 11.205C6.61028 10.9563 6.66832 10.7075 6.75124 10.4587L4.61194 8.8667L5.58209 7.17516L8.04478 8.19506C8.41028 7.83088 8.8126 7.5201 9.25174 7.26272C9.69088 7.00534 10.1675 6.81032 10.6816 6.67765L11.0299 4.04083H12.995L13.3184 6.67765C13.8332 6.81098 14.3101 7.00601 14.7493 7.26272C15.1884 7.51944 15.5904 7.83851 15.9552 8.21994L18.4179 7.17516L19.3881 8.8667L17.2488 10.4836C17.3317 10.7171 17.3897 10.9619 17.4229 11.2179C17.4561 11.474 17.4726 11.735 17.4726 12.001C17.4726 12.267 17.4561 12.5284 17.4229 12.7851C17.3897 13.0418 17.3317 13.2863 17.2488 13.5184L19.3881 15.1354L18.4179 16.8269L15.9552 15.807C15.591 16.1725 15.1891 16.4836 14.7493 16.7403C14.3095 16.9971 13.8325 17.1917 13.3184 17.3244L12.9702 19.9612ZM14.5124 14.4637C13.8325 15.1437 13.0116 15.4836 12.0498 15.4836C11.0713 15.4836 10.2464 15.1437 9.57512 14.4637C8.90381 13.7838 8.56783 12.9629 8.56716 12.001C8.5665 11.0392 8.90216 10.2183 9.57413 9.53834C10.2461 8.85841 11.0713 8.51844 12.0498 8.51844C13.0116 8.51844 13.8325 8.85841 14.5124 9.53834C15.1924 10.2183 15.5323 11.0392 15.5323 12.001C15.5323 12.9629 15.1924 13.7838 14.5124 14.4637ZM10.5572 12.001C10.5638 11.2108 11.2097 10.5334 12 10.5334C12.8361 10.5334 13.5021 11.1649 13.5091 12.001C13.5162 12.8438 12.8292 13.4936 12 13.4936C11.2027 13.4936 10.5505 12.7983 10.5572 12.001Z" fill="currentColor"/>
</svg>
