<svg width="24" height="28" viewBox="0 0 24 28" fill="currentColor" xmlns="http://www.w3.org/2000/svg">
<path id="Vector" d="M6.3998 22.3996H17.5998V19.5999H6.3998V22.3996ZM6.3998 16.8002H17.5998V14.0005H6.3998V16.8002ZM3.5998 27.999C2.8298 27.999 2.17064 27.7249 1.6223 27.1766C1.07397 26.6283 0.799805 25.9692 0.799805 25.1993V2.80166C0.799805 2.03174 1.07397 1.37264 1.6223 0.824367C2.17064 0.276091 2.8298 0.00195312 3.5998 0.00195312H14.7998L23.1998 8.40107V25.1993C23.1998 25.9692 22.9256 26.6283 22.3773 27.1766C21.829 27.7249 21.1698 27.999 20.3998 27.999H3.5998ZM13.3998 9.80093V2.80166H3.5998V25.1993H20.3998V9.80093H13.3998Z" fill="currentColor"/>
</svg>
