<svg xmlns="http://www.w3.org/2000/svg" width="24" height="24" fill="currentColor" viewBox="0 0 24 24">
  <path fill-rule="evenodd" d="m21.214 8.963-6.163-.516-2.301-5.931c-.247-.688-1.233-.688-1.561 0L8.888 8.447l-6.081.516c-.822.086-1.069 1.031-.494 1.547l4.685 4.126-1.48 6.275c-.164.774.576 1.375 1.233.946l5.26-3.353 5.176 3.353a.817.817 0 0 0 1.233-.946l-1.397-6.275 4.684-4.126c.575-.516.247-1.461-.493-1.547Zm-1.972 1.547-5.26-.43-1.972-5.157-1.972 5.157-5.341.43 4.026 3.524-1.232 5.416 4.52-2.922 4.437 2.922-1.232-5.415 4.026-3.525Z" clip-rule="evenodd"/>
</svg>
