<svg width="21" height="21" viewBox="0 0 21 21" fill="currentColor" xmlns="http://www.w3.org/2000/svg">
<path id="Union" d="M11.498 2.00249L16.498 7.00249L15.098 8.45249L12.498 5.85249V8.15249L10.498 6.15249L8.92305 4.57749L11.498 2.00249ZM10.498 14.0025V9.00249L12.498 11.0025V14.0025H10.498ZM19.273 20.6275L16.648 18.0025H5.49805C4.94805 18.0025 4.47721 17.8067 4.08555 17.415C3.69388 17.0233 3.49805 16.5525 3.49805 16.0025V13.0025H5.49805V16.0025H14.648L0.873047 2.22749L2.29805 0.80249L20.698 19.2025L19.273 20.6275ZM19.498 15.1525L17.498 13.1525V13.0025H19.498V15.1525Z" fill="currentColor"/>
</svg>
