<svg xmlns="http://www.w3.org/2000/svg" width="24" height="24" fill="currentColor" viewBox="0 0 24 24">
  <g clip-path="url(#a)">
    <path d="M4.977 7.55V5h14.02v14h-2.52v2h2.5c1.1 0 2-.9 2-2V5c0-1.1-.9-2-2-2h-14c-1.1 0-2 .9-2 2v2.55h2ZM4.587 21a1.61 1.61 0 1 0 0-3.22 1.61 1.61 0 0 0 0 3.22Z"/>
    <path d="M2.977 9.5v2.09c5.2 0 9.41 4.21 9.41 9.41h2.09c0-6.35-5.15-11.5-11.5-11.5Zm0 4.18v2.09c2.88 0 5.23 2.34 5.23 5.23h2.09c0-4.04-3.27-7.32-7.32-7.32Z"/>
  </g>
  <defs>
    <clipPath id="a">
      <path d="M0 0h24v24H0z"/>
    </clipPath>
  </defs>
</svg>
