<svg xmlns="http://www.w3.org/2000/svg" width="24" height="24" fill="currentColor" viewBox="0 0 24 24">
  <path d="M7.723 8.55a.8.8 0 0 0 .588-.238.798.798 0 0 0 .237-.587.796.796 0 0 0-.237-.587.798.798 0 0 0-.588-.238.802.802 0 0 0-.587.237.798.798 0 0 0-.238.588.8.8 0 0 0 .238.588.798.798 0 0 0 .587.237Zm0 4.275c.234 0 .43-.08.588-.237A.798.798 0 0 0 8.548 12a.8.8 0 0 0-.237-.588.798.798 0 0 0-.588-.237.802.802 0 0 0-.587.237.798.798 0 0 0-.238.588.8.8 0 0 0 .238.588.798.798 0 0 0 .587.237Zm0 4.275a.8.8 0 0 0 .588-.238.798.798 0 0 0 .237-.587.796.796 0 0 0-.237-.587.798.798 0 0 0-.588-.238.799.799 0 0 0-.587.238.798.798 0 0 0-.238.587.8.8 0 0 0 .238.588.798.798 0 0 0 .587.237Zm-3.1 4.25c-.533 0-.995-.196-1.387-.588a1.897 1.897 0 0 1-.588-1.387V4.625c0-.55.196-1.02.588-1.413a1.897 1.897 0 0 1 1.387-.587h11.425l5.325 5.325v11.425c0 .533-.195.996-.587 1.387a1.926 1.926 0 0 1-1.413.588H4.623Zm0-1.975h14.75v-10.3h-4.45v-4.45h-10.3v14.75Zm0-14.75v4.45-4.45 14.75-14.75Z"/>
</svg>
