<svg xmlns="http://www.w3.org/2000/svg" width="24" height="24" fill="currentColor" viewBox="0 0 24 24">
  <mask id="a" width="24" height="24" x="0" y="0" maskUnits="userSpaceOnUse" style="mask-type:alpha">
    <path d="M0 0h24v24H0V0Z"/>
  </mask>
  <g mask="url(#a)">
    <path fill-rule="evenodd" d="M6.32 2.556a.938.938 0 0 1 .913 0l1.248.695 1.249-.695a.938.938 0 0 1 .912 0l1.251.697 1.252-.697a.938.938 0 0 1 .912 0l1.25.697 1.252-.697a.937.937 0 0 1 .912 0l1.249.695 1.248-.695a.938.938 0 0 1 .456-.119h.006c.341 0 .656.186.82.485l.946 1.711a.937.937 0 0 1 .117.454v.005a.93.93 0 0 1-.117.453L21.5 6.804l.695 1.258a.937.937 0 0 1 0 .906l-.695 1.259.695 1.258a.937.937 0 0 1 .117.453v.006c0 .158-.04.314-.117.453l-.695 1.258.695 1.259a.937.937 0 0 1 .117.453v.005c0 .159-.04.315-.117.454l-.695 1.258.695 1.258a.937.937 0 0 1 0 .906l-.872 1.582a.938.938 0 0 1-1.277.366l-1.117-.623-1.25.697a.938.938 0 0 1-.913 0l-1.25-.697-1.252.697a.938.938 0 0 1-.912 0l-1.249-.695-1.248.695a.938.938 0 0 1-.912 0l-1.252-.697-1.251.697a.938.938 0 0 1-.912 0l-1.252-.697-1.25.697a.937.937 0 0 1-1.278-.366l-.945-1.712a.938.938 0 0 1 0-.906l.695-1.258-.695-1.259a.937.937 0 0 1-.117-.453v-.006c0-.158.04-.314.117-.453L2.5 13.6l-.695-1.258a.938.938 0 0 1-.117-.454v-.005c0-.159.04-.315.117-.454L2.5 10.17l-.695-1.258a.938.938 0 0 1 0-.906L2.5 6.747 1.804 5.49a.938.938 0 0 1-.117-.453V5.03c0-.158.04-.314.117-.453l.872-1.581a.937.937 0 0 1 1.278-.366l1.116.622 1.25-.696Zm13.743 2.093-.887.494a.938.938 0 0 1-.912 0l-1.249-.695-1.248.695a.937.937 0 0 1-.456.118h-.006a.937.937 0 0 1-.456-.118l-1.248-.695-1.249.695a.938.938 0 0 1-.456.118h-.006a.938.938 0 0 1-.456-.118l-1.248-.695-1.249.695a.938.938 0 0 1-.912 0l-1.248-.695-1.249.695a.938.938 0 0 1-.456.118h-.006a.938.938 0 0 1-.456-.118l-.747-.417-.169.306.697 1.262a.937.937 0 0 1 0 .906l-.695 1.26.695 1.258a.938.938 0 0 1 0 .906l-.697 1.261.697 1.262a.938.938 0 0 1 0 .906l-.697 1.261.697 1.261a.937.937 0 0 1 0 .907l-.695 1.258.24.435.883-.491a.938.938 0 0 1 .456-.119h.005c.16 0 .317.04.456.119l1.249.695 1.248-.695a.938.938 0 0 1 .456-.119h.006c.16 0 .317.04.456.119l1.249.695 1.248-.695a.938.938 0 0 1 .912 0l1.249.695 1.248-.695a.938.938 0 0 1 .456-.119h.006c.16 0 .316.04.456.119l1.248.695 1.249-.695a.938.938 0 0 1 .456-.119h.006c.16 0 .317.041.456.119l.747.416.167-.303-.695-1.259a.937.937 0 0 1 0-.906l.697-1.261-.697-1.261a.937.937 0 0 1 0-.907l.697-1.261-.697-1.261a.937.937 0 0 1 0-.906l.695-1.259-.695-1.258a.937.937 0 0 1 0-.907l.697-1.26-.243-.44Z" clip-rule="evenodd"/>
  </g>
</svg>
