<svg xmlns="http://www.w3.org/2000/svg" width="20" height="20" fill="currentColor" viewBox="0 0 20 20">
  <path d="M17.7 14.297c0-.1 0-.2-.1-.3 0-.1-.1-.1-.1-.2 0 0 0-.1-.1-.1l-1.5-1.5 1.5-1.5c.2-.2.3-.4.3-.6 0-.2-.1-.5-.3-.6l-1.5-1.5 1.5-1.5s0-.1.1-.1c0-.1.1-.1.1-.2s.1-.2.1-.3c0-.1 0-.2-.1-.3 0-.1-.1-.2-.2-.2l-2.6-2.6c-.1-.1-.2-.1-.3-.2-.1 0-.2-.1-.3-.1-.1 0-.2 0-.3.1-.1 0-.1.1-.2.1 0 0-.1 0-.1.1l-1.5 1.5-1.5-1.5c-.2-.2-.4-.3-.6-.3-.2 0-.5-.1-.6.1l-1.5 1.5-1.5-1.5s-.1 0-.1-.1c-.1 0-.1-.1-.2-.1-.1-.1-.2-.1-.4-.1-.1 0-.2 0-.3.1-.1 0-.2.1-.2.2l-1.8 1.7-.8.8c-.1.1-.2.2-.2.3 0 .1-.1.2-.1.3 0 .1 0 .2.1.3 0 .1.1.1.1.2 0 0 0 .1.1.1l1.5 1.5-1.5 1.6c-.2.1-.3.4-.3.6 0 .2.1.5.3.6l1.5 1.5-1.5 1.5s0 .1-.1.1c0 .1-.1.1-.1.2s-.1.2-.1.3c0 .1 0 .2.1.3 0 .1.1.2.2.2l1.7 1.7.9.9c.1.1.2.1.3.2.1 0 .2.1.3.1.1 0 .2 0 .3-.1.1 0 .1-.1.2-.1 0 0 .1 0 .1-.1l1.5-1.5 1.5 1.5c.2.2.4.3.6.3.2 0 .5-.1.6-.3l1.5-1.5 1.5 1.5s.1 0 .1.1c.1 0 .1.1.2.1s.2.1.3.1c.1 0 .2 0 .3-.1.1 0 .2-.1.2-.2l1.7-1.7.9-.9c.1-.1.1-.2.2-.3.2.1.2 0 .2-.1Zm-7.7 1.3-1.5-1.5c-.2-.2-.4-.3-.6-.3-.1 0-.2 0-.3.1h-.1c-.1 0-.2.1-.3.2l-1.5 1.5-1.3-1.3 1.5-1.5c.1-.1.1-.2.2-.3v-.1c0-.1.1-.2.1-.3 0-.2-.1-.5-.3-.6l-1.5-1.5 1.5-1.5c.2-.2.3-.4.3-.6 0-.1 0-.2-.1-.3v-.1c0-.1-.1-.2-.2-.3l-1.5-1.5 1.3-1.3 1.5 1.5c.1.1.2.2.3.2.1 0 .2.1.3.1.2 0 .5-.1.6-.3l1.6-1.5 1.5 1.5c.2.2.4.3.6.3.1 0 .2 0 .3-.1h.1c.1 0 .2-.1.3-.2l1.5-1.5 1.3 1.3-1.5 1.5c-.1.1-.1.2-.2.3v.1c0 .1-.1.2-.1.3 0 .2.1.5.3.6l1.5 1.5-1.5 1.5c-.2.2-.3.4-.3.6v.4c0 .1.1.2.2.3l1.5 1.5-1.3 1.3-1.5-1.5c-.1-.1-.2-.1-.3-.2-.1 0-.2-.1-.3-.1-.2 0-.5.1-.6.3l-1.5 1.5Z"/>
</svg>
