<svg width="56" height="56" viewBox="0 0 56 56" fill="none" xmlns="http://www.w3.org/2000/svg">
<path d="M0 4C0 1.79086 1.79086 0 4 0H52C54.2091 0 56 1.79086 56 4V52C56 54.2091 54.2091 56 52 56H4C1.79086 56 0 54.2091 0 52V4Z" fill="#5A8837"/>
<path d="M21.3364 36C19.1152 36 17.2271 35.2222 15.6723 33.6667C14.1175 32.1111 13.34 30.2222 13.34 28C13.34 25.7778 14.1175 23.8889 15.6723 22.3333C17.2271 20.7778 19.1152 20 21.3364 20H34.6637C36.8849 20 38.7729 20.7778 40.3278 22.3333C41.8826 23.8889 42.66 25.7778 42.66 28C42.66 30.2222 41.8826 32.1111 40.3278 33.6667C38.7729 35.2222 36.8849 36 34.6637 36H21.3364ZM21.3364 33.3333H34.6637C36.1297 33.3333 37.3846 32.8111 38.4286 31.7667C39.4726 30.7222 39.9946 29.4667 39.9946 28C39.9946 26.5333 39.4726 25.2778 38.4286 24.2333C37.3846 23.1889 36.1297 22.6667 34.6637 22.6667H21.3364C19.8704 22.6667 18.6154 23.1889 17.5714 24.2333C16.5275 25.2778 16.0055 26.5333 16.0055 28C16.0055 29.4667 16.5275 30.7222 17.5714 31.7667C18.6154 32.8111 19.8704 33.3333 21.3364 33.3333ZM34.6637 32C35.7743 32 36.7183 31.6111 37.4957 30.8333C38.2731 30.0556 38.6618 29.1111 38.6618 28C38.6618 26.8889 38.2731 25.9444 37.4957 25.1667C36.7183 24.3889 35.7743 24 34.6637 24C33.5531 24 32.609 24.3889 31.8316 25.1667C31.0542 25.9444 30.6655 26.8889 30.6655 28C30.6655 29.1111 31.0542 30.0556 31.8316 30.8333C32.609 31.6111 33.5531 32 34.6637 32Z" fill="#FAFCFC"/>
</svg>
