<svg width="48" height="48" viewBox="0 0 48 48" fill="currentColor" xmlns="http://www.w3.org/2000/svg">
<path d="M2 46V40.5H9.5625L8.4625 39.5375C6.07917 37.4292 4.40625 35.0229 3.44375 32.3188C2.48125 29.6146 2 26.8875 2 24.1375C2 19.05 3.52396 14.524 6.57188 10.5594C9.61979 6.59479 13.5958 3.97083 18.5 2.6875V8.4625C15.2 9.65417 12.5417 11.6823 10.525 14.5469C8.50833 17.4115 7.5 20.6083 7.5 24.1375C7.5 26.2 7.88958 28.2052 8.66875 30.1531C9.44792 32.101 10.6625 33.9 12.3125 35.55L13 36.2375V29.5H18.5V46H2ZM29.5 45.3125V39.5375C32.8 38.3458 35.4583 36.3177 37.475 33.4531C39.4917 30.5885 40.5 27.3917 40.5 23.8625C40.5 21.8 40.1104 19.7948 39.3312 17.8469C38.5521 15.899 37.3375 14.1 35.6875 12.45L35 11.7625V18.5H29.5V2H46V7.5H38.4375L39.5375 8.4625C41.7833 10.7083 43.4219 13.149 44.4531 15.7844C45.4844 18.4198 46 21.1125 46 23.8625C46 28.95 44.476 33.476 41.4281 37.4406C38.3802 41.4052 34.4042 44.0292 29.5 45.3125Z" fill="currentColor"/>
</svg>
