<svg width="24" height="24" viewBox="0 0 24 24" fill="none" xmlns="http://www.w3.org/2000/svg">
<path d="M5 13H11V9H5V13ZM5 7H19V5H5V7ZM5 21C4.45 21 3.97917 20.8042 3.5875 20.4125C3.19583 20.0208 3 19.55 3 19V5C3 4.45 3.19583 3.97917 3.5875 3.5875C3.97917 3.19583 4.45 3 5 3H19C19.55 3 20.0208 3.19583 20.4125 3.5875C20.8042 3.97917 21 4.45 21 5V11.3C20.6833 11.1667 20.3542 11.0792 20.0125 11.0375C19.6708 10.9958 19.3333 11 19 11.05C18.65 11.1167 18.3125 11.2292 17.9875 11.3875C17.6625 11.5458 17.3667 11.7583 17.1 12.025L16.125 13L11 18.1V21H5ZM5 19H11V15H5V19ZM13 13H16.125L17.1 12.025C17.3667 11.7583 17.6625 11.5458 17.9875 11.3875C18.3125 11.2292 18.65 11.1167 19 11.05V9H13V13ZM13 22V18.925L18.525 13.425C18.675 13.275 18.8417 13.1667 19.025 13.1C19.2083 13.0333 19.3917 13 19.575 13C19.775 13 19.9667 13.0375 20.15 13.1125C20.3333 13.1875 20.5 13.3 20.65 13.45L21.575 14.375C21.7083 14.525 21.8125 14.6917 21.8875 14.875C21.9625 15.0583 22 15.2417 22 15.425C22 15.6083 21.9667 15.7958 21.9 15.9875C21.8333 16.1792 21.725 16.35 21.575 16.5L16.075 22H13ZM14.5 20.5H15.45L18.475 17.45L17.55 16.525L14.5 19.55V20.5ZM18.025 16.975L17.55 16.525L18.475 17.45L18.025 16.975Z" fill="#2B2C2C"/>
</svg>
