<svg xmlns="http://www.w3.org/2000/svg" width="24" height="24" fill="currentColor" viewBox="0 0 24 24">
  <path d="M13.32 22a1.969 1.969 0 0 1-1.38-.57l-8.37-8.36A1.966 1.966 0 0 1 3 11.693V4.9c0-.522.186-.97.56-1.342C3.931 3.186 4.38 3 4.901 3h6.801c.27 0 .524.051.761.154.238.103.444.242.619.416l8.37 8.384c.365.364.547.811.547 1.341 0 .53-.182.978-.547 1.342l-6.8 6.793a2.01 2.01 0 0 1-.607.415c-.23.103-.472.155-.726.155Zm-.023-1.9 6.8-6.793L11.704 4.9h-6.8v6.793l8.394 8.407ZM7.28 8.7c.397 0 .733-.139 1.01-.416a1.37 1.37 0 0 0 .417-1.009c0-.396-.139-.732-.416-1.009a1.374 1.374 0 0 0-1.01-.416c-.397 0-.734.139-1.01.416a1.371 1.371 0 0 0-.417 1.009c0 .396.138.732.416 1.009.277.277.614.416 1.01.416Z"/>
</svg>
