<svg xmlns="http://www.w3.org/2000/svg" width="24" height="24" fill="currentColor" viewBox="0 0 24 24">
  <g clip-path="url(#a)">
    <mask id="b" width="24" height="24" x="0" y="0" maskUnits="userSpaceOnUse" style="mask-type:alpha">
      <path d="M0 0h24v24H0z"/>
    </mask>
    <g mask="url(#b)">
      <path d="M1 20v-4c0-.567.196-1.042.587-1.425A1.947 1.947 0 0 1 3 14h3.275c.333 0 .65.083.95.25.3.167.542.392.725.675a5.158 5.158 0 0 0 1.788 1.525c.708.367 1.462.55 2.262.55.817 0 1.58-.183 2.287-.55a4.933 4.933 0 0 0 1.763-1.525c.217-.283.47-.508.762-.675.292-.167.596-.25.913-.25H21c.567 0 1.042.192 1.425.575.383.383.575.858.575 1.425v4h-7v-2.275A6.81 6.81 0 0 1 12 19a6.673 6.673 0 0 1-2.1-.337A7.035 7.035 0 0 1 8 17.7V20H1Zm11-4a3.88 3.88 0 0 1-1.8-.438 4.076 4.076 0 0 1-1.425-1.212 3.164 3.164 0 0 0-1.063-.987A2.759 2.759 0 0 0 6.325 13c.367-.617 1.142-1.104 2.325-1.463C9.833 11.18 10.95 11 12 11c1.05 0 2.167.18 3.35.537 1.183.359 1.958.846 2.325 1.463-.483 0-.942.12-1.375.363-.433.241-.792.57-1.075.987a3.666 3.666 0 0 1-1.4 1.225A4.025 4.025 0 0 1 12 16Zm-8-3a2.893 2.893 0 0 1-2.125-.875A2.893 2.893 0 0 1 1 10c0-.85.292-1.563.875-2.138S3.167 7 4 7c.85 0 1.563.287 2.138.862S7 9.15 7 10c0 .833-.287 1.542-.862 2.125S4.85 13 4 13Zm16 0a2.893 2.893 0 0 1-2.125-.875A2.893 2.893 0 0 1 17 10c0-.85.292-1.563.875-2.138S19.167 7 20 7c.85 0 1.563.287 2.137.862C22.712 8.438 23 9.15 23 10c0 .833-.288 1.542-.863 2.125S20.85 13 20 13Zm-8-3a2.893 2.893 0 0 1-2.125-.875A2.893 2.893 0 0 1 9 7c0-.85.292-1.563.875-2.138S11.167 4 12 4c.85 0 1.563.287 2.137.862C14.712 5.438 15 6.15 15 7c0 .833-.287 1.542-.863 2.125C13.563 9.708 12.85 10 12 10Z"/>
    </g>
  </g>
  <defs>
    <clipPath id="a">
      <path d="M0 0h24v24H0z"/>
    </clipPath>
  </defs>
</svg>
