<svg width="25" height="24" viewBox="0 0 25 24" fill="none" xmlns="http://www.w3.org/2000/svg">
<path id="Union" d="M1.86667 24C1.44444 23.9111 1.05 23.6833 0.683333 23.3167C0.316667 22.95 0.0888889 22.5556 0 22.1333L22.1333 0C22.6 0.111111 23 0.338889 23.3333 0.683333C23.6667 1.02778 23.9 1.42222 24.0333 1.86667L1.86667 24ZM0 15.6V11.8667L11.8667 0H15.6L0 15.6ZM0 5.33333V2.66667C0 1.93333 0.261111 1.30556 0.783333 0.783333C1.30556 0.261111 1.93333 0 2.66667 0H5.33333L0 5.33333ZM18.6667 24L24 18.6667V21.3333C24 22.0667 23.7389 22.6944 23.2167 23.2167C22.6944 23.7389 22.0667 24 21.3333 24H18.6667ZM8.4 24L24 8.4V12.1333L12.1333 24H8.4Z" fill="#00694D"/>
</svg>
