<svg 
  width="24" 
  height="24" 
  viewBox="0 0 24 24" 
  xmlns="http://www.w3.org/2000/svg"
  fill="none" 
>
  <path 
    d="M4.32473 20.0556C4.02473 19.9924 3.74431 19.8304 3.48347 19.5696C3.22262 19.3087 3.06094 19.0286 2.99841 18.7292L18.7247 3.00293C19.0563 3.08188 19.3405 3.24388 19.5774 3.48893C19.8142 3.73398 19.98 4.01409 20.0747 4.32925L4.32473 20.0556ZM2.99841 14.0871V11.4345L11.43 3.00293H14.0826L2.99841 14.0871ZM2.99841 6.7924V4.89767C2.99841 4.37662 3.1841 3.9304 3.55547 3.55904C3.92683 3.18767 4.37273 3.0023 4.89315 3.00293H6.78789L2.99841 6.7924ZM20.051 8.97135V11.624L19.601 12.074C19.2853 11.9161 18.9499 11.7939 18.5949 11.7074C18.24 11.6208 17.8727 11.5615 17.4931 11.5292L20.051 8.97135ZM8.96683 20.0556L11.5247 17.4977C11.5563 17.8766 11.6157 18.2439 11.7028 18.5995C11.79 18.955 11.9122 19.2904 12.0695 19.6056L11.6195 20.0556H8.96683ZM16.2616 18.1608H13.4195V16.2661H16.2616V13.424H18.1563V16.2661H20.9984V18.1608H18.1563V21.0029H16.2616V18.1608Z" 
    fill="currentColor"
  />
</svg>
