<svg xmlns="http://www.w3.org/2000/svg" width="24" height="24" fill="currentColor" viewBox="0 0 24 24">
  <mask id="a" width="24" height="24" x="0" y="0" maskUnits="userSpaceOnUse" style="mask-type:alpha">
    <path d="M0 0h24v24H0z"/>
  </mask>
  <g mask="url(#a)">
    <path d="m16 23-4-4 1.4-1.45 1.6 1.6V17H9c-.55 0-1.02-.196-1.412-.587A1.927 1.927 0 0 1 7 15V9H2V7h5V4.85l-1.6 1.6L4 5l4-4 4 4-1.4 1.45L9 4.85V15h13v2h-5v2.15l1.6-1.6L20 19l-4 4Zm-1-10V9h-4V7h4c.55 0 1.021.196 1.413.587.391.392.587.863.587 1.413v4h-2Z"/>
  </g>
</svg>
