<svg xmlns="http://www.w3.org/2000/svg" width="24" height="24" fill="currentColor" viewBox="0 0 24 24">
  <path d="M21 19h2V3c0-1.1-.9-2-2-2H5v2h16v16zM3 23h14c1.1 0 2-.9 2-2V7c0-1.1-.9-2-2-2H3c-1.1 0-2 .9-2 2v14c0 1.1.9 2 2 2zM3 7h14v14H3V7z"/>
  <path d="M5.679 17.084c1.086 0 1.716-.606 1.716-2.082v-2.448h-.852v2.526c0 .924-.336 1.236-.864 1.236-.516 0-.84-.312-.84-1.236v-2.526H3.95v2.448c0 1.476.648 2.082 1.728 2.082zm3.882 0c.846 0 1.56-.462 1.56-1.254 0-.57-.384-.936-.882-1.068v-.03c.462-.186.738-.51.738-.978 0-.744-.582-1.164-1.44-1.164-.522 0-.948.216-1.332.552l.45.54c.264-.246.522-.396.84-.396.378 0 .594.198.594.534 0 .372-.264.642-1.08.642v.636c.966 0 1.224.258 1.224.678 0 .372-.306.588-.756.588-.402 0-.726-.198-.99-.456l-.414.558c.312.354.786.618 1.488.618zM11.996 17h.798v-1.854c0-.42-.072-1.038-.114-1.458h.024l.354 1.044.69 1.866h.51l.684-1.866.36-1.044h.03c-.048.42-.114 1.038-.114 1.458V17h.81v-4.446h-.984l-.738 2.082c-.096.276-.174.57-.27.852h-.03c-.09-.282-.174-.576-.27-.852l-.756-2.082h-.984V17z"/>
</svg>
