<svg xmlns="http://www.w3.org/2000/svg" width="24" height="24" fill="currentColor" viewBox="0 0 24 24">
  <g clip-path="url(#a)">
    <path d="M21 19h2V3c0-1.1-.9-2-2-2H5v2h16v16ZM3 23h14c1.1 0 2-.9 2-2V7c0-1.1-.9-2-2-2H3c-1.1 0-2 .9-2 2v14c0 1.1.9 2 2 2ZM3 7h14v14H3V7Z"/>
    <path d="M5.679 17.084c1.086 0 1.716-.606 1.716-2.082V12.56h-.852v2.52c0 .924-.336 1.236-.864 1.236-.522 0-.84-.312-.84-1.236v-2.52H3.95v2.442c0 1.476.648 2.082 1.728 2.082Zm3.882 0c.846 0 1.56-.474 1.56-1.29 0-.582-.384-.954-.888-1.092v-.03c.474-.186.744-.534.744-1.014 0-.762-.582-1.182-1.44-1.182-.522 0-.948.21-1.332.546l.45.54c.264-.24.522-.39.84-.396.378.006.594.21.594.558 0 .396-.264.678-1.08.678v.636c.966 0 1.224.27 1.224.708 0 .396-.306.618-.756.618-.402 0-.726-.198-.99-.456l-.414.558c.312.354.786.618 1.488.618ZM11.996 17h.798v-1.854c0-.42-.072-1.038-.114-1.458h.024l.354 1.044.69 1.866h.51l.684-1.866.36-1.044h.024c-.042.42-.108 1.038-.108 1.458V17h.81v-4.44h-.984l-.738 2.076c-.096.276-.174.57-.27.858h-.03c-.09-.288-.174-.582-.27-.858l-.756-2.076h-.984V17Z"/>
  </g>
  <defs>
    <clipPath id="a">
      <path d="M0 0h24v24H0z" transform="rotate(-180 12 12)"/>
    </clipPath>
  </defs>
</svg>
