<svg xmlns="http://www.w3.org/2000/svg" width="24" height="24" fill="currentColor" viewBox="0 0 24 24">
  <path d="M14.383 13.685a.588.588 0 0 0-.909 0l-.831.95v-4.472c0-.405-.288-.734-.643-.734-.355 0-.643.329-.643.734v4.472l-.831-.95a.588.588 0 0 0-.91 0 .811.811 0 0 0 0 1.039c2.074 2.369 1.973 2.285 2.138 2.363a.585.585 0 0 0 .7-.16l1.93-2.203a.81.81 0 0 0 0-1.04Z"/>
  <path d="M18.749 8.62a.562.562 0 0 0-.165-.39c-5.377-5.376-5.08-5.098-5.193-5.158-.182-.098.331-.067-6.917-.067-.673 0-1.221.548-1.221 1.221V19.78c0 .674.548 1.221 1.221 1.221h11.054c.673 0 1.221-.547 1.221-1.22V8.62Zm-5.06-.65V4.925l3.14 3.141c-3.267 0-3.049.001-3.064-.002a.097.097 0 0 1-.077-.094Zm3.936 11.81a.097.097 0 0 1-.097.096H6.474a.097.097 0 0 1-.097-.097V4.226c0-.053.044-.096.097-.096h6.09v3.84c0 .673.547 1.221 1.22 1.221h3.84v10.588Z"/>
</svg>
