<svg xmlns="http://www.w3.org/2000/svg" width="24" height="24" fill="currentColor" viewBox="0 0 24 24">
  <path d="M4.548 21.15c-.45 0-.846-.17-1.188-.512-.342-.342-.512-.737-.512-1.187V4.55c0-.467.17-.867.512-1.2.342-.334.738-.5 1.188-.5h14.9c.466 0 .866.166 1.2.5.333.333.5.733.5 1.2v14.9c0 .45-.167.845-.5 1.187a1.617 1.617 0 0 1-1.2.513h-14.9Zm0-1.7h14.9v-3.374h-3.6a4.398 4.398 0 0 1-1.688 1.537 4.642 4.642 0 0 1-2.162.538 4.65 4.65 0 0 1-2.163-.538 4.397 4.397 0 0 1-1.687-1.537h-3.6v3.375Zm7.45-2.8c.683 0 1.3-.195 1.85-.587a5.315 5.315 0 0 0 1.4-1.487h4.2V4.55h-14.9v10.025h4.2c.383.6.85 1.095 1.4 1.487a3.11 3.11 0 0 0 1.85.588Zm0-10.824L8.173 9.65l1.075 1.075 2-2v4.75h1.5v-4.75l2 2 1.075-1.075-3.825-3.825Z"/>
</svg>
