<svg width="48" height="48" viewBox="0 0 48 48" fill="currentColor" xmlns="http://www.w3.org/2000/svg">
<path d="M7.66667 45C6.38333 45 5.28472 44.5431 4.37083 43.6292C3.45694 42.7153 3 41.6167 3 40.3333V7.66667C3 6.38333 3.45694 5.28472 4.37083 4.37083C5.28472 3.45694 6.38333 3 7.66667 3H40.3333C41.6167 3 42.7153 3.45694 43.6292 4.37083C44.5431 5.28472 45 6.38333 45 7.66667V40.3333C45 41.6167 44.5431 42.7153 43.6292 43.6292C42.7153 44.5431 41.6167 45 40.3333 45H7.66667ZM24 40.3333H40.3333V7.66667H24V40.3333Z" fill="currentColor"/>
</svg>
