<svg width="104" height="104" viewBox="0 0 104 104" fill="currentColor" xmlns="http://www.w3.org/2000/svg">
<path d="M0 52C0 23.2812 23.2812 0 52 0V0C80.7188 0 104 23.2812 104 52V52C104 80.7188 80.7188 104 52 104V104C23.2812 104 0 80.7188 0 52V52Z" fill="#F3F3F3"/>
<path d="M41 68C37.9667 68 35.375 66.95 33.225 64.85C31.075 62.75 30 60.1833 30 57.15C30 54.55 30.7833 52.2333 32.35 50.2C33.9167 48.1667 35.9667 46.8667 38.5 46.3C39.3333 43.2333 41 40.75 43.5 38.85C46 36.95 48.8333 36 52 36C55.9 36 59.2083 37.3583 61.925 40.075C64.6417 42.7917 66 46.1 66 50C68.3 50.2667 70.2083 51.2583 71.725 52.975C73.2417 54.6917 74 56.7 74 59C74 61.5 73.125 63.625 71.375 65.375C69.625 67.125 67.5 68 65 68H54C52.9 68 51.9583 67.6083 51.175 66.825C50.3917 66.0417 50 65.1 50 64V53.7L46.8 56.8L44 54L52 46L60 54L57.2 56.8L54 53.7V64H65C66.4 64 67.5833 63.5167 68.55 62.55C69.5167 61.5833 70 60.4 70 59C70 57.6 69.5167 56.4167 68.55 55.45C67.5833 54.4833 66.4 54 65 54H62V50C62 47.2333 61.025 44.875 59.075 42.925C57.125 40.975 54.7667 40 52 40C49.2333 40 46.875 40.975 44.925 42.925C42.975 44.875 42 47.2333 42 50H41C39.0667 50 37.4167 50.6833 36.05 52.05C34.6833 53.4167 34 55.0667 34 57C34 58.9333 34.6833 60.5833 36.05 61.95C37.4167 63.3167 39.0667 64 41 64H46V68H41Z" fill="currentColor"/>
</svg>
