<svg xmlns="http://www.w3.org/2000/svg" width="28" height="28" fill="none" viewBox="0 0 28 28">
  <path fill="#E9E9E9" d="M14 28c7.732 0 14-6.268 14-14S21.732 0 14 0 0 6.268 0 14s6.268 14 14 14Z"/>
  <path fill="#676767" d="M14 7.154a4.643 4.643 0 1 0 4.643 4.644A4.655 4.655 0 0 0 14 7.154Z"/>
  <path fill="#676767" d="M22.008 20.135c-.123-.3-.28-.586-.466-.852a5.8 5.8 0 0 0-4.014-2.514.862.862 0 0 0-.59.143 4.993 4.993 0 0 1-5.867 0 .768.768 0 0 0-.59-.142A5.76 5.76 0 0 0 6 20.135a.43.43 0 0 0 .02.385c.167.282.35.552.55.811.28.38.593.733.937 1.055.299.286.612.556.938.81a9.327 9.327 0 0 0 11.083 0c.33-.248.644-.519.937-.81a9.39 9.39 0 0 0 .938-1.055 7.11 7.11 0 0 0 .55-.81.344.344 0 0 0 .054-.386Z"/>
</svg>
