<svg width="96" height="104" viewBox="0 0 96 104" fill="none" xmlns="http://www.w3.org/2000/svg">
<path d="M73.5017 83.25H21.5017C20.3971 83.25 20.5017 82.3546 20.5017 81.25V44.2282C20.5017 43.611 20.7845 43.0284 21.2717 42.6495L27.7296 36.8505C28.2167 36.4716 28.5017 35.889 28.5017 35.2718V22.75C28.5017 21.6454 29.3971 20.75 30.5017 20.75H66.5017L67.5017 21.75V35.7937C67.5017 36.3985 67.7753 36.9707 68.246 37.3504L74.8187 42.6524C75.2527 43.0322 75.5017 43.5808 75.5017 44.1575V81.25C75.5017 82.3546 74.6062 83.25 73.5017 83.25Z" fill="white"/>
<path d="M28.7841 52.7824C28.603 52.5958 28.5017 52.3459 28.5017 52.0859V21.75C28.5017 21.1977 28.9494 20.75 29.5017 20.75H66.5017C67.054 20.75 67.5017 21.1977 67.5017 21.75V52.0483C67.5017 52.3091 67.3998 52.5597 67.2177 52.7464L56.0017 64.25H39.9159L28.7841 52.7824Z" fill="white"/>
<path d="M39.9159 64.25L21.0169 44.7808C20.8293 44.5875 20.5017 44.7203 20.5017 44.9898V80.8783C20.5017 81.7632 21.5681 82.212 22.2017 81.5944L39.9159 64.25Z" fill="white"/>
<path d="M56.0017 64.25L73.8036 81.5944C74.4371 82.212 75.5017 81.7632 75.5017 80.8783V44.9874C75.5017 44.7183 75.1747 44.5853 74.9869 44.778L56.0017 64.25Z" fill="white"/>
<path d="M67.5017 21.75V35.7937C67.5017 36.3985 67.7753 36.9707 68.246 37.3504L74.8187 42.6524C75.2527 43.0322 75.5017 43.5808 75.5017 44.1575V81.25C75.5017 82.3546 74.6062 83.25 73.5017 83.25H21.5017C20.3971 83.25 20.5017 82.3546 20.5017 81.25V44.2282C20.5017 43.611 20.7845 43.0284 21.2717 42.6495L27.7296 36.8505C28.2167 36.4716 28.5017 35.889 28.5017 35.2718V22.75C28.5017 21.6454 29.3971 20.75 30.5017 20.75H66.5017M67.5017 21.75L66.5017 20.75M67.5017 21.75V52.0483C67.5017 52.3091 67.3998 52.5597 67.2177 52.7464L56.0017 64.25M67.5017 21.75C67.5017 21.1977 67.054 20.75 66.5017 20.75M66.5017 20.75H29.5017C28.9494 20.75 28.5017 21.1977 28.5017 21.75V52.0859C28.5017 52.3459 28.603 52.5958 28.7841 52.7824L39.9159 64.25M39.9159 64.25H56.0017M39.9159 64.25L21.0169 44.7808C20.8293 44.5875 20.5017 44.7203 20.5017 44.9898V80.8783C20.5017 81.7632 21.5681 82.212 22.2017 81.5944L39.9159 64.25ZM56.0017 64.25L73.8036 81.5944C74.4371 82.212 75.5017 81.7632 75.5017 80.8783V44.9874C75.5017 44.7183 75.1747 44.5853 74.9869 44.778L56.0017 64.25ZM39.5017 33.25H56.5017M36.5017 40.25H59.5017M36.5017 48.25H59.5017" stroke="#21B185" stroke-width="4" stroke-linecap="round"/>
</svg>
