<svg xmlns="http://www.w3.org/2000/svg" width="22" height="22" fill="currentColor" viewBox="0 0 22 22">
  <path d="m10 18.55-5-2.875a1.955 1.955 0 0 1-.737-.737A2.016 2.016 0 0 1 4 13.925V8.2c0-.367.088-.704.263-1.013.175-.308.42-.554.737-.737l5-2.875c.317-.183.65-.275 1-.275s.683.092 1 .275l5 2.875c.317.183.563.429.738.737.175.309.262.646.262 1.013v5.725c0 .367-.087.704-.262 1.013a1.962 1.962 0 0 1-.738.737l-5 2.875c-.317.183-.65.275-1 .275s-.683-.092-1-.275Zm0-2.3v-4.6l-4-2.3v4.6l4 2.3Zm2 0 4-2.3v-4.6l-4 2.3v4.6ZM0 5V3C0 2.167.292 1.458.875.875A2.893 2.893 0 0 1 3 0h2v2H3a.967.967 0 0 0-.712.287A.968.968 0 0 0 2 3v2H0Zm3 17a2.893 2.893 0 0 1-2.125-.875A2.893 2.893 0 0 1 0 19v-2h2v2c0 .283.096.52.288.712A.965.965 0 0 0 3 20h2v2H3Zm14 0v-2h2c.283 0 .52-.096.712-.288A.965.965 0 0 0 20 19v-2h2v2c0 .833-.292 1.542-.875 2.125A2.893 2.893 0 0 1 19 22h-2Zm3-17V3a.968.968 0 0 0-.288-.713A.967.967 0 0 0 19 2h-2V0h2c.833 0 1.542.292 2.125.875S22 2.167 22 3v2h-2Zm-9 4.9 4-2.3-4-2.3-4 2.3 4 2.3Z"/>
</svg>
