<svg width="27" height="26" viewBox="0 0 27 26" fill="none" xmlns="http://www.w3.org/2000/svg">
<path id="Union" d="M12.0999 22.7175L5.5999 18.98C5.18824 18.7417 4.86865 18.4275 4.64115 18.0375C4.41365 17.6475 4.2999 17.2142 4.2999 16.7375V9.2625C4.2999 8.78583 4.41365 8.3525 4.64115 7.9625C4.86865 7.5725 5.18824 7.25833 5.5999 7.02L12.0999 3.2825C12.5116 3.04417 12.9449 2.925 13.3999 2.925C13.8549 2.925 14.2882 3.04417 14.6999 3.2825L21.1999 7.02C21.6116 7.25833 21.9312 7.5725 22.1587 7.9625C22.3862 8.3525 22.4999 8.78583 22.4999 9.2625V16.7375C22.4999 17.2142 22.3862 17.6475 22.1587 18.0375C21.9312 18.4275 21.6116 18.7417 21.1999 18.98L14.6999 22.7175C14.2882 22.9558 13.8549 23.075 13.3999 23.075C12.9449 23.075 12.5116 22.9558 12.0999 22.7175ZM12.0999 19.7275V13.7475L6.8999 10.725V16.7375L12.0999 19.7275ZM14.6999 19.7275L19.8999 16.7375V10.725L14.6999 13.7475V19.7275ZM0.399902 6.5V2.6C0.399902 1.885 0.654486 1.27292 1.16365 0.76375C1.67282 0.254583 2.2849 0 2.9999 0H6.8999V2.6H2.9999V6.5H0.399902ZM6.8999 26H2.9999C2.2849 26 1.67282 25.7454 1.16365 25.2362C0.654486 24.7271 0.399902 24.115 0.399902 23.4V19.5H2.9999V23.4H6.8999V26ZM19.8999 26V23.4H23.7999V19.5H26.3999V23.4C26.3999 24.115 26.1453 24.7271 25.6362 25.2362C25.127 25.7454 24.5149 26 23.7999 26H19.8999ZM23.7999 6.5V2.6H19.8999V0H23.7999C24.5149 0 25.127 0.254583 25.6362 0.76375C26.1453 1.27292 26.3999 1.885 26.3999 2.6V6.5H23.7999ZM13.3999 11.505L18.5349 8.4825L13.3999 5.525L8.2649 8.4825L13.3999 11.505Z" fill="#00694D"/>
</svg>
