<svg width="48" height="48" viewBox="0 0 48 48" fill="currentColor" xmlns="http://www.w3.org/2000/svg">
<path d="M32.2 25.2L29.3 22.3C29.6 20.7333 29.15 19.2666 27.95 17.9C26.75 16.5333 25.2 16 23.3 16.3L20.4 13.4C20.9667 13.1333 21.5417 12.9333 22.125 12.8C22.7083 12.6666 23.3333 12.6 24 12.6C26.5 12.6 28.625 13.475 30.375 15.225C32.125 16.975 33 19.1 33 21.6C33 22.2666 32.9333 22.8916 32.8 23.475C32.6667 24.0583 32.4667 24.6333 32.2 25.2ZM38.6 31.5L35.7 28.7C36.9667 27.7333 38.0917 26.675 39.075 25.525C40.0583 24.375 40.9 23.0666 41.6 21.6C39.9333 18.2333 37.5417 15.5583 34.425 13.575C31.3083 11.5916 27.8333 10.6 24 10.6C23.0333 10.6 22.0833 10.6666 21.15 10.8C20.2167 10.9333 19.3 11.1333 18.4 11.4L15.3 8.29995C16.6667 7.73328 18.0667 7.30828 19.5 7.02495C20.9333 6.74162 22.4333 6.59995 24 6.59995C29.0333 6.59995 33.5167 7.99162 37.45 10.775C41.3833 13.5583 44.2333 17.1666 46 21.6C45.2333 23.5666 44.225 25.3916 42.975 27.075C41.725 28.7583 40.2667 30.2333 38.6 31.5ZM39.6 43.8L31.2 35.5C30.0333 35.8666 28.8583 36.1416 27.675 36.325C26.4917 36.5083 25.2667 36.6 24 36.6C18.9667 36.6 14.4833 35.2083 10.55 32.425C6.61667 29.6416 3.76667 26.0333 2 21.6C2.7 19.8333 3.58333 18.1916 4.65 16.675C5.71667 15.1583 6.93333 13.8 8.3 12.6L2.8 6.99995L5.6 4.19995L42.4 41L39.6 43.8ZM11.1 15.4C10.1333 16.2666 9.25 17.2166 8.45 18.25C7.65 19.2833 6.96667 20.4 6.4 21.6C8.06667 24.9666 10.4583 27.6416 13.575 29.625C16.6917 31.6083 20.1667 32.6 24 32.6C24.6667 32.6 25.3167 32.5583 25.95 32.475C26.5833 32.3916 27.2333 32.3 27.9 32.2L26.1 30.3C25.7333 30.4 25.3833 30.475 25.05 30.525C24.7167 30.575 24.3667 30.6 24 30.6C21.5 30.6 19.375 29.725 17.625 27.975C15.875 26.225 15 24.1 15 21.6C15 21.2333 15.025 20.8833 15.075 20.55C15.125 20.2166 15.2 19.8666 15.3 19.5L11.1 15.4Z" fill="currentColor"/>
</svg>
