<svg xmlns="http://www.w3.org/2000/svg" width="24" height="24" fill="currentColor" viewBox="0 0 24 24">
  <path fill-rule="evenodd" d="M10.556 2.393a2.859 2.859 0 0 1 2.888 0c.438.256.8.622 1.056 1.06l.003.005 8.107 14.06.008.013a3.048 3.048 0 0 1 .008 2.946 2.953 2.953 0 0 1-1.048 1.102 2.86 2.86 0 0 1-1.46.42l-.011.001H3.882a2.86 2.86 0 0 1-1.46-.421c-.44-.27-.8-.65-1.048-1.102a3.049 3.049 0 0 1 .008-2.946l.008-.014L9.5 3.453a2.95 2.95 0 0 1 1.056-1.06ZM12 4c-.15 0-.3.04-.434.119a.949.949 0 0 0-.338.34l-8.1 14.05a1.049 1.049 0 0 0 0 1.006c.083.152.2.274.337.357A.86.86 0 0 0 3.9 20h16.2a.86.86 0 0 0 .435-.128.954.954 0 0 0 .337-.357 1.049 1.049 0 0 0 0-1.006L12.773 4.462l-.001-.002a.949.949 0 0 0-.338-.341A.859.859 0 0 0 12 4Z" clip-rule="evenodd"/>
  <path fill-rule="evenodd" d="M11.707 9.086a1 1 0 0 1 1 1v3.6a1 1 0 0 1-2 0v-3.6a1 1 0 0 1 1-1Zm-1 7.666a1 1 0 0 1 1-1h.03a1 1 0 0 1 0 2h-.03a1 1 0 0 1-1-1Z" clip-rule="evenodd"/>
</svg>
