<svg xmlns="http://www.w3.org/2000/svg" width="24" height="24" fill="currentColor" viewBox="0 0 24 24">
  <g clip-path="url(#a)">
    <path d="M18.8 5.66c0-.46-.12-.88-.44-1.23-.3-.33-.67-.55-1.12-.56-.66-.02-1.33 0-1.99-.01h-1.24v-.61a.76.76 0 0 0-.76-.76H10.7a.76.76 0 0 0-.76.76v.61H8.52v.63h8.49c.36 0 .67.09.91.37.23.27.25.6.23.93 0 .03-.06.08-.1.09-.06.02-.12 0-.18 0H6.11c-.28 0-.3 0-.26-.29.03-.19.05-.4.13-.57.17-.37.5-.52.9-.54h.67v-.63h-.72c-.71.02-1.19.4-1.48 1.02-.24.52-.12 1.07-.15 1.66h.54c.13 0 .18.05.18.17.02.6.05 1.19.08 1.79.02.48.12 2.54.16 3.36l.02.5c.06 1.3.23 5.16.26 5.73.03.64.05 1.27.09 1.91.04.56.32.98.8 1.29.23.15.48.19.73.24h7.89l.13-.03c.27-.03.51-.14.72-.3.47-.35.67-.85.7-1.42.04-.65.06-1.29.09-1.94l.09-1.85.09-2.13v-.15h-.65c-.02.6-.05 1.19-.07 1.79l-.09 1.91-.09 1.86c0 .19-.03.39-.03.58-.02 1.08-1.18 1.05-1.98 1.04H8.25c-.24 0-.47-.05-.68-.2-.29-.21-.42-.5-.43-.85l-.09-2.18c-.03-.65-.42-9.31-.45-9.94l-.06-1.04c0-.11.03-.17.15-.17H17.1c.35 0 .37-.09.34.38-.04.79-.07 1.58-.1 2.38-.03.72-.08 1.44-.11 2.16-.02.43-.04.86-.05 1.29h.65c.01-.32.03-.63.04-.95l.09-2.17.09-2.09c.01-.28.03-.55.03-.83 0-.13.05-.19.19-.18h.36c.11 0 .17-.04.17-.17v-.71.05Zm-5.44-1.87h-2.77v-.55c0-.06.05-.11.11-.11h2.55c.06 0 .11.05.11.11v.55Zm.34 4.69v10.13c0 .56.46 1.02 1.01 1.02s1.02-.46 1.02-1.02V8.48c0-.56-.46-1.02-1.02-1.02s-1.01.46-1.01 1.02Zm1.38 0v10.13c0 .2-.16.36-.37.36s-.36-.16-.36-.36V8.48c0-.2.16-.36.36-.36.2 0 .37.16.37.36Zm-4.1 0v10.13c0 .56.46 1.02 1.01 1.02s1.02-.46 1.02-1.02V8.48c0-.56-.46-1.02-1.02-1.02s-1.01.46-1.01 1.02Zm1.38 0v10.13c0 .2-.16.36-.37.36s-.36-.16-.36-.36V8.48c0-.2.16-.36.36-.36.2 0 .37.16.37.36Zm-4.1 0v10.13c0 .56.46 1.02 1.01 1.02s1.02-.46 1.02-1.02V8.48c0-.56-.46-1.02-1.02-1.02s-1.01.46-1.01 1.02Zm1.38 0v10.13c0 .2-.16.36-.37.36s-.36-.16-.36-.36V8.48c0-.2.16-.36.36-.36.2 0 .37.16.37.36Z"/>
  </g>
  <defs>
    <clipPath id="a">
      <path d="M0 0h24v24H0z"/>
    </clipPath>
  </defs>
</svg>
