<svg xmlns="http://www.w3.org/2000/svg" width="24" height="24" fill="currentColor" viewBox="0 0 24 24">
  <path d="m12 3.12-.484.508s-1.52 1.6-3.044 3.625c-1.53 2.03-3.132 4.397-3.132 6.443 0 3.651 2.992 6.629 6.66 6.629s6.66-2.978 6.66-6.63c0-2.045-1.602-4.412-3.127-6.442-1.53-2.025-3.05-3.625-3.05-3.625L12 3.12Zm0 2c.37.398 1.233 1.294 2.466 2.93 1.468 1.958 2.862 4.398 2.862 5.646 0 2.936-2.378 5.303-5.328 5.303s-5.328-2.367-5.328-5.303c0-1.248 1.394-3.688 2.862-5.645C10.767 6.414 11.63 5.518 12 5.119Zm-3.996 8.576c0 .927.286 1.906.947 2.677.666.772 1.717 1.3 3.049 1.3v-1.326c-.999 0-1.613-.341-2.03-.833-.42-.492-.634-1.17-.634-1.818H8.004Z"/>
</svg>
