<svg xmlns="http://www.w3.org/2000/svg" width="24" height="24" fill="currentColor" viewBox="0 0 24 24">
  <g clip-path="url(#a)">
    <path d="M12.48 12.42c-.54-.95-1.07-1.91-1.6-2.86-.58-1.04-1.16-2.07-1.74-3.11-.1-.17-.2-.35-.29-.52-.18-.32-.45-.5-.82-.5-.37 0-.65.17-.83.5-.5.9-1 1.8-1.51 2.69-.72 1.29-1.43 2.58-2.16 3.87-.38.67-.65 1.37-.75 2.13-.18 1.34.1 2.59.8 3.74.43.71 1 1.28 1.71 1.71.85.52 1.77.74 2.76.75.26-.03.53-.04.79-.08 1.09-.16 2.03-.62 2.82-1.4a5.5 5.5 0 0 0 1.48-2.62c.21-.85.22-1.71.03-2.57-.14-.62-.39-1.18-.7-1.73h.01Zm.12 3.35c-.08.99-.43 1.88-1.05 2.65-.8 1-1.85 1.55-3.13 1.66-.14.01-.27.01-.41.02-.83 0-1.61-.2-2.33-.63-.69-.42-1.23-.99-1.62-1.69a4.915 4.915 0 0 1 .02-4.86c.56-.99 1.11-1.98 1.66-2.97.38-.68.76-1.35 1.13-2.03.31-.55.62-1.1.93-1.66.05-.09.12-.15.23-.15.1 0 .17.06.21.15.78 1.4 1.56 2.79 2.34 4.19.48.87.97 1.73 1.45 2.6.46.85.65 1.76.57 2.72Zm-1.6-.09c-.19.02-.3.17-.31.39a1.946 1.946 0 0 1-1.96 1.9c-.17 0-.31.14-.33.3-.02.18.08.34.25.38.07.02.15.02.23.02.92-.07 1.69-.54 2.15-1.32.24-.4.36-.84.36-1.31 0-.23-.18-.39-.39-.36Zm5.84.86c.92-.07 1.69-.54 2.15-1.32.24-.4.36-.84.36-1.31 0-.23-.18-.39-.39-.36-.19.02-.3.17-.31.39a1.946 1.946 0 0 1-1.96 1.9c-.17 0-.31.14-.33.3-.02.18.08.34.25.38.07.02.15.02.23.02Zm3.89-5.7c-.21-.44-.47-.86-.71-1.29l-1.83-3.27c-.47-.83-.93-1.67-1.4-2.5a.92.92 0 0 0-.81-.49c-.37 0-.65.16-.83.48l-.84 1.5c-.46.82-.92 1.64-1.37 2.46-.35.63-.7 1.25-1.05 1.88-.07.12-.07.24 0 .36.14.24.46.24.61 0 .13-.23.26-.46.39-.7.67-1.2 1.35-2.41 2.02-3.61.29-.51.57-1.03.86-1.54.1-.17.31-.17.41 0 .12.21.23.41.35.62.36.65.73 1.3 1.09 1.95l.84 1.5c.34.6.67 1.21 1.01 1.81.21.38.44.76.63 1.15.41.85.55 1.74.44 2.68-.07.56-.22 1.09-.48 1.59l-.18.33c-.12.2-.41.64-.85 1.07-.05.04-.09.09-.14.13-1.06.88-2.29 1.16-3.63.98-.4-.05-.79-.17-1.16-.34a.353.353 0 0 0-.51.28c0 .17.07.29.24.36 1.02.45 2.09.55 3.18.35 1.16-.21 2.12-.77 2.89-1.65 0 0 .55-.55.85-1.31.24-.52.39-1.07.47-1.64.15-1.1-.01-2.15-.5-3.14h.01Z"/>
  </g>
  <defs>
    <clipPath id="a">
      <path d="M0 0h24v24H0z"/>
    </clipPath>
  </defs>
</svg>
