<svg xmlns="http://www.w3.org/2000/svg" width="24" height="24" fill="currentColor" viewBox="0 0 24 24">
  <path d="M16.113 7.677H7.694c-.725 0-1.315-.59-1.315-1.316v-.045C6.379 5.59 6.969 5 7.694 5h8.42c.725 0 1.315.59 1.315 1.316v.045c0 .725-.59 1.316-1.316 1.316ZM7.694 5.583a.733.733 0 0 0-.732.733v.045c0 .404.328.732.732.732h8.42a.733.733 0 0 0 .732-.732v-.045a.733.733 0 0 0-.733-.733H7.694Z"/>
  <path d="M13.242 9.82h-2.677V7.094h2.677v2.728Zm-2.093-.583h1.51v-1.56h-1.51v1.56Z"/>
  <path d="M16.653 19H7.154a1.339 1.339 0 0 1-1.328-1.5l.863-7.086a1.34 1.34 0 0 1 1.328-1.177h7.773a1.34 1.34 0 0 1 1.329 1.177l.863 7.086a1.339 1.339 0 0 1-1.329 1.5ZM8.017 9.82a.756.756 0 0 0-.75.665l-.862 7.085a.756.756 0 0 0 .75.847h9.498a.756.756 0 0 0 .75-.847l-.863-7.085a.756.756 0 0 0-.75-.664H8.017Z"/>
  <path d="M11.904 17.725a3.61 3.61 0 0 1-3.607-3.607 3.61 3.61 0 0 1 3.607-3.606 3.61 3.61 0 0 1 3.606 3.606 3.61 3.61 0 0 1-3.606 3.607Zm0-6.63a3.026 3.026 0 0 0-3.023 3.023 3.026 3.026 0 0 0 3.023 3.023 3.026 3.026 0 0 0 3.023-3.022 3.026 3.026 0 0 0-3.023-3.023Z"/>
  <path d="M11.904 15.108a.99.99 0 0 1 0-1.979.99.99 0 0 1 0 1.98Zm0-1.396a.406.406 0 1 0 .001.813.406.406 0 0 0-.001-.813Z"/>
  <path d="M11.904 13.712a.291.291 0 0 1-.292-.291v-1.345a.291.291 0 1 1 .583 0v1.345c0 .16-.13.291-.291.291Z"/>
</svg>
