<svg xmlns="http://www.w3.org/2000/svg" width="32" height="32" fill="currentColor" viewBox="0 0 32 32">
  <path fill-rule="evenodd" d="M8 2.667h13.333a4 4 0 0 1 0 8H8a4 4 0 0 1 0-8Zm0 2.666A1.333 1.333 0 1 0 8 8h13.333a1.333 1.333 0 1 0 0-2.667H8ZM13.333 12H24a4 4 0 1 1 0 8H13.333a4 4 0 0 1 0-8Zm0 2.667a1.333 1.333 0 1 0 0 2.666H24a1.333 1.333 0 1 0 0-2.666H13.333ZM8 21.333h8a4 4 0 0 1 0 8H8a4 4 0 1 1 0-8ZM8 24a1.334 1.334 0 0 0 0 2.667h8A1.333 1.333 0 1 0 16 24H8Z" clip-rule="evenodd"/>
</svg>
