<svg xmlns="http://www.w3.org/2000/svg" width="24" height="24" fill="currentColor" viewBox="0 0 24 24">
  <path d="M16 3.272V3h-2.482v.272c0 2.501-1.104 3.208-1.434 3.372-.635-.898-1.021-1.931-1.104-3.4L10.953 3H8.002v.272c-.056 2.8 1.351 4.432 2.537 5.547a3.526 3.526 0 0 0-.855 2.31c0 .79.248 1.524.745 2.149l.138.163-.138.163a3.416 3.416 0 0 0-.745 2.176c0 .897.248 1.604.827 2.256.387.462.883.925 1.49 1.496l.441.435c.138.136.69.707.965 1.033.386-.408 1.242-1.604 1.242-2.828 0-.788-.249-1.55-.745-2.148l-.138-.163.138-.163a3.42 3.42 0 0 0 .745-2.175c0-.707-.193-1.36-.58-1.93.304-.327.607-.735.635-1.252 0-.516-.276-1.087-.91-1.794C15.42 7.16 16 4.877 16 3.272Zm-1.93.272h1.378c-.055 1.468-.634 3.399-2.04 4.595a9.03 9.03 0 0 1-.91-1.088c.523-.326 1.489-1.196 1.571-3.507Zm-.497 16.314-.193.272-2.152-2.12-.192-.219a3.068 3.068 0 0 1-.828-2.066c0-.598.165-1.17.524-1.686l.193-.272 2.4 2.393c.91 1.06 1.02 2.556.248 3.698Zm0-4.65-.193.272-2.4-2.392c-.496-.544-.744-1.251-.744-1.985 0-.598.165-1.197.524-1.686l.193-.272c.055.027.083.082.138.109l2.206 2.175c.524.571.827 1.305.827 2.066-.027.626-.193 1.224-.551 1.714Zm.165-4.05c-.413-.463-.772-.844-1.71-1.741l-.055-.054c-.165-.164-.358-.327-.551-.517-1.214-1.088-2.841-2.529-2.869-5.33h1.903c.193 2.203 1.048 3.481 2.372 4.786.11.109.193.19.276.3.028.026.028.054.055.054.69.734.993 1.25.965 1.658.028.272-.11.544-.386.843Z"/>
</svg>
