{
    "asset" : {
        "generator" : "Khronos glTF Blender I/O v1.6.16",
        "version" : "2.0"
    },
    "scene" : 0,
    "scenes" : [
        {
            "name" : "Scene",
            "nodes" : [
                6
            ]
        }
    ],
    "nodes" : [
        {
            "mesh" : 0,
            "name" : "Mesh_1"
        },
        {
            "children" : [
                0
            ],
            "name" : "g"
        },
        {
            "mesh" : 1,
            "name" : "Mesh_2"
        },
        {
            "children" : [
                2
            ],
            "name" : "g.001"
        },
        {
            "children" : [
                1,
                3
            ],
            "name" : "Collada visual scene group",
            "rotation" : [
                0.7071068286895752,
                0,
                0,
                0.7071068286895752
            ]
        },
        {
            "children" : [
                4
            ],
            "name" : "RootNode (model correction matrix)"
        },
        {
            "children" : [
                5
            ],
            "name" : "RootNode (gltf orientation matrix)",
            "rotation" : [
                -0.7071068286895752,
                0,
                0,
                0.7071068286895752
            ],
            "scale" : [
                1.2999999523162842,
                1.2999999523162842,
                1.2999999523162842
            ],
            "translation" : [
                0,
                1.3000000715255737,
                0
            ]
        }
    ],
    "materials" : [
        {
            "doubleSided" : true,
            "name" : "blinn1SG",
            "normalTexture" : {
                "index" : 0
            },
            "occlusionTexture" : {
                "index" : 1
            },
            "pbrMetallicRoughness" : {
                "baseColorTexture" : {
                    "index" : 2
                },
                "metallicRoughnessTexture" : {
                    "index" : 1
                }
            }
        },
        {
            "doubleSided" : true,
            "name" : "blinn2SG",
            "normalTexture" : {
                "index" : 3
            },
            "occlusionTexture" : {
                "index" : 4
            },
            "pbrMetallicRoughness" : {
                "baseColorTexture" : {
                    "index" : 5
                },
                "metallicRoughnessTexture" : {
                    "index" : 4
                }
            }
        }
    ],
    "meshes" : [
        {
            "name" : "defaultMaterial",
            "primitives" : [
                {
                    "attributes" : {
                        "POSITION" : 0,
                        "NORMAL" : 1,
                        "TEXCOORD_0" : 2
                    },
                    "indices" : 3,
                    "material" : 0
                }
            ]
        },
        {
            "name" : "defaultMaterial.001",
            "primitives" : [
                {
                    "attributes" : {
                        "POSITION" : 4,
                        "NORMAL" : 5,
                        "TEXCOORD_0" : 6
                    },
                    "indices" : 7,
                    "material" : 1
                }
            ]
        }
    ],
    "textures" : [
        {
            "sampler" : 0,
            "source" : 0
        },
        {
            "sampler" : 0,
            "source" : 1
        },
        {
            "sampler" : 0,
            "source" : 2
        },
        {
            "sampler" : 0,
            "source" : 3
        },
        {
            "sampler" : 0,
            "source" : 4
        },
        {
            "sampler" : 0,
            "source" : 5
        }
    ],
    "images" : [
        {
            "mimeType" : "image/png",
            "name" : "blinn1SG_normal",
            "uri" : "blinn1SG_normal.png"
        },
        {
            "mimeType" : "image/png",
            "name" : "blinn1SG_metallicRoughness",
            "uri" : "blinn1SG_metallicRoughness.png"
        },
        {
            "mimeType" : "image/jpeg",
            "name" : "blinn1SG_baseColor",
            "uri" : "blinn1SG_baseColor.jpg"
        },
        {
            "mimeType" : "image/png",
            "name" : "blinn2SG_normal",
            "uri" : "blinn2SG_normal.png"
        },
        {
            "mimeType" : "image/png",
            "name" : "blinn2SG_metallicRoughness",
            "uri" : "blinn2SG_metallicRoughness.png"
        },
        {
            "mimeType" : "image/jpeg",
            "name" : "blinn2SG_baseColor",
            "uri" : "blinn2SG_baseColor.jpg"
        }
    ],
    "accessors" : [
        {
            "bufferView" : 0,
            "componentType" : 5126,
            "count" : 5765,
            "max" : [
                0.2600800096988678,
                0.43200600147247314,
                0.16065500676631927
            ],
            "min" : [
                -0.2600800096988678,
                -1,
                -0.15181000530719757
            ],
            "type" : "VEC3"
        },
        {
            "bufferView" : 1,
            "componentType" : 5126,
            "count" : 5765,
            "type" : "VEC3"
        },
        {
            "bufferView" : 2,
            "componentType" : 5126,
            "count" : 5765,
            "type" : "VEC2"
        },
        {
            "bufferView" : 3,
            "componentType" : 5123,
            "count" : 30969,
            "type" : "SCALAR"
        },
        {
            "bufferView" : 4,
            "componentType" : 5126,
            "count" : 4673,
            "max" : [
                0.19957399368286133,
                1,
                0.14643000066280365
            ],
            "min" : [
                -0.20438000559806824,
                0.5162150263786316,
                -0.16065500676631927
            ],
            "type" : "VEC3"
        },
        {
            "bufferView" : 5,
            "componentType" : 5126,
            "count" : 4673,
            "type" : "VEC3"
        },
        {
            "bufferView" : 6,
            "componentType" : 5126,
            "count" : 4673,
            "type" : "VEC2"
        },
        {
            "bufferView" : 7,
            "componentType" : 5123,
            "count" : 25554,
            "type" : "SCALAR"
        }
    ],
    "bufferViews" : [
        {
            "buffer" : 0,
            "byteLength" : 69180,
            "byteOffset" : 0
        },
        {
            "buffer" : 0,
            "byteLength" : 69180,
            "byteOffset" : 69180
        },
        {
            "buffer" : 0,
            "byteLength" : 46120,
            "byteOffset" : 138360
        },
        {
            "buffer" : 0,
            "byteLength" : 61938,
            "byteOffset" : 184480
        },
        {
            "buffer" : 0,
            "byteLength" : 56076,
            "byteOffset" : 246420
        },
        {
            "buffer" : 0,
            "byteLength" : 56076,
            "byteOffset" : 302496
        },
        {
            "buffer" : 0,
            "byteLength" : 37384,
            "byteOffset" : 358572
        },
        {
            "buffer" : 0,
            "byteLength" : 51108,
            "byteOffset" : 395956
        }
    ],
    "samplers" : [
        {
            "magFilter" : 9729,
            "minFilter" : 9987
        }
    ],
    "buffers" : [
        {
            "byteLength" : 447064,
            "uri" : "scene.bin"
        }
    ]
}
