<svg xmlns="http://www.w3.org/2000/svg" width="88" height="88" fill="none" viewBox="0 0 88 88">
  <circle cx="44" cy="44" r="44" fill="#21B185"/>
  <g clip-path="url(#clip0)">
    <path fill="#fff" d="M53.687 52.313a1.875 1.875 0 100-3.75 1.875 1.875 0 000 3.75z"/>
    <path fill="#fff" d="M44.312 62.25H29.5a3.754 3.754 0 01-3.75-3.75V43.127a3.754 3.754 0 013.75-3.75h27a3.754 3.754 0 013.75 3.75v3.75a1.875 1.875 0 003.75 0v-3.75c0-4.136-3.365-7.5-7.5-7.5h-2.254v-6.613c0-6.072-5.046-11.012-11.25-11.012-6.203 0-11.25 4.94-11.25 11.012v6.613H29.5c-4.136 0-7.5 3.364-7.5 7.5V58.5c0 4.135 3.364 7.5 7.5 7.5h14.812a1.875 1.875 0 100-3.75zm-8.816-33.237c0-4.004 3.365-7.262 7.5-7.262 4.136 0 7.5 3.258 7.5 7.262v6.613h-15v-6.613z"/>
    <path fill="#fff" d="M69.213 48.54a1.875 1.875 0 00-2.616.433l-9.242 12.91a1.061 1.061 0 01-.738.367 1.061 1.061 0 01-.803-.287l-5.973-5.829a1.875 1.875 0 10-2.619 2.684l5.983 5.839a4.834 4.834 0 003.661 1.335 4.834 4.834 0 003.5-1.874l9.28-12.962a1.875 1.875 0 00-.433-2.616zM46.562 52.313a1.875 1.875 0 100-3.75 1.875 1.875 0 000 3.75zM32.5 52.313a1.875 1.875 0 100-3.75 1.875 1.875 0 000 3.75zM39.531 52.313a1.875 1.875 0 100-3.75 1.875 1.875 0 000 3.75z"/>
  </g>
  <defs>
    <clipPath id="clip0">
      <path fill="#fff" d="M0 0h48v48H0z" transform="translate(22 18)"/>
    </clipPath>
  </defs>
</svg>
