{
    "asset" : {
        "generator" : "Khronos glTF Blender I/O v1.6.16",
        "version" : "2.0"
    },
    "scene" : 0,
    "scenes" : [
        {
            "name" : "Scene",
            "nodes" : [
                7
            ]
        }
    ],
    "nodes" : [
        {
            "mesh" : 0,
            "name" : "Mesh_1"
        },
        {
            "children" : [
                0
            ],
            "name" : "Bag_LOD0",
            "scale" : [
                100,
                100,
                136.79885864257812
            ]
        },
        {
            "mesh" : 1,
            "name" : "Straps_LOD0_BaseBag_test_Extra_0"
        },
        {
            "children" : [
                2
            ],
            "name" : "Straps_LOD0",
            "rotation" : [
                0,
                -0.9162061214447021,
                -0.4007073640823364,
                2.2632706020431215e-07
            ],
            "scale" : [
                142.69468688964844,
                100,
                66.50531005859375
            ]
        },
        {
            "children" : [
                1,
                3
            ],
            "name" : "RootNode"
        },
        {
            "children" : [
                4
            ],
            "name" : "BigBagAssembly_SketchFab.fbx",
            "rotation" : [
                0.7071068286895752,
                0,
                0,
                0.7071068286895752
            ]
        },
        {
            "children" : [
                5
            ],
            "name" : "RootNode (model correction matrix)"
        },
        {
            "children" : [
                6
            ],
            "name" : "RootNode (gltf orientation matrix)",
            "rotation" : [
                -0.7071068286895752,
                0,
                0,
                0.7071068286895752
            ],
            "scale" : [
                0.014999999664723873,
                0.014999999664723873,
                0.014999999664723873
            ],
            "translation" : [
                0.3800000250339508,
                0.7999999523162842,
                0
            ]
        }
    ],
    "materials" : [
        {
            "doubleSided" : true,
            "name" : "BaseBag_test_Base",
            "normalTexture" : {
                "index" : 0
            },
            "pbrMetallicRoughness" : {
                "baseColorTexture" : {
                    "index" : 1
                },
                "metallicRoughnessTexture" : {
                    "index" : 2
                }
            }
        },
        {
            "doubleSided" : true,
            "name" : "BaseBag_test_Extra",
            "normalTexture" : {
                "index" : 3
            },
            "pbrMetallicRoughness" : {
                "baseColorTexture" : {
                    "index" : 4
                },
                "metallicRoughnessTexture" : {
                    "index" : 5
                }
            }
        }
    ],
    "meshes" : [
        {
            "name" : "Bag_LOD0_BaseBag_test_Base_0",
            "primitives" : [
                {
                    "attributes" : {
                        "POSITION" : 0,
                        "NORMAL" : 1,
                        "TEXCOORD_0" : 2
                    },
                    "indices" : 3,
                    "material" : 0
                }
            ]
        },
        {
            "name" : "Straps_LOD0_BaseBag_test_Extra_0",
            "primitives" : [
                {
                    "attributes" : {
                        "POSITION" : 4,
                        "NORMAL" : 5,
                        "TEXCOORD_0" : 6,
                        "TEXCOORD_1" : 7,
                        "TEXCOORD_2" : 8
                    },
                    "indices" : 9,
                    "material" : 1
                }
            ]
        }
    ],
    "textures" : [
        {
            "sampler" : 0,
            "source" : 0
        },
        {
            "sampler" : 0,
            "source" : 1
        },
        {
            "sampler" : 0,
            "source" : 2
        },
        {
            "sampler" : 0,
            "source" : 3
        },
        {
            "sampler" : 0,
            "source" : 4
        },
        {
            "sampler" : 0,
            "source" : 5
        }
    ],
    "images" : [
        {
            "mimeType" : "image/png",
            "name" : "BaseBag_test_Base_normal",
            "uri" : "BaseBag_test_Base_normal.png"
        },
        {
            "mimeType" : "image/png",
            "name" : "BaseBag_test_Base_baseColor",
            "uri" : "BaseBag_test_Base_baseColor.png"
        },
        {
            "mimeType" : "image/png",
            "name" : "BaseBag_test_Base_metallicRoughness",
            "uri" : "BaseBag_test_Base_metallicRoughness.png"
        },
        {
            "mimeType" : "image/png",
            "name" : "BaseBag_test_Extra_normal",
            "uri" : "BaseBag_test_Extra_normal.png"
        },
        {
            "mimeType" : "image/png",
            "name" : "BaseBag_test_Extra_baseColor",
            "uri" : "BaseBag_test_Extra_baseColor.png"
        },
        {
            "mimeType" : "image/png",
            "name" : "BaseBag_test_Extra_metallicRoughness",
            "uri" : "BaseBag_test_Extra_metallicRoughness.png"
        }
    ],
    "accessors" : [
        {
            "bufferView" : 0,
            "componentType" : 5126,
            "count" : 1029,
            "max" : [
                0.21444201469421387,
                0.7685787081718445,
                0.2892598509788513
            ],
            "min" : [
                -0.7190485596656799,
                -0.44000566005706787,
                -0.28073304891586304
            ],
            "type" : "VEC3"
        },
        {
            "bufferView" : 1,
            "componentType" : 5126,
            "count" : 1029,
            "type" : "VEC3"
        },
        {
            "bufferView" : 2,
            "componentType" : 5126,
            "count" : 1029,
            "type" : "VEC2"
        },
        {
            "bufferView" : 3,
            "componentType" : 5123,
            "count" : 4722,
            "type" : "SCALAR"
        },
        {
            "bufferView" : 4,
            "componentType" : 5126,
            "count" : 4605,
            "max" : [
                0.4721735119819641,
                0.583818793296814,
                0.9710056185722351
            ],
            "min" : [
                -0.11679492890834808,
                -0.3238510489463806,
                -0.7563471794128418
            ],
            "type" : "VEC3"
        },
        {
            "bufferView" : 5,
            "componentType" : 5126,
            "count" : 4605,
            "type" : "VEC3"
        },
        {
            "bufferView" : 6,
            "componentType" : 5126,
            "count" : 4605,
            "type" : "VEC2"
        },
        {
            "bufferView" : 7,
            "componentType" : 5126,
            "count" : 4605,
            "type" : "VEC2"
        },
        {
            "bufferView" : 8,
            "componentType" : 5126,
            "count" : 4605,
            "type" : "VEC2"
        },
        {
            "bufferView" : 9,
            "componentType" : 5123,
            "count" : 20928,
            "type" : "SCALAR"
        }
    ],
    "bufferViews" : [
        {
            "buffer" : 0,
            "byteLength" : 12348,
            "byteOffset" : 0
        },
        {
            "buffer" : 0,
            "byteLength" : 12348,
            "byteOffset" : 12348
        },
        {
            "buffer" : 0,
            "byteLength" : 8232,
            "byteOffset" : 24696
        },
        {
            "buffer" : 0,
            "byteLength" : 9444,
            "byteOffset" : 32928
        },
        {
            "buffer" : 0,
            "byteLength" : 55260,
            "byteOffset" : 42372
        },
        {
            "buffer" : 0,
            "byteLength" : 55260,
            "byteOffset" : 97632
        },
        {
            "buffer" : 0,
            "byteLength" : 36840,
            "byteOffset" : 152892
        },
        {
            "buffer" : 0,
            "byteLength" : 36840,
            "byteOffset" : 189732
        },
        {
            "buffer" : 0,
            "byteLength" : 36840,
            "byteOffset" : 226572
        },
        {
            "buffer" : 0,
            "byteLength" : 41856,
            "byteOffset" : 263412
        }
    ],
    "samplers" : [
        {
            "magFilter" : 9729,
            "minFilter" : 9987
        }
    ],
    "buffers" : [
        {
            "byteLength" : 305268,
            "uri" : "scene.bin"
        }
    ]
}
