{
    "asset" : {
        "generator" : "Khronos glTF Blender I/O v1.6.16",
        "version" : "2.0"
    },
    "scene" : 0,
    "scenes" : [
        {
            "name" : "Scene",
            "nodes" : [
                5
            ]
        }
    ],
    "nodes" : [
        {
            "mesh" : 0,
            "name" : "Body"
        },
        {
            "mesh" : 1,
            "name" : "Mesh_2"
        },
        {
            "mesh" : 2,
            "name" : "Mesh_Bottom"
        },
        {
            "children" : [
                0,
                1,
                2
            ],
            "name" : "ver3.obj.cleaner"
        },
        {
            "children" : [
                3
            ],
            "name" : "RootNode (model correction matrix)"
        },
        {
            "children" : [
                4
            ],
            "name" : "RootNode (gltf orientation matrix)",
            "rotation" : [
                -0.7071068286895752,
                0,
                0,
                0.7071068286895752
            ],
            "scale" : [
                1.5,
                1.5,
                1.5
            ],
            "translation" : [
                0,
                1.5199999809265137,
                0
            ]
        }
    ],
    "materials" : [
        {
            "doubleSided" : true,
            "emissiveTexture" : {
                "index" : 0
            },
            "name" : "Mat_Jane_002__Female_diffuse_new_png",
            "pbrMetallicRoughness" : {
                "baseColorTexture" : {
                    "index" : 1
                },
                "metallicFactor" : 0,
                "roughnessFactor" : 0.6000000238418579
            }
        },
        {
            "doubleSided" : true,
            "emissiveTexture" : {
                "index" : 2
            },
            "name" : "Material442",
            "pbrMetallicRoughness" : {
                "baseColorTexture" : {
                    "index" : 3
                },
                "metallicFactor" : 0,
                "roughnessFactor" : 0.6000000238418579
            }
        },
        {
            "doubleSided" : true,
            "emissiveTexture" : {
                "index" : 4
            },
            "name" : "Material441",
            "pbrMetallicRoughness" : {
                "baseColorTexture" : {
                    "index" : 5
                },
                "metallicFactor" : 0,
                "roughnessFactor" : 0.6000000238418579
            }
        }
    ],
    "meshes" : [
        {
            "name" : "Mesh_0",
            "primitives" : [
                {
                    "attributes" : {
                        "POSITION" : 0,
                        "NORMAL" : 1,
                        "TEXCOORD_0" : 2
                    },
                    "indices" : 3,
                    "material" : 0
                }
            ]
        },
        {
            "name" : "Mesh_2",
            "primitives" : [
                {
                    "attributes" : {
                        "POSITION" : 4,
                        "NORMAL" : 5,
                        "TEXCOORD_0" : 6
                    },
                    "indices" : 7,
                    "material" : 1
                }
            ]
        },
        {
            "name" : "Mesh_1",
            "primitives" : [
                {
                    "attributes" : {
                        "POSITION" : 8,
                        "NORMAL" : 9,
                        "TEXCOORD_0" : 10
                    },
                    "indices" : 11,
                    "material" : 2
                }
            ]
        }
    ],
    "textures" : [
        {
            "sampler" : 0,
            "source" : 0
        },
        {
            "sampler" : 0,
            "source" : 1
        },
        {
            "sampler" : 0,
            "source" : 2
        },
        {
            "sampler" : 0,
            "source" : 3
        },
        {
            "sampler" : 0,
            "source" : 4
        },
        {
            "sampler" : 0,
            "source" : 5
        }
    ],
    "images" : [
        {
            "mimeType" : "image/png",
            "name" : "Mat_Jane_002__Female_diffuse_new_png_emissive",
            "uri" : "Mat_Jane_002__Female_diffuse_new_png_emissive.png"
        },
        {
            "mimeType" : "image/png",
            "name" : "Mat_Jane_002__Female_diffuse_new_png_baseColor",
            "uri" : "Mat_Jane_002__Female_diffuse_new_png_baseColor.png"
        },
        {
            "mimeType" : "image/jpeg",
            "name" : "Material442_emissive",
            "uri" : "Material442_emissive.jpg"
        },
        {
            "mimeType" : "image/jpeg",
            "name" : "Material442_baseColor",
            "uri" : "Material442_baseColor.jpg"
        },
        {
            "mimeType" : "image/jpeg",
            "name" : "Material441_emissive",
            "uri" : "Material441_emissive.jpg"
        },
        {
            "mimeType" : "image/jpeg",
            "name" : "Material441_baseColor",
            "uri" : "Material441_baseColor.jpg"
        }
    ],
    "accessors" : [
        {
            "bufferView" : 0,
            "componentType" : 5126,
            "count" : 21202,
            "max" : [
                0.5370000004768372,
                0.12449999898672104,
                0.7257999777793884
            ],
            "min" : [
                -0.5393000245094299,
                -0.13570000231266022,
                -1.0013999938964844
            ],
            "type" : "VEC3"
        },
        {
            "bufferView" : 1,
            "componentType" : 5126,
            "count" : 21202,
            "type" : "VEC3"
        },
        {
            "bufferView" : 2,
            "componentType" : 5126,
            "count" : 21202,
            "type" : "VEC2"
        },
        {
            "bufferView" : 3,
            "componentType" : 5123,
            "count" : 109416,
            "type" : "SCALAR"
        },
        {
            "bufferView" : 4,
            "componentType" : 5126,
            "count" : 6147,
            "max" : [
                0.1932000070810318,
                0.15129999816417694,
                0.1289999932050705
            ],
            "min" : [
                -0.19660000503063202,
                -0.15129999816417694,
                -0.47450000047683716
            ],
            "type" : "VEC3"
        },
        {
            "bufferView" : 5,
            "componentType" : 5126,
            "count" : 6147,
            "type" : "VEC3"
        },
        {
            "bufferView" : 6,
            "componentType" : 5126,
            "count" : 6147,
            "type" : "VEC2"
        },
        {
            "bufferView" : 7,
            "componentType" : 5123,
            "count" : 35841,
            "type" : "SCALAR"
        },
        {
            "bufferView" : 8,
            "componentType" : 5126,
            "count" : 2219,
            "max" : [
                0.1477999985218048,
                0.11779999732971191,
                0.46470001339912415
            ],
            "min" : [
                -0.14800000190734863,
                -0.14010000228881836,
                0.11479999870061874
            ],
            "type" : "VEC3"
        },
        {
            "bufferView" : 9,
            "componentType" : 5126,
            "count" : 2219,
            "type" : "VEC3"
        },
        {
            "bufferView" : 10,
            "componentType" : 5126,
            "count" : 2219,
            "type" : "VEC2"
        },
        {
            "bufferView" : 11,
            "componentType" : 5123,
            "count" : 11799,
            "type" : "SCALAR"
        }
    ],
    "bufferViews" : [
        {
            "buffer" : 0,
            "byteLength" : 254424,
            "byteOffset" : 0
        },
        {
            "buffer" : 0,
            "byteLength" : 254424,
            "byteOffset" : 254424
        },
        {
            "buffer" : 0,
            "byteLength" : 169616,
            "byteOffset" : 508848
        },
        {
            "buffer" : 0,
            "byteLength" : 218832,
            "byteOffset" : 678464
        },
        {
            "buffer" : 0,
            "byteLength" : 73764,
            "byteOffset" : 897296
        },
        {
            "buffer" : 0,
            "byteLength" : 73764,
            "byteOffset" : 971060
        },
        {
            "buffer" : 0,
            "byteLength" : 49176,
            "byteOffset" : 1044824
        },
        {
            "buffer" : 0,
            "byteLength" : 71682,
            "byteOffset" : 1094000
        },
        {
            "buffer" : 0,
            "byteLength" : 26628,
            "byteOffset" : 1165684
        },
        {
            "buffer" : 0,
            "byteLength" : 26628,
            "byteOffset" : 1192312
        },
        {
            "buffer" : 0,
            "byteLength" : 17752,
            "byteOffset" : 1218940
        },
        {
            "buffer" : 0,
            "byteLength" : 23598,
            "byteOffset" : 1236692
        }
    ],
    "samplers" : [
        {
            "magFilter" : 9729,
            "minFilter" : 9987
        }
    ],
    "buffers" : [
        {
            "byteLength" : 1260292,
            "uri" : "scene.bin"
        }
    ]
}
